<?xml version="1.0" encoding="UTF-8"?>
<svg id="Layer_1" data-name="Layer 1" xmlns="http://www.w3.org/2000/svg" width="1281" height="1025" viewBox="0 0 1281 1025">
  <path d="M1146.03,266.71v654.46H166.09V266.71h979.94M1147.53,265.21H164.59v657.46h982.94V265.21h0Z" fill="#fff"/>
  <g>
    <path d="M707.52,990.39c-43.44,0-78.66-30.09-78.66-67.21s35.22-67.21,78.66-67.21v134.41Z" fill="none" stroke="#fff" stroke-miterlimit="10" stroke-width="1.5"/>
    <path d="M550.2,990.39c43.44,0,78.66-30.09,78.66-67.21s-35.22-67.21-78.66-67.21v134.41Z" fill="none" stroke="#fff" stroke-miterlimit="10" stroke-width="1.5"/>
  </g>
  <rect x="164.58" y="699.72" width="69.8" height="222.73" fill="none" stroke="#fff" stroke-miterlimit="10" stroke-width="1.5"/>
  <rect x="547.19" y="266.03" width="440.92" height="100.9" fill="none" stroke="#fff" stroke-miterlimit="10" stroke-width="1.5"/>
  <g>
    <line x1="732.51" y1="268.59" x2="800.86" y2="366.92" fill="#fff" stroke="#fff" stroke-miterlimit="10" stroke-width="1.5"/>
    <line x1="988.1" y1="267.6" x2="988.1" y2="366.92" fill="#fff" stroke="#fff" stroke-miterlimit="10" stroke-width="1.5"/>
    <line x1="963.97" y1="267.6" x2="963.97" y2="366.92" fill="#fff" stroke="#fff" stroke-miterlimit="10" stroke-width="1.5"/>
    <line x1="939.83" y1="267.6" x2="939.83" y2="366.92" fill="#fff" stroke="#fff" stroke-miterlimit="10" stroke-width="1.5"/>
    <line x1="915.7" y1="267.6" x2="915.7" y2="366.92" fill="#fff" stroke="#fff" stroke-miterlimit="10" stroke-width="1.5"/>
    <line x1="891.56" y1="267.6" x2="891.56" y2="366.92" fill="#fff" stroke="#fff" stroke-miterlimit="10" stroke-width="1.5"/>
    <line x1="867.42" y1="267.6" x2="867.42" y2="366.92" fill="#fff" stroke="#fff" stroke-miterlimit="10" stroke-width="1.5"/>
    <line x1="843.29" y1="267.6" x2="843.29" y2="366.92" fill="#fff" stroke="#fff" stroke-miterlimit="10" stroke-width="1.5"/>
    <line x1="819.15" y1="267.6" x2="819.15" y2="366.92" fill="#fff" stroke="#fff" stroke-miterlimit="10" stroke-width="1.5"/>
    <line x1="795.01" y1="267.6" x2="795.01" y2="358.51" fill="#fff" stroke="#fff" stroke-miterlimit="10" stroke-width="1.5"/>
    <line x1="770.88" y1="267.6" x2="770.88" y2="323.12" fill="#fff" stroke="#fff" stroke-miterlimit="10" stroke-width="1.5"/>
  </g>
  <line x1="777.98" y1="318.55" x2="988.1" y2="318.55" fill="#fff" stroke="#fff" stroke-miterlimit="10" stroke-width="1.5"/>
  <ellipse cx="988.1" cy="319.61" rx="4.77" ry="4.04" fill="#fff"/>
  <polyline points="786.23 311.42 777.75 318.55 786.1 325.94" fill="none" stroke="#fff" stroke-miterlimit="10" stroke-width="1.5"/>
  <rect x="164.57" y="266.71" width="382.61" height="259.66" fill="none" stroke="#fff" stroke-miterlimit="10" stroke-width="1.5"/>
  <g>
    <path d="M997.1,564.08h2.89v.15c0,.43.11.81.33,1.15.22.34.56.59,1.02.76.46.17.97.25,1.54.25.59,0,1.14-.14,1.65-.42.51-.28.88-.72,1.11-1.31s.34-1.89.34-3.9v-15.87h2.89v15.92c0,2.52-.26,4.25-.78,5.17-.52.93-1.16,1.61-1.93,2.06s-1.8.66-3.12.66c-2.17,0-3.7-.47-4.6-1.4-.9-.93-1.35-1.96-1.35-3.07v-.15Z" fill="#fff"/>
    <path d="M1023.45,551.36h2.66v16.63h-2.66v-2.9c-.56.89-1.11,1.56-1.66,2.01-.54.45-1.1.78-1.67,1.01s-1.2.34-1.87.34c-1.5,0-2.77-.43-3.82-1.3-1.05-.87-1.57-2.62-1.57-5.25v-10.54h2.66v9.38c0,2.43.32,3.9.95,4.41.63.51,1.41.76,2.35.76.81,0,1.57-.24,2.28-.72s1.28-1.16,1.71-2.03c.42-.87.63-2.08.63-3.63v-8.18Z" fill="#fff"/>
    <path d="M1032.85,567.99h-2.66v-16.63h2.66v2.87c.56-.9,1.11-1.57,1.64-2.01.53-.44,1.08-.77,1.66-.99s1.22-.33,1.93-.33c1,0,1.9.21,2.7.64.8.43,1.42,1.05,1.85,1.88.44.83.66,2.16.66,3.98v10.59h-2.66v-9.4c0-1.49-.1-2.54-.29-3.17-.19-.62-.56-1.11-1.12-1.46s-1.16-.53-1.8-.53c-.78,0-1.53.24-2.23.71-.71.48-1.27,1.14-1.7,2s-.64,2.08-.64,3.66v8.18Z" fill="#fff"/>
    <path d="M1058.33,564.48c-.54,1.17-1.25,2.05-2.12,2.64s-1.9.88-3.1.88c-1.9,0-3.48-.78-4.71-2.33s-1.86-3.6-1.86-6.13c0-1.67.28-3.19.83-4.56s1.33-2.39,2.34-3.07c1-.68,2.18-1.01,3.53-1.01,1,0,1.9.21,2.7.62.79.41,1.59,1.25,2.4,2.51v-2.67h2.66v13.6c0,3.42-.34,5.67-1.03,6.76-.69,1.09-1.56,1.9-2.62,2.43s-2.3.79-3.72.79c-1.32,0-2.5-.2-3.55-.61-1.05-.41-1.84-.97-2.39-1.67-.54-.71-.82-1.45-.82-2.21v-.25h2.66v.24c0,.73.38,1.32,1.15,1.76.77.44,1.74.66,2.92.66.96,0,1.78-.17,2.46-.51.68-.34,1.24-.9,1.65-1.67.42-.77.62-2.17.62-4.19v-2ZM1058.33,559.18c0-1.78-.44-3.22-1.32-4.32-.88-1.1-1.93-1.65-3.16-1.65-1.3,0-2.38.56-3.25,1.67-.86,1.11-1.29,2.67-1.29,4.69,0,1.27.17,2.38.52,3.34.35.95.88,1.68,1.62,2.17s1.52.74,2.35.74c1.35,0,2.44-.62,3.28-1.85.84-1.24,1.26-2.83,1.26-4.77Z" fill="#fff"/>
    <path d="M1067.85,567.99h-2.66v-24.04h2.66v10.28c.56-.9,1.11-1.57,1.64-2.01.53-.44,1.08-.77,1.66-.99s1.22-.33,1.93-.33c1,0,1.9.21,2.7.64.8.43,1.42,1.05,1.85,1.88.44.83.66,2.16.66,3.98v10.59h-2.66v-9.4c0-1.49-.1-2.54-.29-3.17-.19-.62-.55-1.11-1.09-1.46-.53-.35-1.15-.53-1.83-.53-.78,0-1.53.24-2.23.71-.71.48-1.27,1.14-1.7,2s-.64,2.08-.64,3.66v8.18Z" fill="#fff"/>
    <path d="M1087.5,567.26l-6.87-15.9h2.95l5.35,12.36,5.02-12.36h2.67l-6.74,16.64c-.91,2.25-1.67,3.74-2.28,4.47-.61.73-1.26,1.25-1.94,1.54-.68.3-1.59.45-2.73.45h-2v-2.31h1.5c.74,0,1.38-.1,1.93-.31.55-.2,1.01-.53,1.38-.98.37-.45.86-1.43,1.48-2.95l.26-.66Z" fill="#fff"/>
    <path d="M1109.43,551.36h2.66v16.63h-2.66v-2.9c-.56.89-1.11,1.56-1.66,2.01-.54.45-1.1.78-1.67,1.01s-1.2.34-1.87.34c-1.5,0-2.77-.43-3.82-1.3-1.05-.87-1.57-2.62-1.57-5.25v-10.54h2.66v9.38c0,2.43.32,3.9.95,4.41.63.51,1.41.76,2.35.76.81,0,1.57-.24,2.28-.72s1.28-1.16,1.71-2.03c.42-.87.63-2.08.63-3.63v-8.18Z" fill="#fff"/>
    <path d="M1118.84,567.99h-2.66v-16.63h2.66v2.87c.56-.9,1.11-1.57,1.64-2.01.53-.44,1.08-.77,1.66-.99s1.22-.33,1.93-.33c1,0,1.9.21,2.7.64.8.43,1.42,1.05,1.85,1.88.44.83.66,2.16.66,3.98v10.59h-2.66v-9.4c0-1.49-.1-2.54-.29-3.17-.19-.62-.56-1.11-1.12-1.46s-1.16-.53-1.8-.53c-.78,0-1.53.24-2.23.71-.71.48-1.27,1.14-1.7,2s-.64,2.08-.64,3.66v8.18Z" fill="#fff"/>
    <path d="M1082.41,600.99v-23.11h2.89v20.57h11.66v2.55h-14.55Z" fill="#fff"/>
    <path d="M1109.74,596.72h2.66v.15c0,.73-.28,1.48-.83,2.25-.55.76-1.29,1.35-2.2,1.74-.91.4-1.96.6-3.14.6-2.39,0-4.24-.82-5.54-2.46-1.3-1.64-1.95-3.71-1.95-6.21s.69-4.68,2.06-6.37c1.38-1.68,3.15-2.52,5.32-2.52,1.19,0,2.27.27,3.24.82.97.55,1.73,1.4,2.3,2.55.56,1.16.84,2.77.84,4.83v.92h-11.13c0,1.78.45,3.24,1.34,4.39.9,1.15,2.14,1.73,3.73,1.73,1.14,0,1.98-.24,2.5-.71.52-.47.79-1,.79-1.57v-.15ZM1101.55,590.94h8.41v-.33c0-.77-.17-1.53-.52-2.26-.35-.73-.83-1.27-1.44-1.62-.61-.35-1.33-.53-2.15-.53-.97,0-1.86.41-2.68,1.24s-1.36,1.99-1.62,3.49Z" fill="#fff"/>
    <path d="M1126.63,596.72h2.66v.15c0,.73-.28,1.48-.83,2.25-.55.76-1.29,1.35-2.2,1.74-.91.4-1.96.6-3.14.6-2.39,0-4.24-.82-5.54-2.46-1.3-1.64-1.95-3.71-1.95-6.21s.69-4.68,2.06-6.37c1.38-1.68,3.15-2.52,5.32-2.52,1.19,0,2.27.27,3.24.82.97.55,1.73,1.4,2.3,2.55.56,1.16.84,2.77.84,4.83v.92h-11.13c0,1.78.45,3.24,1.34,4.39.9,1.15,2.14,1.73,3.73,1.73,1.14,0,1.98-.24,2.5-.71.52-.47.79-1,.79-1.57v-.15ZM1118.43,590.94h8.41v-.33c0-.77-.17-1.53-.52-2.26-.35-.73-.83-1.27-1.44-1.62-.61-.35-1.33-.53-2.15-.53-.97,0-1.86.41-2.68,1.24s-1.36,1.99-1.62,3.49Z" fill="#fff"/>
  </g>
  <g>
    <path d="M1026.2,427.52h-2.45v-23.11h2.85l6.89,16.51,6.35-16.51h2.8v23.11h-2.56v-13.78l.06-4.13h-.06l-1.44,4.14-3.94,10.29h-2.9l-4.28-10.34-1.33-3.76h-.06l.06,3.76v13.82Z" fill="#fff"/>
    <path d="M1046.86,407.19v-2.79h2.66v2.79h-2.66ZM1046.86,410.89h2.66v16.63h-2.66v-16.63Z" fill="#fff"/>
    <path d="M1056.41,427.52h-2.66v-16.63h2.66v2.87c.56-.9,1.11-1.57,1.64-2.01.53-.44,1.08-.77,1.66-.99.58-.22,1.22-.33,1.93-.33,1,0,1.9.21,2.7.64.8.43,1.42,1.05,1.85,1.88.44.83.66,2.16.66,3.98v10.59h-2.66v-9.4c0-1.49-.1-2.54-.29-3.16-.19-.62-.56-1.11-1.12-1.46-.55-.35-1.16-.53-1.8-.53-.78,0-1.53.24-2.23.71-.71.48-1.27,1.14-1.7,2-.42.85-.64,2.08-.64,3.66v8.18Z" fill="#fff"/>
    <path d="M1071.97,410.89h2.66v16.63c0,1.68-.19,2.93-.58,3.75s-1.01,1.48-1.86,1.97c-.86.49-1.79.74-2.79.74-.71,0-1.49-.08-2.32-.25v-2.2l.57.06c.52.06.94.09,1.26.09.9,0,1.63-.24,2.2-.71.57-.47.85-1.62.85-3.45v-16.63ZM1071.97,407.07v-2.67h2.66v2.67h-2.66Z" fill="#fff"/>
    <path d="M1089.33,410.89h2.66v16.63h-2.66v-2.9c-.56.89-1.11,1.56-1.66,2.01s-1.1.78-1.67,1.01-1.2.34-1.87.34c-1.5,0-2.77-.43-3.82-1.3-1.05-.87-1.57-2.62-1.57-5.25v-10.54h2.66v9.38c0,2.43.32,3.9.95,4.41.63.51,1.41.76,2.35.76.81,0,1.57-.24,2.28-.72s1.28-1.16,1.71-2.03.63-2.08.63-3.63v-8.18Z" fill="#fff"/>
    <path d="M1098.73,427.52h-2.66v-16.63h2.66v2.87c.56-.9,1.11-1.57,1.64-2.01.53-.44,1.08-.77,1.66-.99.58-.22,1.22-.33,1.93-.33,1,0,1.9.21,2.7.64.8.43,1.42,1.05,1.85,1.88.44.83.66,2.16.66,3.98v10.59h-2.66v-9.4c0-1.49-.1-2.54-.29-3.16-.19-.62-.56-1.11-1.12-1.46-.55-.35-1.16-.53-1.8-.53-.78,0-1.53.24-2.23.71-.71.48-1.27,1.14-1.7,2-.42.85-.64,2.08-.64,3.66v8.18Z" fill="#fff"/>
    <path d="M1124.21,424.01c-.54,1.17-1.25,2.05-2.12,2.64-.87.59-1.9.88-3.1.88-1.9,0-3.48-.78-4.71-2.33s-1.86-3.6-1.86-6.13c0-1.67.28-3.19.83-4.56s1.33-2.39,2.34-3.07,2.18-1.01,3.53-1.01c1,0,1.9.21,2.7.62.79.41,1.59,1.25,2.4,2.51v-2.67h2.66v13.6c0,3.42-.34,5.67-1.03,6.76-.69,1.09-1.56,1.9-2.62,2.43-1.06.53-2.3.79-3.72.79-1.32,0-2.5-.2-3.55-.61-1.05-.41-1.84-.97-2.39-1.68s-.82-1.45-.82-2.21v-.25h2.66v.24c0,.73.38,1.32,1.15,1.76.77.44,1.74.66,2.92.66.96,0,1.78-.17,2.46-.51.68-.34,1.24-.9,1.65-1.67.42-.77.62-2.17.62-4.19v-2ZM1124.21,418.71c0-1.78-.44-3.22-1.32-4.32s-1.93-1.65-3.16-1.65c-1.3,0-2.38.56-3.25,1.67-.86,1.11-1.29,2.68-1.29,4.69,0,1.27.17,2.38.52,3.34.35.95.88,1.68,1.62,2.17.73.49,1.52.74,2.35.74,1.35,0,2.44-.62,3.28-1.85.84-1.24,1.26-2.83,1.26-4.77Z" fill="#fff"/>
    <path d="M1080.3,460.52h-2.89v-23.11h2.89v11.04l9.28-11.04h3.29l-9.12,10.84,10.53,12.27h-3.62l-10.37-12.08v12.08Z" fill="#fff"/>
    <path d="M1096.85,440.19v-2.79h2.66v2.79h-2.66ZM1096.85,443.89h2.66v16.63h-2.66v-16.63Z" fill="#fff"/>
    <path d="M1106.4,460.52h-2.66v-16.63h2.66v3.01c.54-1,1.06-1.72,1.55-2.16.49-.44,1.03-.76,1.61-.98.58-.22,1.2-.33,1.86-.33s1.29.11,1.89.32,1.12.53,1.56.96c.44.43.87,1.16,1.3,2.19.54-.96,1.08-1.67,1.61-2.12.53-.45,1.07-.79,1.63-1.01.56-.22,1.15-.33,1.78-.33.91,0,1.73.22,2.46.66.74.44,1.3,1.07,1.7,1.88.4.81.59,2.2.59,4.15v10.4h-2.66v-9.25c0-1.96-.11-3.19-.34-3.71-.23-.52-.54-.91-.93-1.18-.4-.27-.88-.41-1.44-.41-.79,0-1.53.26-2.2.77-.67.51-1.21,1.2-1.61,2.06-.4.86-.6,2.08-.6,3.63v8.09h-2.66v-9.24c0-1.95-.1-3.19-.31-3.7-.21-.52-.53-.91-.98-1.19-.45-.28-.93-.42-1.45-.42-.73,0-1.44.26-2.14.79-.7.53-1.25,1.23-1.65,2.11-.4.88-.59,2.07-.59,3.57v8.09Z" fill="#fff"/>
  </g>
  <g>
    <path d="M177.78,108.12v-37.13l-8.58,3.38v-4.7l8.59-3.96h5.07v42.4h-5.08Z" fill="#fff"/>
    <path d="M202.23,108.12v-42.4h23.96v4.67h-18.44v14.62h16.12v4.23h-16.12v18.88h-5.52Z" fill="#fff"/>
  </g>
  <g>
    <path d="M252.07,820.89h3.01v.15c0,1.28.45,2.17,1.35,2.67s2.1.75,3.6.75c1.31,0,2.41-.38,3.3-1.15.89-.76,1.33-1.77,1.33-3.03,0-1.01-.38-1.84-1.14-2.49-.76-.64-1.92-1.27-3.48-1.91l-1.2-.49c-1.63-.68-2.86-1.34-3.66-2-.81-.66-1.41-1.39-1.81-2.2-.4-.8-.59-1.7-.59-2.7,0-1.75.62-3.22,1.85-4.43,1.23-1.2,3.16-1.8,5.79-1.8,2.41,0,4.1.45,5.08,1.34.98.89,1.47,1.94,1.47,3.13v.15h-3.01v-.15c0-.38-.15-.75-.45-1.12-.3-.37-.75-.63-1.36-.8s-1.27-.25-1.99-.25c-1.48,0-2.57.37-3.28,1.11-.71.74-1.06,1.58-1.06,2.53,0,.64.17,1.23.51,1.8s.8,1.03,1.39,1.39c.59.37,1.58.86,2.98,1.48l1.41.61c2.26.98,3.77,2.01,4.53,3.1.75,1.08,1.13,2.25,1.13,3.5,0,1.16-.31,2.29-.92,3.37-.62,1.09-1.47,1.91-2.56,2.47s-2.54.84-4.36.84-3.17-.21-4.32-.62c-1.16-.41-2.03-1.09-2.63-2.03-.6-.94-.9-1.97-.9-3.09v-.15Z" fill="#fff"/>
    <path d="M278.15,826.54c-2.17,0-4.02-.74-5.56-2.21s-2.3-3.67-2.3-6.58.77-5.09,2.3-6.56c1.53-1.47,3.39-2.21,5.56-2.21s4.01.74,5.54,2.21c1.53,1.47,2.3,3.66,2.3,6.56s-.77,5.1-2.3,6.58c-1.53,1.47-3.38,2.21-5.54,2.21ZM278.15,824.23c1.49,0,2.69-.59,3.59-1.78s1.36-2.75,1.36-4.7-.45-3.5-1.36-4.68-2.11-1.78-3.59-1.78-2.7.59-3.61,1.78-1.36,2.75-1.36,4.68.45,3.51,1.36,4.7,2.11,1.78,3.61,1.78Z" fill="#fff"/>
    <path d="M296.62,826.54c-2.17,0-4.02-.74-5.56-2.21s-2.3-3.67-2.3-6.58.77-5.09,2.3-6.56c1.53-1.47,3.39-2.21,5.56-2.21s4.01.74,5.54,2.21c1.53,1.47,2.3,3.66,2.3,6.56s-.77,5.1-2.3,6.58c-1.53,1.47-3.38,2.21-5.54,2.21ZM296.62,824.23c1.49,0,2.69-.59,3.59-1.78s1.36-2.75,1.36-4.7-.45-3.5-1.36-4.68-2.11-1.78-3.59-1.78-2.7.59-3.61,1.78-1.36,2.75-1.36,4.68.45,3.51,1.36,4.7,2.11,1.78,3.61,1.78Z" fill="#fff"/>
    <path d="M310.8,826.07h-2.77v-24.04h2.77v10.28c.58-.9,1.15-1.57,1.7-2.01.55-.44,1.13-.77,1.73-.99.6-.22,1.27-.33,2-.33,1.04,0,1.98.21,2.81.64.83.43,1.47,1.05,1.93,1.88.46.83.68,2.16.68,3.98v10.59h-2.77v-9.4c0-1.49-.1-2.54-.3-3.16-.2-.62-.58-1.11-1.13-1.46s-1.19-.53-1.9-.53c-.81,0-1.59.24-2.32.71-.73.48-1.32,1.14-1.76,2-.44.85-.66,2.08-.66,3.66v8.18Z" fill="#fff"/>
    <path d="M331.22,825.34l-7.13-15.9h3.07l5.56,12.36,5.22-12.36h2.77l-7,16.64c-.94,2.25-1.73,3.74-2.37,4.47-.64.73-1.31,1.25-2.02,1.54-.71.3-1.66.45-2.84.45h-2.08v-2.31h1.56c.76,0,1.43-.1,2.01-.31s1.05-.53,1.44-.98c.38-.45.9-1.43,1.54-2.95l.27-.66Z" fill="#fff"/>
    <path d="M354.01,809.44h2.77v16.63h-2.77v-2.9c-.58.89-1.16,1.56-1.72,2.01s-1.14.78-1.73,1.01-1.24.34-1.95.34c-1.56,0-2.88-.43-3.97-1.3-1.09-.87-1.63-2.62-1.63-5.25v-10.54h2.77v9.38c0,2.43.33,3.9.98,4.41.66.51,1.47.76,2.44.76.84,0,1.63-.24,2.37-.72.74-.48,1.33-1.16,1.77-2.03.44-.87.66-2.08.66-3.63v-8.18Z" fill="#fff"/>
    <path d="M363.78,826.07h-2.77v-16.63h2.77v2.87c.58-.9,1.15-1.57,1.7-2.01.55-.44,1.13-.77,1.73-.99.6-.22,1.27-.33,2-.33,1.04,0,1.98.21,2.81.64.83.43,1.47,1.05,1.93,1.88.46.83.68,2.16.68,3.98v10.59h-2.77v-9.4c0-1.49-.1-2.54-.3-3.16-.2-.62-.59-1.11-1.16-1.46s-1.2-.53-1.87-.53c-.81,0-1.59.24-2.32.71-.73.48-1.32,1.14-1.76,2-.44.85-.66,2.08-.66,3.66v8.18Z" fill="#fff"/>
    <path d="M255.64,859.07h-3.01v-23.11h3.01v11.04l9.64-11.04h3.42l-9.47,10.84,10.95,12.27h-3.76l-10.77-12.08v12.08Z" fill="#fff"/>
    <path d="M272.84,838.75v-2.79h2.77v2.79h-2.77ZM272.84,842.44h2.77v16.63h-2.77v-16.63Z" fill="#fff"/>
    <path d="M282.76,859.07h-2.77v-16.63h2.77v3.01c.57-1,1.1-1.72,1.61-2.16.51-.44,1.07-.76,1.67-.98.6-.22,1.25-.33,1.93-.33s1.34.11,1.96.32,1.17.53,1.62.96c.46.43.91,1.16,1.35,2.19.57-.96,1.12-1.67,1.67-2.12.55-.45,1.12-.79,1.7-1.01.58-.22,1.2-.33,1.85-.33.94,0,1.8.22,2.56.66.76.44,1.35,1.07,1.76,1.88.41.81.62,2.2.62,4.16v10.39h-2.77v-9.25c0-1.96-.12-3.19-.35-3.71-.23-.52-.56-.91-.97-1.18-.41-.27-.91-.41-1.5-.41-.82,0-1.59.26-2.28.77-.7.51-1.25,1.2-1.67,2.06-.42.86-.63,2.08-.63,3.63v8.09h-2.77v-9.24c0-1.95-.11-3.19-.32-3.71-.21-.52-.55-.91-1.02-1.19-.47-.28-.97-.42-1.5-.42-.75,0-1.5.26-2.22.79s-1.3,1.23-1.71,2.11-.62,2.07-.62,3.57v8.09Z" fill="#fff"/>
  </g>
  <g>
    <path d="M339.57,742.39h-2.54v-23.11h2.96l7.16,16.51,6.6-16.51h2.91v23.11h-2.66v-13.78l.06-4.12h-.06l-1.49,4.14-4.1,10.29h-3.02l-4.45-10.34-1.38-3.76h-.06l.06,3.76v13.82Z" fill="#fff"/>
    <path d="M361.04,722.06v-2.79h2.77v2.79h-2.77ZM361.04,725.75h2.77v16.63h-2.77v-16.63Z" fill="#fff"/>
    <path d="M370.96,742.39h-2.77v-16.63h2.77v2.87c.58-.9,1.15-1.57,1.7-2.01.55-.44,1.13-.77,1.73-.99.6-.22,1.27-.33,2-.33,1.04,0,1.98.21,2.81.64.83.43,1.47,1.05,1.93,1.88.46.83.68,2.16.68,3.98v10.59h-2.77v-9.4c0-1.49-.1-2.54-.3-3.16-.2-.62-.59-1.11-1.16-1.46s-1.2-.53-1.87-.53c-.81,0-1.59.24-2.32.71-.73.48-1.32,1.14-1.76,2-.44.85-.66,2.08-.66,3.66v8.18Z" fill="#fff"/>
    <path d="M384.95,738h2.77v.06c0,.71.27,1.31.81,1.78.54.47,1.46.71,2.75.71,1.13,0,2.05-.28,2.75-.83.7-.56,1.06-1.21,1.06-1.97,0-1.02-.69-1.75-2.07-2.17l-1.4-.43-.93-.3-1.91-.6c-2.18-.8-3.27-2.14-3.27-4.01,0-1.31.53-2.46,1.58-3.46s2.63-1.49,4.71-1.49,3.51.42,4.38,1.27,1.3,1.79,1.3,2.82v.06h-2.78v-.06c0-.56-.28-.99-.83-1.31-.56-.32-1.29-.48-2.22-.48-1.1,0-1.94.23-2.53.69s-.88,1.03-.88,1.71c0,.52.19.94.57,1.26.38.32,1.02.61,1.92.87l1.33.37.96.28c1.34.39,2.18.66,2.51.82.33.16.66.36,1,.61.46.36.81.79,1.03,1.29.22.51.33,1.1.33,1.77,0,1.57-.56,2.89-1.68,3.96s-2.76,1.61-4.91,1.61c-1.36,0-2.49-.2-3.39-.61-.9-.41-1.61-.97-2.15-1.69s-.8-1.55-.8-2.5v-.06Z" fill="#fff"/>
    <path d="M412.12,738.12h2.77v.15c0,.73-.29,1.48-.86,2.25-.58.76-1.34,1.35-2.28,1.74-.95.4-2.03.6-3.26.6-2.49,0-4.41-.82-5.76-2.46-1.35-1.64-2.03-3.71-2.03-6.21s.71-4.68,2.14-6.37,3.27-2.52,5.53-2.52c1.24,0,2.36.27,3.37.82,1,.55,1.8,1.4,2.39,2.55.59,1.16.88,2.77.88,4.83v.92h-11.56c0,1.78.47,3.24,1.4,4.39.93,1.15,2.22,1.73,3.87,1.73,1.19,0,2.05-.24,2.6-.71s.82-1,.82-1.57v-.15ZM403.6,732.34h8.74v-.33c0-.77-.18-1.53-.54-2.26-.36-.73-.86-1.27-1.5-1.62-.64-.35-1.38-.53-2.23-.53-1,0-1.93.41-2.78,1.24s-1.41,1.99-1.68,3.49Z" fill="#fff"/>
    <path d="M426.09,742.85c-2.17,0-4.02-.74-5.56-2.21s-2.3-3.67-2.3-6.58.77-5.09,2.3-6.56c1.53-1.47,3.39-2.21,5.56-2.21s4.01.74,5.54,2.21c1.53,1.47,2.3,3.66,2.3,6.56s-.77,5.1-2.3,6.58c-1.53,1.47-3.38,2.21-5.54,2.21ZM426.09,740.54c1.49,0,2.69-.59,3.59-1.78s1.36-2.75,1.36-4.7-.45-3.5-1.36-4.68-2.11-1.78-3.59-1.78-2.7.59-3.61,1.78-1.36,2.75-1.36,4.68.45,3.51,1.36,4.7,2.11,1.78,3.61,1.78Z" fill="#fff"/>
    <path d="M461.42,737.43h2.77v.15c0,.91-.31,1.84-.94,2.78-.63.94-1.49,1.63-2.57,2.07s-2.35.66-3.81.66c-2.94,0-5.34-1.02-7.2-3.07-1.87-2.04-2.8-5.1-2.8-9.18s.93-7.11,2.78-9.17c1.85-2.05,4.27-3.08,7.23-3.08,1.45,0,2.71.22,3.79.66,1.08.44,1.94,1.14,2.57,2.09.63.96.94,1.87.94,2.75v.15h-2.77v-.15c0-.57-.18-1.11-.53-1.63s-.86-.91-1.52-1.18c-.66-.26-1.45-.39-2.38-.39-2.36,0-4.12.93-5.28,2.8-1.16,1.87-1.74,4.25-1.74,7.13s.58,5.31,1.74,7.16c1.16,1.86,2.92,2.79,5.26,2.79,1.61,0,2.75-.33,3.43-.99s1.01-1.4,1.01-2.21v-.15Z" fill="#fff"/>
    <path d="M470.29,742.39h-2.77v-24.04h2.77v10.28c.58-.9,1.15-1.57,1.7-2.01.55-.44,1.13-.77,1.73-.99.6-.22,1.27-.33,2-.33,1.04,0,1.98.21,2.81.64.83.43,1.47,1.05,1.93,1.88.46.83.68,2.16.68,3.98v10.59h-2.77v-9.4c0-1.49-.1-2.54-.3-3.16-.2-.62-.58-1.11-1.13-1.46s-1.19-.53-1.9-.53c-.81,0-1.59.24-2.32.71-.73.48-1.32,1.14-1.76,2-.44.85-.66,2.08-.66,3.66v8.18Z" fill="#fff"/>
    <path d="M495.28,742.39c-.29-.89-.43-1.66-.43-2.31-1.18,1.2-2.19,1.96-3.02,2.29-.84.32-1.64.48-2.4.48-1.29,0-2.39-.4-3.31-1.21-.92-.81-1.38-1.92-1.38-3.34,0-1.61.65-2.85,1.95-3.72,1.3-.87,3.54-1.62,6.72-2.26l1.45-.28v-1.88c0-1.02-.33-1.74-.99-2.15-.66-.41-1.45-.62-2.38-.62-1.11,0-1.97.25-2.59.76s-.93,1.1-.93,1.77v.24h-3.01v-.22c0-.73.3-1.49.91-2.28.61-.78,1.41-1.38,2.42-1.77,1-.4,2.11-.6,3.3-.6s2.26.19,3.23.57c.97.38,1.68.89,2.13,1.53s.67,1.84.67,3.61v6.46c0,.71.02,1.45.05,2.22.03.78.21,1.68.53,2.72h-2.92ZM494.85,734l-.8.21c-2.71.68-4.44,1.33-5.19,1.95s-1.13,1.35-1.13,2.2c0,.44.11.84.34,1.22.22.38.56.67,1,.88s.88.31,1.31.31c.75,0,1.48-.23,2.2-.68.72-.45,1.28-1.05,1.69-1.81s.6-1.63.6-2.63v-1.65Z" fill="#fff"/>
  </g>
  <g>
    <path d="M587.27,642.27v-23.11h6.38c3.1,0,5.38.42,6.81,1.27,1.44.84,2.56,2.13,3.37,3.87.81,1.73,1.21,3.84,1.21,6.34,0,2.33-.36,4.36-1.09,6.07-.73,1.71-1.83,3.07-3.31,4.07s-3.67,1.5-6.58,1.5h-6.8ZM590.27,639.72h3.55c2.12,0,3.71-.31,4.79-.93s1.9-1.59,2.47-2.92c.57-1.33.86-2.99.86-5s-.26-3.73-.78-5.18c-.52-1.45-1.32-2.51-2.38-3.2-1.07-.69-2.74-1.03-5.03-1.03h-3.47v18.26Z" fill="#fff"/>
    <path d="M618.6,642.27c-.29-.89-.43-1.66-.43-2.31-1.18,1.2-2.19,1.96-3.02,2.29-.84.32-1.64.48-2.4.48-1.29,0-2.39-.4-3.31-1.21-.92-.81-1.38-1.92-1.38-3.34,0-1.61.65-2.85,1.95-3.72,1.3-.87,3.54-1.62,6.72-2.26l1.45-.28v-1.88c0-1.02-.33-1.74-.99-2.15-.66-.41-1.45-.62-2.38-.62-1.11,0-1.97.25-2.59.76s-.93,1.1-.93,1.77v.24h-3.01v-.22c0-.73.3-1.49.91-2.28.61-.78,1.41-1.38,2.42-1.77,1-.4,2.11-.6,3.3-.6s2.26.19,3.23.57c.97.38,1.68.89,2.13,1.53s.67,1.84.67,3.61v6.46c0,.71.02,1.45.05,2.22.03.78.21,1.68.53,2.72h-2.92ZM618.17,633.88l-.8.21c-2.71.68-4.44,1.33-5.19,1.95s-1.13,1.35-1.13,2.2c0,.44.11.84.34,1.22.22.38.56.67,1,.88s.88.31,1.31.31c.75,0,1.48-.23,2.2-.68.72-.45,1.28-1.05,1.69-1.81s.6-1.63.6-2.63v-1.65Z" fill="#fff"/>
    <path d="M628.25,642.27h-2.77v-24.04h2.77v10.28c.58-.9,1.15-1.57,1.7-2.01.55-.44,1.13-.77,1.73-.99.6-.22,1.27-.33,2-.33,1.04,0,1.98.21,2.81.64.83.43,1.47,1.05,1.93,1.88s.68,2.16.68,3.98v10.59h-2.77v-9.4c0-1.49-.1-2.54-.3-3.16-.2-.62-.58-1.11-1.13-1.46s-1.19-.53-1.9-.53c-.81,0-1.59.24-2.32.71-.73.48-1.32,1.14-1.76,2-.44.85-.66,2.08-.66,3.66v8.18Z" fill="#fff"/>
    <path d="M648.67,641.54l-7.13-15.9h3.07l5.56,12.36,5.22-12.36h2.77l-7,16.64c-.94,2.25-1.73,3.74-2.37,4.47-.63.73-1.31,1.25-2.02,1.54-.71.3-1.66.45-2.84.45h-2.08v-2.31h1.56c.76,0,1.43-.1,2.01-.31s1.05-.53,1.44-.98c.38-.45.9-1.43,1.54-2.95l.28-.66Z" fill="#fff"/>
    <path d="M671.31,637.99h2.77v.15c0,.73-.29,1.48-.86,2.25-.58.76-1.34,1.35-2.28,1.74-.95.4-2.03.6-3.26.6-2.49,0-4.41-.82-5.76-2.46-1.35-1.64-2.03-3.71-2.03-6.21s.71-4.68,2.14-6.37c1.43-1.68,3.27-2.52,5.53-2.52,1.24,0,2.36.27,3.37.82s1.8,1.4,2.39,2.55c.59,1.16.88,2.77.88,4.83v.92h-11.56c0,1.78.47,3.24,1.4,4.39.93,1.15,2.22,1.73,3.88,1.73,1.19,0,2.05-.24,2.6-.71.54-.47.82-1,.82-1.57v-.15ZM662.79,632.22h8.74v-.33c0-.77-.18-1.53-.54-2.26-.36-.73-.86-1.27-1.5-1.62-.64-.35-1.38-.53-2.23-.53-1,0-1.93.41-2.78,1.24-.85.83-1.41,1.99-1.68,3.49Z" fill="#fff"/>
    <path d="M695.65,642.27h-3.05l-5.24-23.11h2.87l3.67,16.28.51,2.79h.13l.5-2.79,4.23-16.28h2.98l4.11,16.32.49,2.74h.14l.48-2.74,3.79-16.32h2.63l-5.37,23.11h-3.05l-4.17-16.58-.61-2.83h-.17l-.58,2.83-4.3,16.58Z" fill="#fff"/>
    <path d="M724.3,642.73c-2.17,0-4.03-.74-5.56-2.21s-2.3-3.67-2.3-6.58.77-5.09,2.3-6.56c1.53-1.47,3.38-2.21,5.56-2.21s4.01.74,5.54,2.21c1.53,1.47,2.3,3.66,2.3,6.56s-.77,5.1-2.3,6.58c-1.53,1.47-3.38,2.21-5.54,2.21ZM724.3,640.42c1.49,0,2.69-.59,3.59-1.78.91-1.19,1.36-2.75,1.36-4.7s-.45-3.5-1.36-4.68c-.91-1.19-2.11-1.78-3.59-1.78s-2.7.59-3.61,1.78c-.91,1.19-1.36,2.75-1.36,4.68s.45,3.51,1.36,4.7c.91,1.19,2.11,1.78,3.61,1.78Z" fill="#fff"/>
    <path d="M738.48,642.27h-2.77v-16.63h2.77v2.87c.58-.9,1.15-1.57,1.7-2.01.55-.44,1.13-.77,1.73-.99.6-.22,1.27-.33,2-.33,1.04,0,1.98.21,2.8.64s1.47,1.05,1.93,1.88c.46.83.68,2.16.68,3.98v10.59h-2.77v-9.4c0-1.49-.1-2.54-.3-3.16-.2-.62-.59-1.11-1.16-1.46s-1.2-.53-1.88-.53c-.81,0-1.59.24-2.32.71-.73.48-1.32,1.14-1.76,2-.44.85-.66,2.08-.66,3.66v8.18Z" fill="#fff"/>
    <path d="M569.38,671.35h3.01v.15c0,.43.11.81.34,1.15s.58.59,1.06.76c.48.17,1.01.25,1.6.25.61,0,1.19-.14,1.71-.42s.91-.72,1.15-1.31.36-1.89.36-3.9v-15.87h3.01v15.92c0,2.52-.27,4.25-.81,5.18-.54.93-1.21,1.61-2,2.05s-1.87.66-3.24.66c-2.25,0-3.84-.47-4.78-1.4-.93-.93-1.4-1.96-1.4-3.07v-.15Z" fill="#fff"/>
    <path d="M596.61,670.99h2.77v.15c0,.73-.29,1.48-.86,2.25-.58.76-1.34,1.35-2.28,1.74-.95.4-2.03.6-3.26.6-2.49,0-4.41-.82-5.76-2.46-1.35-1.64-2.03-3.71-2.03-6.21s.71-4.68,2.14-6.37,3.27-2.52,5.53-2.52c1.24,0,2.36.27,3.37.82,1,.55,1.8,1.4,2.39,2.55.59,1.16.88,2.77.88,4.83v.92h-11.56c0,1.78.47,3.24,1.4,4.39.93,1.15,2.22,1.73,3.87,1.73,1.19,0,2.05-.24,2.6-.71s.82-1,.82-1.57v-.15ZM588.1,665.22h8.74v-.33c0-.77-.18-1.53-.54-2.26-.36-.73-.86-1.27-1.5-1.62-.64-.35-1.38-.53-2.23-.53-1,0-1.93.41-2.78,1.24s-1.41,1.99-1.68,3.49Z" fill="#fff"/>
    <path d="M610.58,675.73c-2.17,0-4.02-.74-5.56-2.21s-2.3-3.67-2.3-6.58.77-5.09,2.3-6.56c1.53-1.47,3.39-2.21,5.56-2.21s4.01.74,5.54,2.21c1.53,1.47,2.3,3.66,2.3,6.56s-.77,5.1-2.3,6.58c-1.53,1.47-3.38,2.21-5.54,2.21ZM610.58,673.42c1.49,0,2.69-.59,3.59-1.78s1.36-2.75,1.36-4.7-.45-3.5-1.36-4.68-2.11-1.78-3.59-1.78-2.7.59-3.61,1.78-1.36,2.75-1.36,4.68.45,3.51,1.36,4.7,2.11,1.78,3.61,1.78Z" fill="#fff"/>
    <path d="M624.77,675.27h-2.77v-16.63h2.77v2.87c.58-.9,1.15-1.57,1.7-2.01.55-.44,1.13-.77,1.73-.99.6-.22,1.27-.33,2-.33,1.04,0,1.98.21,2.81.64.83.43,1.47,1.05,1.93,1.88.46.83.68,2.16.68,3.98v10.59h-2.77v-9.4c0-1.49-.1-2.54-.3-3.16-.2-.62-.59-1.11-1.16-1.46s-1.2-.53-1.87-.53c-.81,0-1.59.24-2.32.71-.73.48-1.32,1.14-1.76,2-.44.85-.66,2.08-.66,3.66v8.18Z" fill="#fff"/>
    <path d="M651.24,671.75c-.57,1.17-1.3,2.05-2.21,2.64-.91.59-1.98.88-3.22.88-1.98,0-3.61-.78-4.9-2.33-1.29-1.55-1.93-3.6-1.93-6.13,0-1.67.29-3.19.87-4.56.58-1.37,1.39-2.39,2.43-3.07,1.04-.67,2.27-1.01,3.67-1.01,1.04,0,1.98.21,2.8.62.83.41,1.66,1.25,2.49,2.51v-2.67h2.77v13.6c0,3.42-.36,5.67-1.07,6.76-.72,1.09-1.62,1.9-2.72,2.43-1.1.53-2.39.79-3.87.79-1.37,0-2.6-.2-3.69-.61-1.09-.41-1.92-.97-2.48-1.67-.57-.71-.85-1.45-.85-2.21v-.25h2.77v.24c0,.73.4,1.32,1.19,1.76.8.44,1.81.66,3.03.66,1,0,1.85-.17,2.56-.51.71-.34,1.28-.9,1.72-1.67.43-.77.65-2.17.65-4.19v-2ZM651.24,666.45c0-1.78-.46-3.22-1.37-4.32-.92-1.1-2.01-1.65-3.28-1.65-1.35,0-2.48.56-3.37,1.67-.9,1.11-1.34,2.68-1.34,4.69,0,1.27.18,2.38.54,3.34.36.95.92,1.68,1.68,2.17.76.49,1.58.74,2.44.74,1.4,0,2.54-.62,3.41-1.85.87-1.24,1.31-2.83,1.31-4.77Z" fill="#fff"/>
    <path d="M660.89,675.27h-2.75c.05-.55.09-1.21.12-2,.03-.78.06-1.42.08-1.92.02-.5.03-.83.03-1v-19.12h2.77v10.29c.6-.94,1.16-1.63,1.69-2.05s1.1-.75,1.73-.97c.62-.22,1.28-.33,1.97-.33,1.25,0,2.39.34,3.44,1.04,1.04.69,1.85,1.72,2.43,3.09s.87,2.91.87,4.62c0,2.53-.61,4.63-1.82,6.31s-2.9,2.51-5.06,2.51c-.71,0-1.37-.1-1.99-.31-.62-.2-1.17-.51-1.66-.91-.49-.4-1.02-1.12-1.6-2.15l-.09,1.21c-.04.67-.09,1.23-.15,1.7ZM661.13,666.96c0,1.89.4,3.44,1.21,4.65.8,1.21,1.93,1.82,3.38,1.82,1.33,0,2.44-.54,3.33-1.61.88-1.07,1.32-2.68,1.32-4.81,0-2.49-.45-4.22-1.35-5.19-.9-.97-1.98-1.45-3.22-1.45-.87,0-1.69.27-2.44.8-.75.53-1.31,1.32-1.68,2.37-.37,1.05-.55,2.19-.55,3.43Z" fill="#fff"/>
    <path d="M676.95,654.94v-2.79h2.77v2.79h-2.77ZM676.95,658.63h2.77v16.63h-2.77v-16.63Z" fill="#fff"/>
    <path d="M686.87,675.27h-2.77v-16.63h2.77v2.87c.58-.9,1.15-1.57,1.7-2.01.55-.44,1.12-.77,1.73-.99s1.27-.33,2-.33c1.04,0,1.98.21,2.81.64.83.43,1.47,1.05,1.93,1.88.46.83.68,2.16.68,3.98v10.59h-2.77v-9.4c0-1.49-.1-2.54-.3-3.16-.2-.62-.59-1.11-1.16-1.46s-1.2-.53-1.87-.53c-.81,0-1.59.24-2.32.71-.73.48-1.32,1.14-1.76,2-.44.85-.66,2.08-.66,3.66v8.18Z" fill="#fff"/>
    <path d="M713.11,675.27h-2.78l9.46-23.11h3.04l8.74,23.11h-3.24l-2.4-6.36h-10.2l-2.61,6.36ZM716.63,666.6h8.41l-4.06-10.74-4.35,10.74Z" fill="#fff"/>
    <path d="M736.97,675.27h-2.77v-24.04h2.77v10.28c.58-.9,1.15-1.57,1.7-2.01.55-.44,1.13-.77,1.73-.99.6-.22,1.27-.33,2-.33,1.04,0,1.98.21,2.8.64s1.47,1.05,1.93,1.88c.46.83.68,2.16.68,3.98v10.59h-2.77v-9.4c0-1.49-.1-2.54-.3-3.16-.2-.62-.58-1.11-1.13-1.46-.56-.35-1.19-.53-1.91-.53-.81,0-1.59.24-2.32.71-.73.48-1.32,1.14-1.76,2-.44.85-.66,2.08-.66,3.66v8.18Z" fill="#fff"/>
    <path d="M754.75,675.27h-2.77v-16.63h2.77v2.87c.58-.9,1.15-1.57,1.7-2.01.55-.44,1.13-.77,1.73-.99.6-.22,1.27-.33,2-.33,1.04,0,1.98.21,2.8.64s1.47,1.05,1.93,1.88c.46.83.68,2.16.68,3.98v10.59h-2.77v-9.4c0-1.49-.1-2.54-.3-3.16-.2-.62-.59-1.11-1.16-1.46s-1.2-.53-1.88-.53c-.81,0-1.59.24-2.32.71-.73.48-1.32,1.14-1.76,2-.44.85-.66,2.08-.66,3.66v8.18Z" fill="#fff"/>
  </g>
  <g>
    <path d="M580.31,435.78c-2.45,1.17-4.79,1.76-7.01,1.76s-4.18-.46-5.61-1.38c-1.43-.92-2.57-2.24-3.42-3.97-.85-1.73-1.28-3.94-1.28-6.64,0-3.05.4-5.42,1.21-7.1.81-1.69,1.95-3.01,3.41-3.97,1.47-.96,3.21-1.44,5.22-1.44,1.38,0,2.63.22,3.76.66s2.03,1.1,2.7,1.99,1,1.77,1,2.64v.15h-2.77v-.15c0-.54-.21-1.03-.62-1.5-.41-.46-.95-.82-1.62-1.09-.67-.26-1.43-.4-2.29-.4-2.24,0-3.96.88-5.14,2.64s-1.77,4.18-1.77,7.27.61,5.51,1.82,7.3c1.21,1.79,2.92,2.68,5.12,2.68,1.29,0,2.79-.31,4.5-.92v-6.6h-5.21v-2.31h7.98v10.38Z" fill="#fff"/>
    <path d="M594.33,436.84c-.29-.89-.43-1.66-.43-2.31-1.18,1.2-2.19,1.96-3.02,2.29-.84.32-1.64.48-2.4.48-1.29,0-2.39-.4-3.31-1.21-.92-.81-1.38-1.92-1.38-3.34,0-1.61.65-2.85,1.95-3.72,1.3-.87,3.54-1.63,6.72-2.26l1.45-.28v-1.88c0-1.02-.33-1.74-.99-2.15-.66-.41-1.45-.62-2.38-.62-1.11,0-1.97.25-2.59.76s-.93,1.1-.93,1.77v.24h-3.01v-.22c0-.73.3-1.49.91-2.28.61-.78,1.41-1.38,2.42-1.77,1-.4,2.11-.6,3.3-.6s2.26.19,3.23.57c.97.38,1.68.89,2.13,1.53.45.64.67,1.84.67,3.61v6.46c0,.7.02,1.45.05,2.22s.21,1.68.53,2.72h-2.92ZM593.9,428.45l-.8.21c-2.71.68-4.44,1.33-5.19,1.95-.76.61-1.13,1.35-1.13,2.2,0,.44.11.84.34,1.22s.56.67,1,.88.88.31,1.31.31c.75,0,1.48-.23,2.2-.68s1.28-1.05,1.69-1.81c.4-.75.6-1.63.6-2.63v-1.65Z" fill="#fff"/>
    <path d="M611.83,432.56h2.77v.15c0,.73-.29,1.48-.86,2.25s-1.34,1.35-2.28,1.74c-.95.4-2.03.6-3.26.6-2.49,0-4.41-.82-5.76-2.46s-2.03-3.71-2.03-6.21.71-4.68,2.14-6.37c1.43-1.68,3.27-2.52,5.53-2.52,1.24,0,2.36.27,3.37.82,1,.55,1.8,1.4,2.39,2.55.59,1.16.88,2.77.88,4.83v.92h-11.56c0,1.78.47,3.24,1.4,4.39.93,1.15,2.22,1.73,3.87,1.73,1.19,0,2.05-.24,2.6-.71.55-.47.82-1,.82-1.57v-.15ZM603.31,426.79h8.74v-.33c0-.77-.18-1.53-.54-2.26-.36-.73-.86-1.27-1.5-1.62-.64-.35-1.38-.53-2.23-.53-1,0-1.93.41-2.78,1.24-.85.83-1.41,1.99-1.68,3.49Z" fill="#fff"/>
    <path d="M629.52,420.2h2.77v16.63h-2.77v-2.9c-.58.89-1.16,1.56-1.72,2.01s-1.14.78-1.73,1.01-1.24.34-1.95.34c-1.56,0-2.88-.43-3.97-1.3-1.09-.87-1.63-2.62-1.63-5.25v-10.54h2.77v9.38c0,2.43.33,3.9.98,4.41.66.51,1.47.76,2.44.76.84,0,1.63-.24,2.37-.72s1.33-1.16,1.77-2.03.66-2.08.66-3.63v-8.18Z" fill="#fff"/>
    <path d="M639.29,436.84h-2.77v-16.63h2.77v2.87c.58-.9,1.15-1.57,1.7-2.01.55-.44,1.12-.77,1.73-.99.6-.22,1.27-.33,2-.33,1.04,0,1.98.21,2.81.64.83.43,1.47,1.05,1.93,1.88.46.83.68,2.16.68,3.98v10.59h-2.77v-9.4c0-1.49-.1-2.54-.3-3.16-.2-.62-.59-1.11-1.16-1.46-.58-.35-1.2-.53-1.87-.53-.81,0-1.59.24-2.32.71-.73.48-1.32,1.14-1.76,2-.44.85-.66,2.08-.66,3.66v8.18Z" fill="#fff"/>
    <path d="M582.62,469.84v-23.11h3.01v20.57h12.11v2.55h-15.12Z" fill="#fff"/>
    <path d="M611.02,465.56h2.77v.15c0,.73-.29,1.48-.86,2.25s-1.34,1.35-2.28,1.74c-.95.4-2.03.6-3.26.6-2.49,0-4.41-.82-5.76-2.46s-2.03-3.71-2.03-6.21.71-4.68,2.14-6.37c1.43-1.68,3.27-2.52,5.53-2.52,1.24,0,2.36.27,3.37.82,1,.55,1.8,1.4,2.39,2.55.59,1.16.88,2.77.88,4.83v.92h-11.56c0,1.78.47,3.24,1.4,4.39.93,1.15,2.22,1.73,3.87,1.73,1.19,0,2.05-.24,2.6-.71.55-.47.82-1,.82-1.57v-.15ZM602.51,459.79h8.74v-.33c0-.77-.18-1.53-.54-2.26-.36-.73-.86-1.27-1.5-1.62-.64-.35-1.38-.53-2.23-.53-1,0-1.93.41-2.78,1.24-.85.83-1.41,1.99-1.68,3.49Z" fill="#fff"/>
    <path d="M628.57,465.56h2.77v.15c0,.73-.29,1.48-.86,2.25s-1.34,1.35-2.28,1.74c-.95.4-2.03.6-3.26.6-2.49,0-4.41-.82-5.76-2.46s-2.03-3.71-2.03-6.21.71-4.68,2.14-6.37c1.43-1.68,3.27-2.52,5.53-2.52,1.24,0,2.36.27,3.37.82,1,.55,1.8,1.4,2.39,2.55.59,1.16.88,2.77.88,4.83v.92h-11.56c0,1.78.47,3.24,1.4,4.39.93,1.15,2.22,1.73,3.87,1.73,1.19,0,2.05-.24,2.6-.71.55-.47.82-1,.82-1.57v-.15ZM620.05,459.79h8.74v-.33c0-.77-.18-1.53-.54-2.26-.36-.73-.86-1.27-1.5-1.62-.64-.35-1.38-.53-2.23-.53-1,0-1.93.41-2.78,1.24-.85.83-1.41,1.99-1.68,3.49Z" fill="#fff"/>
  </g>
  <g>
    <path d="M786.71,410.25h-2.54v-23.11h2.96l7.16,16.51,6.6-16.51h2.91v23.11h-2.66v-13.78l.06-4.13h-.06l-1.49,4.14-4.1,10.29h-3.02l-4.45-10.34-1.38-3.76h-.06l.06,3.76v13.82Z" fill="#fff"/>
    <path d="M808.18,389.92v-2.79h2.77v2.79h-2.77ZM808.18,393.62h2.77v16.63h-2.77v-16.63Z" fill="#fff"/>
    <path d="M818.11,410.25h-2.77v-16.63h2.77v2.87c.58-.9,1.15-1.57,1.7-2.01.55-.44,1.13-.77,1.73-.99.6-.22,1.27-.33,2-.33,1.04,0,1.98.21,2.8.64.83.43,1.47,1.05,1.93,1.88.46.83.68,2.16.68,3.98v10.59h-2.77v-9.4c0-1.49-.1-2.54-.3-3.16-.2-.62-.59-1.11-1.16-1.46-.58-.35-1.2-.53-1.88-.53-.81,0-1.59.24-2.32.71-.73.48-1.32,1.14-1.76,2-.44.85-.66,2.08-.66,3.66v8.18Z" fill="#fff"/>
    <path d="M834.28,393.62h2.77v16.63c0,1.68-.2,2.93-.6,3.75-.4.82-1.05,1.48-1.94,1.97-.89.49-1.86.74-2.9.74-.74,0-1.54-.08-2.41-.25v-2.2l.59.06c.55.06.98.09,1.31.09.93,0,1.69-.24,2.28-.71.59-.47.88-1.62.88-3.45v-16.63ZM834.28,389.8v-2.67h2.77v2.67h-2.77Z" fill="#fff"/>
    <path d="M852.31,393.62h2.77v16.63h-2.77v-2.9c-.58.89-1.16,1.56-1.72,2.01-.56.45-1.14.78-1.73,1.01-.59.23-1.24.34-1.95.34-1.56,0-2.88-.43-3.97-1.3s-1.63-2.62-1.63-5.25v-10.54h2.77v9.38c0,2.43.33,3.9.99,4.41.66.51,1.47.76,2.44.76.84,0,1.63-.24,2.37-.72.74-.48,1.33-1.16,1.77-2.03s.66-2.08.66-3.63v-8.18Z" fill="#fff"/>
    <path d="M872.37,410.25h-2.89v-24.04h2.89v15.32l7.37-7.92h3.2l-7.23,7.77,7.5,8.86h-3.47l-7.37-8.71v8.71Z" fill="#fff"/>
    <path d="M885.88,389.92v-2.79h2.77v2.79h-2.77ZM885.88,393.62h2.77v16.63h-2.77v-16.63Z" fill="#fff"/>
    <path d="M895.81,410.25h-2.77v-16.63h2.77v3.01c.57-1,1.1-1.72,1.61-2.16s1.07-.76,1.67-.98,1.25-.33,1.93-.33,1.34.11,1.96.32,1.17.53,1.62.96.91,1.16,1.35,2.19c.57-.96,1.12-1.67,1.67-2.12.55-.45,1.12-.79,1.7-1.01.58-.22,1.2-.33,1.85-.33.94,0,1.79.22,2.56.66.76.44,1.35,1.07,1.76,1.88.41.81.62,2.2.62,4.15v10.4h-2.77v-9.25c0-1.96-.12-3.19-.35-3.71s-.56-.91-.97-1.18c-.41-.27-.91-.41-1.5-.41-.83,0-1.59.26-2.28.77-.7.51-1.25,1.2-1.67,2.06-.42.86-.63,2.08-.63,3.63v8.09h-2.77v-9.24c0-1.95-.11-3.19-.32-3.7-.21-.52-.55-.91-1.02-1.19-.47-.28-.97-.42-1.5-.42-.75,0-1.5.26-2.22.79-.73.53-1.3,1.23-1.71,2.11-.41.88-.62,2.07-.62,3.57v8.09Z" fill="#fff"/>
  </g>
  <g>
    <path d="M761.46,542.32v-23.11h13.05v2.55h-10.04v7.28h8.78v2.31h-8.78v8.43h10.85v2.55h-13.85Z" fill="#fff"/>
    <path d="M789.78,525.69h2.77v16.63h-2.77v-2.9c-.58.89-1.16,1.56-1.72,2.01-.56.45-1.14.78-1.73,1.01-.59.23-1.24.34-1.95.34-1.56,0-2.88-.43-3.97-1.3-1.09-.87-1.63-2.62-1.63-5.25v-10.54h2.77v9.38c0,2.43.33,3.9.99,4.41.66.51,1.47.76,2.44.76.84,0,1.63-.24,2.37-.72.74-.48,1.33-1.16,1.77-2.03.44-.87.66-2.08.66-3.63v-8.18Z" fill="#fff"/>
    <path d="M799.55,542.32h-2.77v-16.63h2.77v2.87c.58-.9,1.15-1.57,1.7-2.01.55-.44,1.13-.77,1.73-.99.6-.22,1.27-.33,2-.33,1.04,0,1.98.21,2.8.64.83.43,1.47,1.05,1.93,1.88.46.83.68,2.16.68,3.98v10.59h-2.77v-9.4c0-1.49-.1-2.54-.3-3.17-.2-.62-.59-1.11-1.16-1.46s-1.2-.53-1.88-.53c-.81,0-1.59.24-2.32.71-.73.48-1.32,1.14-1.76,2s-.66,2.08-.66,3.66v8.18Z" fill="#fff"/>
    <path d="M817.45,542.32h-2.89v-24.04h2.89v15.33l7.37-7.92h3.2l-7.23,7.77,7.5,8.86h-3.47l-7.37-8.71v8.71Z" fill="#fff"/>
    <path d="M836.37,541.59l-7.13-15.9h3.07l5.56,12.36,5.22-12.36h2.77l-7,16.64c-.94,2.25-1.73,3.74-2.37,4.47-.64.73-1.31,1.25-2.02,1.54-.71.3-1.66.45-2.84.45h-2.08v-2.31h1.56c.76,0,1.43-.1,2.01-.31.58-.2,1.05-.53,1.44-.98.38-.45.9-1.43,1.54-2.95l.28-.66Z" fill="#fff"/>
    <path d="M859.01,538.05h2.77v.15c0,.73-.29,1.48-.86,2.25-.58.76-1.34,1.35-2.28,1.74-.95.4-2.03.6-3.26.6-2.49,0-4.41-.82-5.76-2.46-1.35-1.64-2.03-3.71-2.03-6.21s.71-4.68,2.14-6.37c1.43-1.68,3.27-2.52,5.52-2.52,1.24,0,2.36.27,3.37.82,1,.55,1.8,1.4,2.39,2.55.59,1.16.88,2.77.88,4.83v.92h-11.56c0,1.78.46,3.24,1.4,4.39.93,1.15,2.22,1.73,3.87,1.73,1.19,0,2.05-.24,2.6-.71.54-.47.82-1,.82-1.57v-.15ZM850.5,532.27h8.74v-.33c0-.77-.18-1.53-.54-2.26s-.86-1.27-1.5-1.62-1.38-.53-2.23-.53c-1,0-1.93.41-2.78,1.24s-1.41,1.99-1.68,3.49Z" fill="#fff"/>
    <path d="M872.98,542.78c-2.17,0-4.03-.74-5.56-2.21s-2.3-3.67-2.3-6.58.77-5.09,2.3-6.56c1.53-1.47,3.38-2.21,5.56-2.21s4.01.74,5.54,2.21c1.53,1.47,2.3,3.66,2.3,6.56s-.77,5.1-2.3,6.58c-1.53,1.47-3.38,2.21-5.54,2.21ZM872.98,540.47c1.49,0,2.69-.59,3.59-1.78.91-1.19,1.36-2.75,1.36-4.7s-.45-3.5-1.36-4.68c-.91-1.19-2.11-1.78-3.59-1.78s-2.7.59-3.61,1.78c-.91,1.19-1.36,2.75-1.36,4.68s.45,3.51,1.36,4.7c.91,1.19,2.11,1.78,3.61,1.78Z" fill="#fff"/>
    <path d="M887.16,542.32h-2.77v-16.63h2.77v2.87c.58-.9,1.15-1.57,1.7-2.01.55-.44,1.13-.77,1.73-.99.6-.22,1.27-.33,2-.33,1.04,0,1.98.21,2.8.64.83.43,1.47,1.05,1.93,1.88.46.83.68,2.16.68,3.98v10.59h-2.77v-9.4c0-1.49-.1-2.54-.3-3.17-.2-.62-.59-1.11-1.16-1.46s-1.2-.53-1.88-.53c-.81,0-1.59.24-2.32.71-.73.48-1.32,1.14-1.76,2s-.66,2.08-.66,3.66v8.18Z" fill="#fff"/>
    <path d="M913.64,538.81c-.57,1.17-1.3,2.05-2.21,2.64-.91.59-1.98.88-3.22.88-1.98,0-3.61-.78-4.9-2.33-1.29-1.55-1.93-3.6-1.93-6.13,0-1.67.29-3.19.87-4.56.58-1.37,1.39-2.39,2.43-3.07,1.04-.68,2.27-1.01,3.67-1.01,1.04,0,1.98.21,2.8.62.83.41,1.66,1.25,2.49,2.51v-2.67h2.77v13.6c0,3.42-.36,5.67-1.07,6.76-.72,1.09-1.62,1.9-2.72,2.43-1.1.53-2.39.79-3.87.79-1.37,0-2.6-.2-3.69-.61-1.09-.41-1.92-.97-2.48-1.68-.57-.71-.85-1.45-.85-2.21v-.25h2.77v.24c0,.73.4,1.32,1.19,1.76.8.44,1.81.66,3.03.66.99,0,1.85-.17,2.56-.51s1.28-.9,1.72-1.67.65-2.17.65-4.19v-2ZM913.64,533.5c0-1.78-.46-3.22-1.37-4.32-.92-1.1-2.01-1.65-3.28-1.65-1.35,0-2.48.56-3.37,1.67-.9,1.11-1.34,2.67-1.34,4.69,0,1.27.18,2.38.54,3.34s.92,1.68,1.68,2.17c.76.49,1.57.74,2.44.74,1.4,0,2.54-.62,3.41-1.85.87-1.24,1.31-2.83,1.31-4.77Z" fill="#fff"/>
    <path d="M816.29,575.32h-3.01v-23.11h3.01v10.29h10.61v-10.29h3.01v23.11h-3.01v-10.51h-10.61v10.51Z" fill="#fff"/>
    <path d="M844.28,575.32c-.29-.89-.43-1.66-.43-2.31-1.18,1.2-2.19,1.96-3.02,2.29s-1.64.48-2.4.48c-1.29,0-2.39-.4-3.31-1.21-.92-.81-1.38-1.92-1.38-3.34,0-1.61.65-2.84,1.95-3.72,1.3-.87,3.54-1.63,6.72-2.26l1.45-.28v-1.88c0-1.02-.33-1.74-.99-2.15-.66-.41-1.45-.62-2.38-.62-1.11,0-1.97.25-2.59.76-.62.51-.93,1.1-.93,1.77v.24h-3.01v-.22c0-.74.3-1.49.91-2.28.61-.79,1.41-1.38,2.42-1.77,1-.4,2.11-.6,3.3-.6s2.26.19,3.23.57,1.68.88,2.13,1.53c.45.64.67,1.84.67,3.61v6.46c0,.71.02,1.45.05,2.22.04.78.21,1.68.53,2.72h-2.92ZM843.85,566.94l-.8.21c-2.71.68-4.44,1.33-5.19,1.95-.76.62-1.13,1.35-1.13,2.2,0,.44.11.84.34,1.22.22.38.56.67,1,.88s.88.31,1.31.31c.75,0,1.48-.23,2.2-.68.72-.45,1.28-1.05,1.68-1.81.4-.75.6-1.63.6-2.63v-1.65Z" fill="#fff"/>
    <path d="M853.92,575.32h-2.77v-16.63h2.77v2.87c.58-.9,1.15-1.57,1.7-2.01.55-.44,1.13-.77,1.73-.99.6-.22,1.27-.33,2-.33,1.04,0,1.98.21,2.8.64.83.43,1.47,1.05,1.93,1.88.46.83.68,2.16.68,3.98v10.59h-2.77v-9.4c0-1.49-.1-2.54-.3-3.17-.2-.62-.59-1.11-1.16-1.46s-1.2-.53-1.88-.53c-.81,0-1.59.24-2.32.71-.73.48-1.32,1.14-1.76,2s-.66,2.08-.66,3.66v8.18Z" fill="#fff"/>
  </g>
  <g>
    <path d="M806.62,747.12h-3.01v-10.89l-7.47-12.23h3.5l5.77,9.32,5.69-9.32h2.92l-7.4,12.23v10.89Z" fill="#fff"/>
    <path d="M827.2,742.85h2.77v.15c0,.73-.29,1.48-.86,2.25-.58.76-1.34,1.35-2.28,1.74-.95.4-2.03.6-3.26.6-2.49,0-4.41-.82-5.76-2.46-1.35-1.64-2.03-3.71-2.03-6.21s.71-4.68,2.14-6.37c1.43-1.68,3.27-2.52,5.52-2.52,1.24,0,2.36.27,3.37.82s1.8,1.4,2.39,2.55c.59,1.16.88,2.77.88,4.83v.92h-11.56c0,1.78.46,3.24,1.4,4.39.93,1.15,2.22,1.73,3.87,1.73,1.19,0,2.05-.24,2.6-.71.54-.47.82-1,.82-1.57v-.15ZM818.68,737.07h8.74v-.33c0-.77-.18-1.53-.54-2.26-.36-.73-.86-1.27-1.5-1.62s-1.38-.53-2.23-.53c-1,0-1.93.41-2.78,1.24s-1.41,1.99-1.68,3.49Z" fill="#fff"/>
    <path d="M841.17,747.58c-2.17,0-4.03-.74-5.56-2.21s-2.3-3.67-2.3-6.58.77-5.09,2.3-6.56c1.53-1.47,3.38-2.21,5.56-2.21s4.01.74,5.54,2.21c1.53,1.47,2.3,3.66,2.3,6.56s-.77,5.1-2.3,6.58c-1.53,1.47-3.38,2.21-5.54,2.21ZM841.17,745.27c1.49,0,2.69-.59,3.59-1.78.91-1.19,1.36-2.75,1.36-4.7s-.45-3.5-1.36-4.68c-.91-1.19-2.11-1.78-3.59-1.78s-2.7.59-3.61,1.78c-.91,1.19-1.36,2.75-1.36,4.68s.45,3.51,1.36,4.7c.91,1.19,2.11,1.78,3.61,1.78Z" fill="#fff"/>
    <path d="M855.35,747.12h-2.77v-16.63h2.77v2.87c.58-.9,1.15-1.57,1.7-2.01.55-.44,1.13-.77,1.73-.99.6-.22,1.27-.33,2-.33,1.04,0,1.98.21,2.8.64s1.47,1.05,1.93,1.88c.46.83.68,2.16.68,3.98v10.59h-2.77v-9.4c0-1.49-.1-2.54-.3-3.16-.2-.62-.59-1.11-1.16-1.46s-1.2-.53-1.88-.53c-.81,0-1.59.24-2.32.71-.73.48-1.32,1.14-1.76,2-.44.85-.66,2.08-.66,3.66v8.18Z" fill="#fff"/>
    <path d="M873.38,747.12l-4.75-16.63h2.9l2.92,10.35.39,2.47h.31l.43-2.47,2.96-10.35h2.77l3.46,10.32.51,2.5h.27l.39-2.5,2.93-10.32h2.62l-4.75,16.63h-2.8l-3.57-10.87-.41-2.41h-.21l-.44,2.41-3.12,10.87h-2.81Z" fill="#fff"/>
    <path d="M901.19,747.58c-2.17,0-4.03-.74-5.56-2.21s-2.3-3.67-2.3-6.58.77-5.09,2.3-6.56c1.53-1.47,3.38-2.21,5.56-2.21s4.01.74,5.54,2.21c1.53,1.47,2.3,3.66,2.3,6.56s-.77,5.1-2.3,6.58c-1.53,1.47-3.38,2.21-5.54,2.21ZM901.19,745.27c1.49,0,2.69-.59,3.59-1.78.91-1.19,1.36-2.75,1.36-4.7s-.45-3.5-1.36-4.68c-.91-1.19-2.11-1.78-3.59-1.78s-2.7.59-3.61,1.78c-.91,1.19-1.36,2.75-1.36,4.68s.45,3.51,1.36,4.7c.91,1.19,2.11,1.78,3.61,1.78Z" fill="#fff"/>
    <path d="M919.66,747.58c-2.17,0-4.03-.74-5.56-2.21s-2.3-3.67-2.3-6.58.77-5.09,2.3-6.56c1.53-1.47,3.38-2.21,5.56-2.21s4.01.74,5.54,2.21c1.53,1.47,2.3,3.66,2.3,6.56s-.77,5.1-2.3,6.58c-1.53,1.47-3.38,2.21-5.54,2.21ZM919.66,745.27c1.49,0,2.69-.59,3.59-1.78.91-1.19,1.36-2.75,1.36-4.7s-.45-3.5-1.36-4.68c-.91-1.19-2.11-1.78-3.59-1.78s-2.7.59-3.61,1.78c-.91,1.19-1.36,2.75-1.36,4.68s.45,3.51,1.36,4.7c.91,1.19,2.11,1.78,3.61,1.78Z" fill="#fff"/>
    <path d="M855.31,775.16h2.77v.15c0,.91-.32,1.84-.95,2.78-.63.94-1.49,1.63-2.57,2.07-1.08.44-2.35.66-3.81.66-2.94,0-5.34-1.02-7.2-3.07-1.87-2.04-2.8-5.1-2.8-9.18s.93-7.11,2.78-9.17c1.86-2.05,4.27-3.08,7.23-3.08,1.45,0,2.71.22,3.79.66,1.08.44,1.94,1.14,2.57,2.09.63.96.95,1.87.95,2.75v.15h-2.77v-.15c0-.57-.18-1.11-.53-1.63s-.86-.91-1.52-1.18c-.66-.26-1.45-.39-2.38-.39-2.36,0-4.12.93-5.28,2.8-1.16,1.87-1.74,4.25-1.74,7.13s.58,5.31,1.74,7.16,2.92,2.79,5.26,2.79c1.61,0,2.75-.33,3.43-.99s1.01-1.4,1.01-2.21v-.15Z" fill="#fff"/>
    <path d="M864.18,780.12h-2.77v-24.04h2.77v10.28c.58-.9,1.15-1.57,1.7-2.01.55-.44,1.13-.77,1.73-.99.6-.22,1.27-.33,2-.33,1.04,0,1.98.21,2.8.64s1.47,1.05,1.93,1.88c.46.83.68,2.16.68,3.98v10.59h-2.77v-9.4c0-1.49-.1-2.54-.3-3.16-.2-.62-.58-1.11-1.13-1.46-.56-.35-1.19-.53-1.91-.53-.81,0-1.59.24-2.32.71-.73.48-1.32,1.14-1.76,2-.44.85-.66,2.08-.66,3.66v8.18Z" fill="#fff"/>
    <path d="M886.25,780.58c-2.17,0-4.03-.74-5.56-2.21s-2.3-3.67-2.3-6.58.77-5.09,2.3-6.56c1.53-1.47,3.38-2.21,5.56-2.21s4.01.74,5.54,2.21c1.53,1.47,2.3,3.66,2.3,6.56s-.77,5.1-2.3,6.58c-1.53,1.47-3.38,2.21-5.54,2.21ZM886.25,778.27c1.49,0,2.69-.59,3.59-1.78.91-1.19,1.36-2.75,1.36-4.7s-.45-3.5-1.36-4.68c-.91-1.19-2.11-1.78-3.59-1.78s-2.7.59-3.61,1.78c-.91,1.19-1.36,2.75-1.36,4.68s.45,3.51,1.36,4.7c.91,1.19,2.11,1.78,3.61,1.78Z" fill="#fff"/>
  </g>
  <g>
    <path d="M1049.69,704.21h3.01v.15c0,1.28.45,2.17,1.35,2.67s2.1.75,3.6.75c1.31,0,2.41-.38,3.3-1.15.89-.76,1.33-1.77,1.33-3.03,0-1.01-.38-1.84-1.14-2.49-.76-.64-1.92-1.27-3.48-1.91l-1.2-.49c-1.63-.68-2.86-1.34-3.66-2-.81-.66-1.41-1.39-1.81-2.2-.4-.8-.59-1.7-.59-2.7,0-1.75.62-3.22,1.85-4.43s3.16-1.8,5.79-1.8c2.41,0,4.1.45,5.08,1.34.98.89,1.47,1.94,1.47,3.13v.15h-3.01v-.15c0-.38-.15-.75-.45-1.12s-.75-.63-1.36-.8c-.6-.16-1.27-.25-1.99-.25-1.47,0-2.57.37-3.27,1.11s-1.06,1.58-1.06,2.53c0,.64.17,1.23.51,1.8s.8,1.03,1.39,1.39c.59.37,1.58.86,2.98,1.48l1.41.61c2.26.98,3.77,2.01,4.53,3.1.75,1.08,1.13,2.25,1.13,3.5,0,1.16-.31,2.29-.92,3.37-.62,1.09-1.47,1.91-2.56,2.47s-2.54.84-4.36.84-3.17-.21-4.32-.62c-1.16-.41-2.03-1.09-2.63-2.03-.6-.94-.9-1.97-.9-3.09v-.15Z" fill="#fff"/>
    <path d="M1075.78,709.85c-2.17,0-4.03-.74-5.56-2.21s-2.3-3.67-2.3-6.58.77-5.09,2.3-6.56c1.53-1.47,3.38-2.21,5.56-2.21s4.01.74,5.54,2.21c1.53,1.47,2.3,3.66,2.3,6.56s-.77,5.1-2.3,6.58c-1.53,1.47-3.38,2.21-5.54,2.21ZM1075.78,707.54c1.49,0,2.69-.59,3.59-1.78.91-1.19,1.36-2.75,1.36-4.7s-.45-3.5-1.36-4.68c-.91-1.19-2.11-1.78-3.59-1.78s-2.7.59-3.61,1.78c-.91,1.19-1.36,2.75-1.36,4.68s.45,3.51,1.36,4.7c.91,1.19,2.11,1.78,3.61,1.78Z" fill="#fff"/>
    <path d="M1094.24,709.85c-2.17,0-4.03-.74-5.56-2.21s-2.3-3.67-2.3-6.58.77-5.09,2.3-6.56c1.53-1.47,3.38-2.21,5.56-2.21s4.01.74,5.54,2.21c1.53,1.47,2.3,3.66,2.3,6.56s-.77,5.1-2.3,6.58c-1.53,1.47-3.38,2.21-5.54,2.21ZM1094.24,707.54c1.49,0,2.69-.59,3.59-1.78.91-1.19,1.36-2.75,1.36-4.7s-.45-3.5-1.36-4.68c-.91-1.19-2.11-1.78-3.59-1.78s-2.7.59-3.61,1.78c-.91,1.19-1.36,2.75-1.36,4.68s.45,3.51,1.36,4.7c.91,1.19,2.11,1.78,3.61,1.78Z" fill="#fff"/>
    <path d="M1106.72,709.39h-2.78l9.46-23.11h3.04l8.74,23.11h-3.24l-2.4-6.36h-10.2l-2.61,6.36ZM1110.24,700.72h8.41l-4.06-10.74-4.35,10.74Z" fill="#fff"/>
    <path d="M1043.74,738.47h3.01v.15c0,.43.11.81.34,1.15.23.34.58.59,1.06.76.48.17,1.01.25,1.6.25.61,0,1.19-.14,1.71-.42s.91-.72,1.15-1.31.36-1.89.36-3.9v-15.87h3.01v15.92c0,2.52-.27,4.25-.81,5.18-.54.93-1.21,1.61-2,2.05s-1.88.66-3.24.66c-2.25,0-3.84-.47-4.78-1.4-.93-.93-1.4-1.96-1.4-3.07v-.15Z" fill="#fff"/>
    <path d="M1070.97,738.12h2.77v.15c0,.73-.29,1.48-.86,2.25-.58.76-1.34,1.35-2.28,1.74-.95.4-2.03.6-3.26.6-2.49,0-4.41-.82-5.76-2.46-1.35-1.64-2.03-3.71-2.03-6.21s.71-4.68,2.14-6.37c1.43-1.68,3.27-2.52,5.52-2.52,1.24,0,2.36.27,3.37.82s1.8,1.4,2.39,2.55c.59,1.16.88,2.77.88,4.83v.92h-11.56c0,1.78.46,3.24,1.4,4.39.93,1.15,2.22,1.73,3.87,1.73,1.19,0,2.05-.24,2.6-.71.54-.47.82-1,.82-1.57v-.15ZM1062.46,732.34h8.74v-.33c0-.77-.18-1.53-.54-2.26-.36-.73-.86-1.27-1.5-1.62s-1.38-.53-2.23-.53c-1,0-1.93.41-2.78,1.24s-1.41,1.99-1.68,3.49Z" fill="#fff"/>
    <path d="M1084.94,742.85c-2.17,0-4.03-.74-5.56-2.21s-2.3-3.67-2.3-6.58.77-5.09,2.3-6.56c1.53-1.47,3.38-2.21,5.56-2.21s4.01.74,5.54,2.21c1.53,1.47,2.3,3.66,2.3,6.56s-.77,5.1-2.3,6.58c-1.53,1.47-3.38,2.21-5.54,2.21ZM1084.94,740.54c1.49,0,2.69-.59,3.59-1.78.91-1.19,1.36-2.75,1.36-4.7s-.45-3.5-1.36-4.68c-.91-1.19-2.11-1.78-3.59-1.78s-2.7.59-3.61,1.78c-.91,1.19-1.36,2.75-1.36,4.68s.45,3.51,1.36,4.7c.91,1.19,2.11,1.78,3.61,1.78Z" fill="#fff"/>
    <path d="M1099.12,742.39h-2.77v-16.63h2.77v2.87c.58-.9,1.15-1.57,1.7-2.01.55-.44,1.13-.77,1.73-.99.6-.22,1.27-.33,2-.33,1.04,0,1.98.21,2.8.64s1.47,1.05,1.93,1.88c.46.83.68,2.16.68,3.98v10.59h-2.77v-9.4c0-1.49-.1-2.54-.3-3.16-.2-.62-.59-1.11-1.16-1.46s-1.2-.53-1.88-.53c-.81,0-1.59.24-2.32.71-.73.48-1.32,1.14-1.76,2-.44.85-.66,2.08-.66,3.66v8.18Z" fill="#fff"/>
    <path d="M1125.59,738.88c-.57,1.17-1.3,2.05-2.21,2.64-.91.59-1.98.88-3.22.88-1.98,0-3.61-.78-4.9-2.33-1.29-1.55-1.93-3.6-1.93-6.13,0-1.67.29-3.19.87-4.56.58-1.37,1.39-2.39,2.43-3.07,1.04-.67,2.27-1.01,3.67-1.01,1.04,0,1.98.21,2.8.62.83.41,1.66,1.25,2.49,2.51v-2.67h2.77v13.6c0,3.42-.36,5.67-1.07,6.76-.72,1.09-1.62,1.9-2.72,2.43-1.1.53-2.39.79-3.87.79-1.37,0-2.6-.2-3.69-.61-1.09-.41-1.92-.97-2.48-1.67-.57-.71-.85-1.45-.85-2.21v-.25h2.77v.24c0,.73.4,1.32,1.19,1.76.8.44,1.81.66,3.03.66.99,0,1.85-.17,2.56-.51.71-.34,1.28-.9,1.72-1.67s.65-2.17.65-4.19v-2ZM1125.59,733.57c0-1.78-.46-3.22-1.37-4.32-.92-1.1-2.01-1.65-3.28-1.65-1.35,0-2.48.56-3.37,1.67-.9,1.11-1.34,2.68-1.34,4.69,0,1.27.18,2.38.54,3.34s.92,1.68,1.68,2.17c.76.49,1.57.74,2.44.74,1.4,0,2.54-.62,3.41-1.85.87-1.24,1.31-2.83,1.31-4.77Z" fill="#fff"/>
  </g>
  <line x1="550.2" y1="864.44" x2="550.2" y2="976.59" fill="none" stroke="#fff" stroke-miterlimit="10" stroke-width=".76"/>
  <line x1="707.52" y1="864.44" x2="707.52" y2="976.59" fill="none" stroke="#fff" stroke-miterlimit="10" stroke-width=".76"/>
  <polygon points="477.39 560.68 477.39 672.51 234.38 672.51 234.38 699.72 547.19 699.72 547.19 672.51 547.19 560.68 477.39 560.68" fill="none" stroke="#fff" stroke-miterlimit="10" stroke-width="1.5"/>
  <g>
    <path d="M745.06,891.2h3.01v.15c0,1.28.45,2.17,1.35,2.67s2.1.75,3.6.75c1.31,0,2.41-.38,3.3-1.15.89-.76,1.33-1.77,1.33-3.03,0-1.01-.38-1.84-1.14-2.49-.76-.64-1.92-1.27-3.48-1.91l-1.2-.49c-1.63-.68-2.86-1.34-3.66-2-.81-.66-1.41-1.39-1.81-2.2-.4-.8-.59-1.7-.59-2.7,0-1.75.62-3.22,1.85-4.43s3.16-1.8,5.79-1.8c2.41,0,4.1.45,5.08,1.34.98.89,1.47,1.94,1.47,3.13v.15h-3.01v-.15c0-.38-.15-.75-.45-1.12s-.75-.63-1.36-.8c-.6-.16-1.27-.25-1.99-.25-1.47,0-2.57.37-3.27,1.11s-1.06,1.58-1.06,2.53c0,.64.17,1.23.51,1.8s.8,1.03,1.39,1.39c.59.37,1.58.86,2.98,1.48l1.41.61c2.26.98,3.77,2.01,4.53,3.1.75,1.08,1.13,2.25,1.13,3.5,0,1.16-.31,2.29-.92,3.37-.62,1.09-1.47,1.91-2.56,2.47s-2.54.84-4.36.84-3.17-.21-4.32-.62c-1.16-.41-2.03-1.09-2.63-2.03-.6-.94-.9-1.97-.9-3.09v-.15Z" fill="#fff"/>
    <path d="M774.72,892.11h2.77v.15c0,.73-.29,1.48-.86,2.25-.58.76-1.34,1.35-2.28,1.74-.95.4-2.03.6-3.26.6-2.49,0-4.41-.82-5.76-2.46-1.35-1.64-2.03-3.71-2.03-6.21s.71-4.68,2.14-6.37c1.43-1.68,3.27-2.52,5.52-2.52,1.24,0,2.36.27,3.37.82s1.8,1.4,2.39,2.55c.59,1.16.88,2.77.88,4.83v.92h-11.56c0,1.78.46,3.24,1.4,4.39.93,1.15,2.22,1.73,3.87,1.73,1.19,0,2.05-.24,2.6-.71.54-.47.82-1,.82-1.57v-.15ZM766.2,886.33h8.74v-.33c0-.77-.18-1.53-.54-2.26-.36-.73-.86-1.27-1.5-1.62s-1.38-.53-2.23-.53c-1,0-1.93.41-2.78,1.24s-1.41,1.99-1.68,3.49Z" fill="#fff"/>
    <path d="M788.69,896.85c-2.17,0-4.03-.74-5.56-2.21s-2.3-3.67-2.3-6.58.77-5.09,2.3-6.56c1.53-1.47,3.38-2.21,5.56-2.21s4.01.74,5.54,2.21c1.53,1.47,2.3,3.66,2.3,6.56s-.77,5.1-2.3,6.58c-1.53,1.47-3.38,2.21-5.54,2.21ZM788.69,894.54c1.49,0,2.69-.59,3.59-1.78.91-1.19,1.36-2.75,1.36-4.7s-.45-3.5-1.36-4.68c-.91-1.19-2.11-1.78-3.59-1.78s-2.7.59-3.61,1.78c-.91,1.19-1.36,2.75-1.36,4.68s.45,3.51,1.36,4.7c.91,1.19,2.11,1.78,3.61,1.78Z" fill="#fff"/>
    <path d="M805.51,895.65l-7.13-15.9h3.07l5.56,12.36,5.22-12.36h2.77l-7,16.64c-.94,2.25-1.73,3.74-2.37,4.47-.64.73-1.31,1.25-2.02,1.54-.71.3-1.66.45-2.84.45h-2.08v-2.31h1.56c.76,0,1.43-.1,2.01-.31s1.05-.53,1.44-.98c.38-.45.9-1.43,1.54-2.95l.28-.66Z" fill="#fff"/>
    <path d="M824.58,896.85c-2.17,0-4.03-.74-5.56-2.21s-2.3-3.67-2.3-6.58.77-5.09,2.3-6.56c1.53-1.47,3.38-2.21,5.56-2.21s4.01.74,5.54,2.21c1.53,1.47,2.3,3.66,2.3,6.56s-.77,5.1-2.3,6.58c-1.53,1.47-3.38,2.21-5.54,2.21ZM824.58,894.54c1.49,0,2.69-.59,3.59-1.78.91-1.19,1.36-2.75,1.36-4.7s-.45-3.5-1.36-4.68c-.91-1.19-2.11-1.78-3.59-1.78s-2.7.59-3.61,1.78c-.91,1.19-1.36,2.75-1.36,4.68s.45,3.51,1.36,4.7c.91,1.19,2.11,1.78,3.61,1.78Z" fill="#fff"/>
    <path d="M838.76,896.39h-2.77v-16.63h2.77v2.87c.58-.9,1.15-1.57,1.7-2.01.55-.44,1.13-.77,1.73-.99.6-.22,1.27-.33,2-.33,1.04,0,1.98.21,2.8.64s1.47,1.05,1.93,1.88c.46.83.68,2.16.68,3.98v10.59h-2.77v-9.4c0-1.49-.1-2.54-.3-3.16-.2-.62-.59-1.11-1.16-1.46s-1.2-.53-1.88-.53c-.81,0-1.59.24-2.32.71-.73.48-1.32,1.14-1.76,2-.44.85-.66,2.08-.66,3.66v8.18Z" fill="#fff"/>
    <path d="M865.23,892.87c-.57,1.17-1.3,2.05-2.21,2.64-.91.59-1.98.88-3.22.88-1.98,0-3.61-.78-4.9-2.33-1.29-1.55-1.93-3.6-1.93-6.13,0-1.67.29-3.19.87-4.56.58-1.37,1.39-2.39,2.43-3.07,1.04-.67,2.27-1.01,3.67-1.01,1.04,0,1.98.21,2.8.62.83.41,1.66,1.25,2.49,2.51v-2.67h2.77v13.6c0,3.42-.36,5.67-1.07,6.76-.72,1.09-1.62,1.9-2.72,2.43-1.1.53-2.39.79-3.87.79-1.37,0-2.6-.2-3.69-.61-1.09-.41-1.92-.97-2.48-1.67-.57-.71-.85-1.45-.85-2.21v-.25h2.77v.24c0,.73.4,1.32,1.19,1.76.8.44,1.81.66,3.03.66.99,0,1.85-.17,2.56-.51.71-.34,1.28-.9,1.72-1.67s.65-2.17.65-4.19v-2ZM865.23,887.57c0-1.78-.46-3.22-1.37-4.32-.92-1.1-2.01-1.65-3.28-1.65-1.35,0-2.48.56-3.37,1.67-.9,1.11-1.34,2.68-1.34,4.69,0,1.27.18,2.38.54,3.34s.92,1.68,1.68,2.17c.76.49,1.57.74,2.44.74,1.4,0,2.54-.62,3.41-1.85.87-1.24,1.31-2.83,1.31-4.77Z" fill="#fff"/>
    <path d="M885.52,896.39h-3.01v-23.11h6.43c2.45,0,4.18.25,5.19.75,1.01.5,1.77,1.24,2.28,2.2s.77,2.09.77,3.37c0,2.17-.74,3.98-2.21,5.45-1.47,1.47-3.67,2.2-6.58,2.2h-2.86v9.13ZM885.52,884.95h2.02c2.66,0,4.41-.51,5.25-1.54.84-1.02,1.27-2.25,1.27-3.68,0-1.24-.34-2.25-1.02-3.01-.68-.76-2.03-1.14-4.04-1.14h-3.48v9.37Z" fill="#fff"/>
    <path d="M910.28,896.39c-.29-.89-.43-1.66-.43-2.31-1.18,1.2-2.19,1.96-3.02,2.29s-1.64.48-2.4.48c-1.29,0-2.39-.4-3.31-1.21-.92-.81-1.38-1.92-1.38-3.34,0-1.61.65-2.85,1.95-3.72,1.3-.87,3.54-1.62,6.72-2.26l1.45-.28v-1.88c0-1.02-.33-1.74-.99-2.15-.66-.41-1.45-.62-2.38-.62-1.11,0-1.97.25-2.59.76-.62.51-.93,1.1-.93,1.77v.24h-3.01v-.22c0-.73.3-1.49.91-2.28s1.41-1.38,2.42-1.77c1-.4,2.11-.6,3.3-.6s2.26.19,3.23.57,1.68.89,2.13,1.53c.45.64.67,1.84.67,3.61v6.46c0,.71.02,1.45.05,2.22.04.78.21,1.68.53,2.72h-2.92ZM909.85,888l-.8.21c-2.71.68-4.44,1.33-5.19,1.95-.76.61-1.13,1.35-1.13,2.2,0,.44.11.84.34,1.22.22.38.56.67,1,.88s.88.31,1.31.31c.75,0,1.48-.23,2.2-.68.72-.45,1.28-1.05,1.68-1.81s.6-1.63.6-2.63v-1.65Z" fill="#fff"/>
    <path d="M919.93,896.39h-2.77v-16.63h2.77v2.93c.47-.84.98-1.5,1.53-1.97.55-.47,1.14-.82,1.77-1.06.62-.24,1.26-.37,1.91-.37.59,0,1.1.08,1.52.25v2.88c-.67-.32-1.38-.48-2.13-.48-1.07,0-2.1.46-3.1,1.37-1,.91-1.5,2.53-1.5,4.86v8.22Z" fill="#fff"/>
    <path d="M931.81,896.39h-2.89v-24.04h2.89v15.33l7.37-7.92h3.2l-7.23,7.77,7.5,8.86h-3.47l-7.37-8.71v8.71Z" fill="#fff"/>
  </g>
  <g>
    <path d="M1010.24,852.06h2.89v.15c0,.43.11.81.33,1.15s.56.59,1.02.76.97.25,1.54.25c.59,0,1.14-.14,1.65-.42.51-.28.88-.72,1.11-1.31s.34-1.89.34-3.9v-15.87h2.89v15.92c0,2.52-.26,4.25-.78,5.18-.52.93-1.16,1.61-1.93,2.05s-1.8.66-3.12.66c-2.17,0-3.7-.47-4.6-1.4-.9-.93-1.35-1.96-1.35-3.07v-.15Z" fill="#fff"/>
    <path d="M1035.83,855.98c-.28-.89-.42-1.66-.42-2.31-1.13,1.2-2.1,1.96-2.91,2.29s-1.57.48-2.31.48c-1.24,0-2.3-.4-3.19-1.21-.89-.81-1.33-1.92-1.33-3.34,0-1.61.62-2.85,1.88-3.72,1.25-.87,3.41-1.62,6.47-2.26l1.39-.28v-1.88c0-1.02-.32-1.74-.95-2.15-.63-.41-1.4-.62-2.29-.62-1.07,0-1.9.25-2.5.76s-.9,1.1-.9,1.77v.24h-2.89v-.22c0-.73.29-1.49.88-2.28.58-.78,1.36-1.38,2.33-1.77s2.03-.6,3.18-.6,2.18.19,3.11.57c.93.38,1.62.89,2.05,1.53s.65,1.84.65,3.61v6.46c0,.71.02,1.45.05,2.22.03.78.2,1.68.51,2.72h-2.81ZM1035.41,847.6l-.77.21c-2.6.68-4.27,1.33-5,1.95-.73.61-1.09,1.35-1.09,2.2,0,.44.11.84.32,1.22.22.38.54.67.96.88.42.21.84.31,1.26.31.72,0,1.42-.23,2.12-.68.69-.45,1.23-1.05,1.62-1.81.39-.75.58-1.63.58-2.63v-1.65Z" fill="#fff"/>
    <path d="M1052.67,851.71h2.66v.15c0,.73-.28,1.48-.83,2.25-.55.76-1.29,1.35-2.2,1.74-.91.4-1.96.6-3.14.6-2.39,0-4.24-.82-5.54-2.46-1.3-1.64-1.95-3.71-1.95-6.21s.69-4.68,2.06-6.37c1.38-1.68,3.15-2.52,5.32-2.52,1.19,0,2.27.27,3.24.82.97.55,1.73,1.4,2.3,2.55.56,1.16.84,2.77.84,4.83v.92h-11.13c0,1.78.45,3.24,1.34,4.39.9,1.15,2.14,1.73,3.73,1.73,1.14,0,1.98-.24,2.5-.71.52-.47.79-1,.79-1.57v-.15ZM1044.47,845.93h8.41v-.33c0-.77-.17-1.53-.52-2.26-.35-.73-.83-1.27-1.44-1.62-.61-.35-1.33-.53-2.15-.53-.97,0-1.86.41-2.68,1.24s-1.36,1.99-1.62,3.49Z" fill="#fff"/>
    <path d="M1064.53,855.25l-6.87-15.9h2.95l5.35,12.36,5.02-12.36h2.67l-6.74,16.64c-.91,2.25-1.67,3.74-2.28,4.47-.61.73-1.26,1.25-1.94,1.54-.68.3-1.59.45-2.73.45h-2v-2.31h1.5c.74,0,1.38-.1,1.93-.31s1.01-.53,1.38-.98c.37-.45.86-1.43,1.48-2.95l.26-.66Z" fill="#fff"/>
    <path d="M1082.88,856.44c-2.09,0-3.87-.74-5.35-2.21s-2.21-3.67-2.21-6.58.74-5.09,2.21-6.56c1.47-1.47,3.26-2.21,5.35-2.21s3.86.74,5.33,2.21c1.47,1.47,2.21,3.66,2.21,6.56s-.74,5.1-2.21,6.58-3.25,2.21-5.33,2.21ZM1082.88,854.13c1.43,0,2.58-.59,3.46-1.78s1.31-2.75,1.31-4.7-.44-3.5-1.31-4.68-2.03-1.78-3.46-1.78-2.6.59-3.47,1.78c-.87,1.19-1.31,2.75-1.31,4.68s.44,3.51,1.31,4.7c.87,1.19,2.03,1.78,3.47,1.78Z" fill="#fff"/>
    <path d="M1100.65,856.44c-2.09,0-3.87-.74-5.35-2.21s-2.21-3.67-2.21-6.58.74-5.09,2.21-6.56c1.47-1.47,3.26-2.21,5.35-2.21s3.86.74,5.33,2.21c1.47,1.47,2.21,3.66,2.21,6.56s-.74,5.1-2.21,6.58-3.25,2.21-5.33,2.21ZM1100.65,854.13c1.43,0,2.58-.59,3.46-1.78s1.31-2.75,1.31-4.7-.44-3.5-1.31-4.68-2.03-1.78-3.46-1.78-2.6.59-3.47,1.78c-.87,1.19-1.31,2.75-1.31,4.68s.44,3.51,1.31,4.7c.87,1.19,2.03,1.78,3.47,1.78Z" fill="#fff"/>
    <path d="M1114.29,855.98h-2.66v-16.63h2.66v2.87c.56-.9,1.11-1.57,1.64-2.01.53-.44,1.08-.77,1.66-.99s1.22-.33,1.93-.33c1,0,1.9.21,2.7.64s1.42,1.05,1.85,1.88c.44.83.66,2.16.66,3.98v10.59h-2.66v-9.4c0-1.49-.1-2.54-.29-3.16-.19-.62-.56-1.11-1.12-1.46s-1.16-.53-1.8-.53c-.78,0-1.53.24-2.23.71-.71.48-1.27,1.14-1.7,2-.42.85-.64,2.08-.64,3.66v8.18Z" fill="#fff"/>
    <path d="M1075.15,888.98v-23.11h2.89v20.57h11.66v2.55h-14.55Z" fill="#fff"/>
    <path d="M1102.49,884.71h2.66v.15c0,.73-.28,1.48-.83,2.25-.55.76-1.29,1.35-2.2,1.74-.91.4-1.96.6-3.14.6-2.39,0-4.24-.82-5.54-2.46-1.3-1.64-1.95-3.71-1.95-6.21s.69-4.68,2.06-6.37c1.38-1.68,3.15-2.52,5.32-2.52,1.19,0,2.27.27,3.24.82.97.55,1.73,1.4,2.3,2.55.56,1.16.84,2.77.84,4.83v.92h-11.13c0,1.78.45,3.24,1.34,4.39.9,1.15,2.14,1.73,3.73,1.73,1.14,0,1.98-.24,2.5-.71.52-.47.79-1,.79-1.57v-.15ZM1094.29,878.93h8.41v-.33c0-.77-.17-1.53-.52-2.26-.35-.73-.83-1.27-1.44-1.62-.61-.35-1.33-.53-2.15-.53-.97,0-1.86.41-2.68,1.24s-1.36,1.99-1.62,3.49Z" fill="#fff"/>
    <path d="M1119.37,884.71h2.66v.15c0,.73-.28,1.48-.83,2.25-.55.76-1.29,1.35-2.2,1.74-.91.4-1.96.6-3.14.6-2.39,0-4.24-.82-5.54-2.46-1.3-1.64-1.95-3.71-1.95-6.21s.69-4.68,2.06-6.37c1.38-1.68,3.15-2.52,5.32-2.52,1.19,0,2.27.27,3.24.82.97.55,1.73,1.4,2.3,2.55.56,1.16.84,2.77.84,4.83v.92h-11.13c0,1.78.45,3.24,1.34,4.39.9,1.15,2.14,1.73,3.73,1.73,1.14,0,1.98-.24,2.5-.71.52-.47.79-1,.79-1.57v-.15ZM1111.17,878.93h8.41v-.33c0-.77-.17-1.53-.52-2.26-.35-.73-.83-1.27-1.44-1.62-.61-.35-1.33-.53-2.15-.53-.97,0-1.86.41-2.68,1.24s-1.36,1.99-1.62,3.49Z" fill="#fff"/>
  </g>
</svg>