<?xml version="1.0" encoding="UTF-8"?>
<svg id="Layer_3" data-name="Layer 3" xmlns="http://www.w3.org/2000/svg" width="1281" height="1025" viewBox="0 0 1281 1025">
  <rect x="160.93" y="683.01" width="158.22" height="27.99" fill="none" stroke="#fff" stroke-miterlimit="10" stroke-width="1.5"/>
  <path d="M1145.19,279.42v646.05H160.93V279.42h984.26M1146.69,277.92H159.43v649.05h987.26V277.92h0Z" fill="#fff"/>
  <g>
    <line x1="320.87" y1="329.43" x2="957.57" y2="329.43" fill="#fff" stroke="#fff" stroke-miterlimit="10" stroke-width="1.5"/>
    <ellipse cx="321.19" cy="329.43" rx="4.71" ry="4.27" fill="#fff" stroke="#fff" stroke-miterlimit="10" stroke-width="1.5"/>
  </g>
  <polyline points="950.2 321.48 958.88 329.28 950.33 337.38" fill="none" stroke="#fff" stroke-miterlimit="10" stroke-width="1.5"/>
  <g>
    <line x1="321.19" y1="293.08" x2="321.19" y2="363.42" fill="none" stroke="#fff" stroke-miterlimit="10" stroke-width="1.5"/>
    <line x1="344.1" y1="293.01" x2="344.1" y2="363.34" fill="none" stroke="#fff" stroke-miterlimit="10" stroke-width="1.5"/>
    <line x1="366.65" y1="293.08" x2="366.65" y2="363.42" fill="none" stroke="#fff" stroke-miterlimit="10" stroke-width="1.5"/>
    <line x1="388.96" y1="293.08" x2="388.96" y2="363.42" fill="none" stroke="#fff" stroke-miterlimit="10" stroke-width="1.5"/>
    <line x1="411.26" y1="293.08" x2="411.26" y2="363.42" fill="none" stroke="#fff" stroke-miterlimit="10" stroke-width="1.5"/>
    <line x1="434.29" y1="293.08" x2="434.29" y2="363.42" fill="none" stroke="#fff" stroke-miterlimit="10" stroke-width="1.5"/>
    <line x1="456.59" y1="293.08" x2="456.59" y2="363.42" fill="none" stroke="#fff" stroke-miterlimit="10" stroke-width="1.5"/>
    <line x1="478.9" y1="293.08" x2="478.9" y2="363.42" fill="none" stroke="#fff" stroke-miterlimit="10" stroke-width="1.5"/>
    <line x1="501.21" y1="293.08" x2="501.21" y2="363.42" fill="none" stroke="#fff" stroke-miterlimit="10" stroke-width="1.5"/>
    <line x1="523.27" y1="293.08" x2="523.27" y2="363.42" fill="none" stroke="#fff" stroke-miterlimit="10" stroke-width="1.5"/>
    <line x1="546.06" y1="293.08" x2="546.06" y2="363.42" fill="none" stroke="#fff" stroke-miterlimit="10" stroke-width="1.5"/>
    <line x1="568.85" y1="292" x2="568.85" y2="362.33" fill="none" stroke="#fff" stroke-miterlimit="10" stroke-width="1.5"/>
    <line x1="590.67" y1="293.01" x2="590.67" y2="363.34" fill="none" stroke="#fff" stroke-miterlimit="10" stroke-width="1.5"/>
    <line x1="690.85" y1="293.01" x2="690.85" y2="363.34" fill="none" stroke="#fff" stroke-miterlimit="10" stroke-width="1.5"/>
    <line x1="713.77" y1="292.93" x2="713.77" y2="363.26" fill="none" stroke="#fff" stroke-miterlimit="10" stroke-width="1.5"/>
    <line x1="736.31" y1="293.01" x2="736.31" y2="363.34" fill="none" stroke="#fff" stroke-miterlimit="10" stroke-width="1.5"/>
    <line x1="758.62" y1="293.01" x2="758.62" y2="363.34" fill="none" stroke="#fff" stroke-miterlimit="10" stroke-width="1.5"/>
    <line x1="780.93" y1="293.01" x2="780.93" y2="363.34" fill="none" stroke="#fff" stroke-miterlimit="10" stroke-width="1.5"/>
    <line x1="803.95" y1="293.01" x2="803.95" y2="363.34" fill="none" stroke="#fff" stroke-miterlimit="10" stroke-width="1.5"/>
    <line x1="826.26" y1="293.01" x2="826.26" y2="363.34" fill="none" stroke="#fff" stroke-miterlimit="10" stroke-width="1.5"/>
    <line x1="848.56" y1="293.01" x2="848.56" y2="363.34" fill="none" stroke="#fff" stroke-miterlimit="10" stroke-width="1.5"/>
    <line x1="870.87" y1="293.01" x2="870.87" y2="363.34" fill="none" stroke="#fff" stroke-miterlimit="10" stroke-width="1.5"/>
    <line x1="892.94" y1="293.01" x2="892.94" y2="363.34" fill="none" stroke="#fff" stroke-miterlimit="10" stroke-width="1.5"/>
    <line x1="915.72" y1="293.01" x2="915.72" y2="363.34" fill="none" stroke="#fff" stroke-miterlimit="10" stroke-width="1.5"/>
    <line x1="938.51" y1="291.92" x2="938.51" y2="362.26" fill="none" stroke="#fff" stroke-miterlimit="10" stroke-width="1.5"/>
    <line x1="960.34" y1="292.93" x2="960.34" y2="363.26" fill="none" stroke="#fff" stroke-miterlimit="10" stroke-width="1.5"/>
  </g>
  <line x1="317.64" y1="377.15" x2="982.97" y2="377.15" fill="#fff" stroke="#fff" stroke-miterlimit="10"/>
  <line x1="552.51" y1="377.15" x2="552.51" y2="929.72" fill="none" stroke="#fff" stroke-miterlimit="10" stroke-width="1.5"/>
  <g>
    <path d="M146.61,119.34v-4.39c0-2.29.71-4.78,2.12-7.48,1.42-2.7,3.8-5.34,7.14-7.92l2.86-2.21c3.81-2.94,6.24-5.14,7.28-6.59,1.02-1.45,1.53-2.97,1.53-4.55s-.68-3.05-2.04-4.31c-1.36-1.25-3.32-1.88-5.89-1.88-2.33,0-4.05.45-5.18,1.35-1.13.9-1.69,1.91-1.69,3.04v.27h-5.07v-.27c0-1.49.5-2.9,1.51-4.22,1.01-1.33,2.37-2.39,4.09-3.19s3.88-1.2,6.5-1.2c4.78,0,8.18,1.01,10.22,3.04,2.03,2.03,3.05,4.46,3.05,7.29,0,1.51-.32,3.02-.95,4.55-.64,1.53-1.89,3.12-3.77,4.78-1.88,1.66-3.41,2.9-4.59,3.72l-2.07,1.42c-6.5,4.47-9.76,8.82-9.76,13.05v1.04h21.99v4.66h-27.28Z" fill="#fff"/>
    <path d="M182.96,119.34v-42.29h23.9v4.66h-18.39v14.58h16.08v4.22h-16.08v18.83h-5.5Z" fill="#fff"/>
  </g>
  <g>
    <path d="M395.26,555.15h-3.05v-11.06l-7.59-12.43h3.55l5.86,9.48,5.78-9.48h2.96l-7.52,12.43v11.06Z" fill="#fff"/>
    <path d="M416.18,550.81h2.81v.15c0,.75-.29,1.51-.88,2.29-.58.78-1.36,1.37-2.32,1.77-.96.4-2.07.61-3.32.61-2.53,0-4.48-.83-5.85-2.5-1.37-1.67-2.06-3.77-2.06-6.31s.73-4.76,2.18-6.47c1.45-1.71,3.32-2.57,5.62-2.57,1.26,0,2.4.28,3.42.83,1.02.56,1.83,1.42,2.42,2.6.59,1.18.89,2.81.89,4.91v.94h-11.75c0,1.81.47,3.29,1.42,4.46.95,1.17,2.26,1.76,3.94,1.76,1.21,0,2.09-.24,2.64-.72.55-.48.83-1.01.83-1.6v-.15ZM407.52,544.93h8.88v-.33c0-.79-.18-1.55-.55-2.29-.37-.74-.88-1.29-1.52-1.65-.65-.36-1.4-.54-2.27-.54-1.02,0-1.96.42-2.83,1.26-.86.84-1.43,2.03-1.71,3.55Z" fill="#fff"/>
    <path d="M426.02,555.15h-2.81v-24.43h2.81v24.43Z" fill="#fff"/>
    <path d="M430.48,534.49v-2.83h2.81v2.83h-2.81ZM430.48,538.24h2.81v16.91h-2.81v-16.91Z" fill="#fff"/>
    <path d="M440.57,555.15h-2.81v-16.91h2.81v3.06c.57-1.02,1.12-1.75,1.64-2.2.52-.44,1.09-.78,1.7-1,.61-.22,1.27-.33,1.97-.33s1.36.11,2,.33c.64.22,1.18.54,1.65.98s.92,1.18,1.38,2.23c.57-.98,1.14-1.7,1.7-2.16s1.13-.8,1.72-1.03c.59-.23,1.22-.34,1.88-.34.96,0,1.82.22,2.6.67s1.37,1.09,1.79,1.91c.42.83.63,2.24.63,4.22v10.57h-2.81v-9.4c0-1.99-.12-3.24-.36-3.77s-.57-.93-.99-1.2c-.42-.28-.93-.42-1.52-.42-.84,0-1.61.26-2.32.78s-1.27,1.22-1.7,2.1c-.42.88-.64,2.11-.64,3.69v8.22h-2.81v-9.39c0-1.99-.11-3.24-.33-3.76-.22-.52-.56-.93-1.04-1.21-.47-.28-.98-.42-1.53-.42-.77,0-1.52.27-2.26.8-.74.54-1.32,1.25-1.74,2.14-.42.89-.63,2.1-.63,3.63v8.22Z" fill="#fff"/>
    <path d="M475.2,549.88h3.06v.15c0,1.3.46,2.21,1.38,2.72.92.51,2.14.76,3.66.76,1.33,0,2.45-.39,3.35-1.17.9-.78,1.35-1.8,1.35-3.08,0-1.03-.39-1.87-1.16-2.53-.78-.65-1.95-1.29-3.53-1.94l-1.22-.5c-1.66-.69-2.9-1.37-3.72-2.04-.82-.67-1.43-1.42-1.84-2.23-.4-.82-.6-1.73-.6-2.74,0-1.78.63-3.28,1.88-4.5,1.25-1.22,3.22-1.83,5.88-1.83,2.45,0,4.17.45,5.17,1.36,1,.91,1.5,1.97,1.5,3.18v.15h-3.05v-.15c0-.38-.15-.76-.46-1.13-.31-.37-.77-.64-1.38-.81-.61-.17-1.29-.25-2.02-.25-1.5,0-2.61.38-3.33,1.13-.72.75-1.08,1.61-1.08,2.57,0,.65.17,1.25.51,1.83.34.57.81,1.04,1.41,1.42.6.37,1.61.87,3.03,1.5l1.43.62c2.3,1,3.83,2.05,4.61,3.15.77,1.1,1.15,2.28,1.15,3.56,0,1.18-.31,2.32-.94,3.43s-1.49,1.94-2.6,2.51c-1.11.57-2.59.85-4.43.85s-3.22-.21-4.39-.63c-1.17-.42-2.07-1.1-2.68-2.06-.61-.96-.92-2-.92-3.14v-.15Z" fill="#fff"/>
    <path d="M505.35,550.81h2.81v.15c0,.75-.29,1.51-.88,2.29-.58.78-1.36,1.37-2.32,1.77-.96.4-2.07.61-3.32.61-2.53,0-4.48-.83-5.85-2.5-1.37-1.67-2.06-3.77-2.06-6.31s.73-4.76,2.18-6.47c1.45-1.71,3.32-2.57,5.62-2.57,1.26,0,2.4.28,3.42.83,1.02.56,1.83,1.42,2.42,2.6.59,1.18.89,2.81.89,4.91v.94h-11.75c0,1.81.47,3.29,1.42,4.46.95,1.17,2.26,1.76,3.94,1.76,1.21,0,2.09-.24,2.64-.72.55-.48.83-1.01.83-1.6v-.15ZM496.69,544.93h8.88v-.33c0-.79-.18-1.55-.55-2.29-.37-.74-.88-1.29-1.52-1.65-.65-.36-1.4-.54-2.27-.54-1.02,0-1.96.42-2.83,1.26-.86.84-1.43,2.03-1.71,3.55Z" fill="#fff"/>
    <path d="M519.55,555.62c-2.21,0-4.09-.75-5.65-2.25-1.56-1.5-2.34-3.73-2.34-6.68s.78-5.17,2.34-6.67c1.56-1.5,3.44-2.25,5.65-2.25s4.08.75,5.63,2.25c1.56,1.5,2.34,3.72,2.34,6.67s-.78,5.18-2.34,6.68c-1.56,1.5-3.44,2.25-5.63,2.25ZM519.55,553.27c1.51,0,2.73-.6,3.65-1.81.92-1.21,1.38-2.8,1.38-4.78s-.46-3.55-1.38-4.76c-.92-1.21-2.14-1.81-3.65-1.81s-2.74.6-3.67,1.81c-.92,1.21-1.38,2.79-1.38,4.76s.46,3.57,1.38,4.78c.92,1.21,2.15,1.81,3.67,1.81Z" fill="#fff"/>
  </g>
  <g>
    <path d="M604.47,324.1h-3.06v-23.49h3.06v23.49Z" fill="#fff"/>
    <path d="M611.73,324.1h-2.81v-16.91h2.81v2.92c.59-.92,1.17-1.6,1.73-2.04.56-.44,1.14-.78,1.75-1.01.61-.23,1.29-.34,2.03-.34,1.06,0,2.01.22,2.85.65.84.43,1.49,1.07,1.96,1.91.46.84.7,2.19.7,4.05v10.76h-2.81v-9.55c0-1.51-.1-2.59-.3-3.22-.2-.63-.6-1.13-1.18-1.48-.58-.36-1.22-.54-1.91-.54-.83,0-1.61.24-2.36.73-.75.48-1.34,1.16-1.79,2.03-.45.87-.67,2.11-.67,3.72v8.31Z" fill="#fff"/>
    <path d="M630.05,324.1l-4.82-16.91h2.95l2.97,10.52.4,2.51h.32l.44-2.51,3.01-10.52h2.81l3.51,10.49.51,2.54h.27l.39-2.54,2.98-10.49h2.66l-4.82,16.91h-2.84l-3.63-11.05-.42-2.45h-.22l-.44,2.45-3.17,11.05h-2.86Z" fill="#fff"/>
    <path d="M658.32,324.57c-2.21,0-4.09-.75-5.65-2.25-1.56-1.5-2.34-3.73-2.34-6.68s.78-5.17,2.34-6.67c1.56-1.5,3.44-2.25,5.65-2.25s4.08.75,5.63,2.25c1.56,1.5,2.34,3.72,2.34,6.67s-.78,5.18-2.34,6.68c-1.56,1.5-3.44,2.25-5.63,2.25ZM658.32,322.23c1.51,0,2.73-.6,3.65-1.81.92-1.21,1.38-2.8,1.38-4.78s-.46-3.55-1.38-4.76c-.92-1.21-2.14-1.81-3.65-1.81s-2.75.6-3.67,1.81c-.92,1.21-1.38,2.79-1.38,4.76s.46,3.57,1.38,4.78c.92,1.21,2.14,1.81,3.67,1.81Z" fill="#fff"/>
    <path d="M677.09,324.57c-2.21,0-4.09-.75-5.65-2.25-1.56-1.5-2.34-3.73-2.34-6.68s.78-5.17,2.34-6.67c1.56-1.5,3.44-2.25,5.65-2.25s4.08.75,5.63,2.25c1.56,1.5,2.34,3.72,2.34,6.67s-.78,5.18-2.34,6.68c-1.56,1.5-3.44,2.25-5.63,2.25ZM677.09,322.23c1.51,0,2.73-.6,3.65-1.81.92-1.21,1.38-2.8,1.38-4.78s-.46-3.55-1.38-4.76c-.92-1.21-2.14-1.81-3.65-1.81s-2.75.6-3.67,1.81c-.92,1.21-1.38,2.79-1.38,4.76s.46,3.57,1.38,4.78c.92,1.21,2.14,1.81,3.67,1.81Z" fill="#fff"/>
    <path d="M608.28,348.71h3.06v.15c0,.43.12.82.35,1.17.23.34.59.6,1.08.77.49.17,1.03.26,1.62.26.62,0,1.2-.14,1.74-.43.54-.29.93-.73,1.17-1.33.24-.6.36-1.92.36-3.96v-16.13h3.06v16.18c0,2.56-.27,4.32-.82,5.26-.55.94-1.23,1.64-2.03,2.09-.81.45-1.91.67-3.3.67-2.29,0-3.91-.47-4.85-1.42-.95-.95-1.42-1.99-1.42-3.12v-.15Z" fill="#fff"/>
    <path d="M636.11,335.78h2.81v16.91h-2.81v-2.95c-.59.91-1.18,1.59-1.75,2.04s-1.16.8-1.76,1.03-1.26.35-1.98.35c-1.59,0-2.93-.44-4.03-1.32-1.1-.88-1.66-2.66-1.66-5.34v-10.72h2.81v9.54c0,2.47.33,3.97,1,4.48.67.51,1.49.77,2.48.77.85,0,1.65-.24,2.41-.73.75-.49,1.36-1.18,1.8-2.06.45-.88.67-2.11.67-3.69v-8.31Z" fill="#fff"/>
    <path d="M646.04,352.69h-2.81v-16.91h2.81v2.92c.59-.92,1.17-1.6,1.73-2.04.56-.44,1.14-.78,1.75-1.01.61-.23,1.29-.34,2.03-.34,1.06,0,2.01.22,2.85.65.84.43,1.49,1.07,1.96,1.91.46.84.7,2.19.7,4.05v10.76h-2.81v-9.55c0-1.51-.1-2.59-.3-3.22-.2-.63-.59-1.13-1.18-1.48-.58-.36-1.22-.54-1.91-.54-.83,0-1.61.24-2.36.73s-1.34,1.16-1.79,2.03c-.45.87-.67,2.11-.67,3.72v8.31Z" fill="#fff"/>
    <path d="M672.95,349.12c-.58,1.19-1.32,2.08-2.24,2.68-.92.6-2.01.89-3.28.89-2.01,0-3.67-.79-4.98-2.37-1.31-1.58-1.96-3.66-1.96-6.23,0-1.7.29-3.24.88-4.63.59-1.39,1.41-2.43,2.47-3.12,1.06-.69,2.3-1.03,3.73-1.03,1.06,0,2.01.21,2.85.63.84.42,1.68,1.27,2.53,2.55v-2.71h2.81v13.82c0,3.47-.36,5.76-1.09,6.87-.73,1.11-1.65,1.93-2.77,2.47-1.12.53-2.43.8-3.93.8-1.39,0-2.64-.21-3.75-.62-1.11-.41-1.95-.98-2.52-1.7-.58-.72-.86-1.47-.86-2.25v-.26h2.81v.24c0,.75.4,1.34,1.21,1.79.81.45,1.84.67,3.08.67,1.01,0,1.88-.17,2.6-.52.72-.35,1.3-.91,1.74-1.7.44-.78.66-2.2.66-4.26v-2.03ZM672.95,343.73c0-1.81-.46-3.27-1.4-4.39s-2.04-1.68-3.34-1.68c-1.38,0-2.52.57-3.43,1.7-.91,1.13-1.37,2.72-1.37,4.77,0,1.29.18,2.42.55,3.39s.93,1.7,1.71,2.2c.77.5,1.6.75,2.48.75,1.43,0,2.58-.63,3.47-1.88.88-1.26,1.33-2.87,1.33-4.85Z" fill="#fff"/>
  </g>
  <g>
    <path d="M198.4,644.27h3.06v.15c0,.43.12.82.35,1.17s.59.6,1.08.77c.49.17,1.03.26,1.62.26.62,0,1.2-.14,1.74-.43s.93-.73,1.17-1.33c.24-.6.36-1.92.36-3.96v-16.13h3.06v16.18c0,2.56-.27,4.32-.82,5.26-.55.94-1.23,1.64-2.03,2.09-.81.45-1.91.67-3.3.67-2.29,0-3.91-.47-4.85-1.42s-1.42-1.99-1.42-3.12v-.15Z" fill="#fff"/>
    <path d="M226.23,631.34h2.81v16.91h-2.81v-2.95c-.59.91-1.18,1.59-1.75,2.04s-1.16.8-1.76,1.03-1.26.35-1.98.35c-1.58,0-2.93-.44-4.03-1.32-1.1-.88-1.66-2.66-1.66-5.34v-10.72h2.81v9.54c0,2.47.33,3.96,1,4.48.67.51,1.49.77,2.48.77.85,0,1.66-.24,2.41-.73.75-.49,1.36-1.17,1.8-2.06.45-.88.67-2.11.67-3.69v-8.31Z" fill="#fff"/>
    <path d="M236.17,648.25h-2.81v-16.91h2.81v2.92c.59-.92,1.17-1.6,1.73-2.04.56-.44,1.14-.78,1.75-1.01.61-.23,1.29-.34,2.03-.34,1.06,0,2.01.22,2.85.65.84.43,1.49,1.07,1.96,1.92.46.84.7,2.19.7,4.05v10.76h-2.81v-9.55c0-1.51-.1-2.59-.3-3.22s-.6-1.12-1.18-1.48c-.58-.36-1.22-.54-1.91-.54-.83,0-1.61.24-2.36.73-.75.48-1.34,1.16-1.79,2.03-.45.87-.67,2.11-.67,3.72v8.31Z" fill="#fff"/>
    <path d="M261.76,645.86v2.36c-1.37.33-2.42.5-3.15.5-1.05,0-1.99-.21-2.84-.63-.84-.42-1.48-1.04-1.92-1.85-.44-.81-.66-2.09-.66-3.86v-8.69h-2.93v-2.35h2.93v-4h2.81v4h4.93v2.35h-4.93v7.89c0,1.49.12,2.53.35,3.11s.6,1.01,1.1,1.28c.5.27,1.1.41,1.79.41.55,0,1.39-.17,2.51-.51Z" fill="#fff"/>
    <path d="M275.31,648.25c-.29-.91-.44-1.69-.44-2.35-1.2,1.22-2.22,2-3.07,2.32-.85.33-1.66.49-2.44.49-1.31,0-2.43-.41-3.37-1.23-.94-.82-1.41-1.95-1.41-3.39,0-1.63.66-2.89,1.98-3.78,1.32-.89,3.6-1.65,6.83-2.3l1.47-.29v-1.91c0-1.04-.33-1.77-1-2.19-.67-.42-1.47-.63-2.42-.63-1.13,0-2,.26-2.64.77s-.95,1.12-.95,1.8v.24h-3.05v-.23c0-.75.31-1.52.93-2.32.62-.8,1.44-1.4,2.46-1.8s2.14-.61,3.35-.61,2.3.19,3.29.58c.99.38,1.71.9,2.16,1.55.45.65.68,1.87.68,3.67v6.56c0,.72.02,1.47.05,2.26s.21,1.71.54,2.76h-2.96ZM274.87,639.73l-.82.21c-2.75.7-4.51,1.35-5.28,1.98-.77.62-1.15,1.37-1.15,2.24,0,.44.11.86.34,1.24.23.38.57.68,1.01.89.45.21.89.32,1.33.32.76,0,1.5-.23,2.24-.69.73-.46,1.3-1.07,1.71-1.83s.61-1.66.61-2.67v-1.68Z" fill="#fff"/>
    <path d="M293.09,643.91h2.81v.15c0,.75-.29,1.51-.88,2.29-.58.78-1.36,1.37-2.32,1.77-.96.4-2.07.61-3.32.61-2.53,0-4.48-.83-5.85-2.5-1.37-1.67-2.06-3.77-2.06-6.31s.73-4.76,2.18-6.47c1.45-1.71,3.32-2.57,5.62-2.57,1.26,0,2.4.28,3.42.83,1.02.56,1.83,1.42,2.42,2.6.59,1.18.89,2.81.89,4.91v.94h-11.75c0,1.81.47,3.29,1.42,4.46.95,1.17,2.26,1.76,3.94,1.76,1.21,0,2.09-.24,2.64-.72.55-.48.83-1.01.83-1.6v-.15ZM284.44,638.04h8.88v-.33c0-.79-.18-1.55-.55-2.29-.37-.74-.88-1.29-1.52-1.65-.65-.36-1.4-.54-2.27-.54-1.02,0-1.96.42-2.83,1.26-.86.84-1.43,2.03-1.71,3.55Z" fill="#fff"/>
    <path d="M311.54,648.25h-2.83l9.61-23.49h3.09l8.88,23.49h-3.3l-2.43-6.46h-10.37l-2.65,6.46ZM315.11,639.44h8.55l-4.13-10.91-4.43,10.91Z" fill="#fff"/>
    <path d="M335.79,648.25h-2.81v-24.43h2.81v10.44c.59-.92,1.17-1.6,1.73-2.04.56-.44,1.14-.78,1.75-1.01.61-.23,1.29-.34,2.03-.34,1.06,0,2.01.22,2.85.65.84.43,1.49,1.07,1.96,1.92.46.84.7,2.19.7,4.05v10.76h-2.81v-9.55c0-1.51-.1-2.59-.3-3.22s-.58-1.12-1.15-1.48c-.56-.36-1.21-.54-1.94-.54-.83,0-1.61.24-2.36.73-.75.48-1.34,1.16-1.79,2.03-.45.87-.67,2.11-.67,3.72v8.31Z" fill="#fff"/>
    <path d="M353.86,648.25h-2.81v-16.91h2.81v2.92c.59-.92,1.17-1.6,1.73-2.04.56-.44,1.14-.78,1.75-1.01.61-.23,1.29-.34,2.03-.34,1.06,0,2.01.22,2.85.65.84.43,1.49,1.07,1.96,1.92.46.84.7,2.19.7,4.05v10.76h-2.81v-9.55c0-1.51-.1-2.59-.3-3.22s-.6-1.12-1.18-1.48c-.58-.36-1.22-.54-1.91-.54-.83,0-1.61.24-2.36.73-.75.48-1.34,1.16-1.79,2.03-.45.87-.67,2.11-.67,3.72v8.31Z" fill="#fff"/>
  </g>
  <g>
    <path d="M224.67,784.83l-2.53-1.71,13.16-19.46,2.53,1.71-5.86,8.67,8.93,6.04,5.86-8.67,2.53,1.71-13.16,19.46-2.53-1.71,5.99-8.85-8.93-6.04-5.99,8.85Z" fill="#fff"/>
    <path d="M244.8,797.54l3.05-17.45,2.58,1.75-2.35,13.57,11.43-7.44,2.33,1.58-15.37,10.02c-2.07,1.36-3.59,2.16-4.54,2.42-.95.25-1.81.3-2.58.15-.77-.15-1.65-.57-2.64-1.24l-1.75-1.19,1.31-1.94,1.32.89c.64.43,1.27.73,1.87.89s1.19.16,1.77,0c.58-.16,1.57-.69,2.97-1.61l.61-.4Z" fill="#fff"/>
    <path d="M265.88,807.44l2.33,1.58-.08.13c-.42.62-1.09,1.09-2.01,1.4-.92.32-1.89.37-2.91.17s-2.05-.66-3.09-1.36c-2.09-1.42-3.24-3.2-3.45-5.35s.4-4.28,1.83-6.38c1.46-2.16,3.27-3.54,5.43-4.14,2.16-.6,4.19-.26,6.09,1.02,1.04.71,1.83,1.58,2.37,2.61.53,1.03.72,2.2.55,3.51-.17,1.31-.84,2.83-2.01,4.57l-.53.78-9.74-6.58c-1.01,1.5-1.45,2.99-1.32,4.49.13,1.5.89,2.72,2.28,3.66,1,.68,1.86.97,2.59.88.73-.09,1.26-.37,1.58-.86l.08-.12ZM261.99,797.73l7.36,4.97.19-.28c.44-.65.72-1.39.83-2.21.11-.82,0-1.56-.34-2.22-.34-.66-.86-1.23-1.58-1.72-.84-.57-1.86-.75-3.05-.54-1.19.21-2.32.88-3.4,1.98Z" fill="#fff"/>
    <path d="M279.71,801.64l2.33,1.58-9.47,14.01c-.96,1.41-1.84,2.35-2.64,2.82-.81.47-1.73.65-2.76.56-1.03-.09-1.98-.44-2.86-1.03-.62-.42-1.25-.95-1.88-1.58l1.25-1.86.47.39c.43.36.78.63,1.05.82.78.53,1.56.77,2.33.71.77-.06,1.67-.86,2.71-2.4l9.47-14.01ZM281.88,798.42l1.52-2.24,2.33,1.58-1.52,2.24-2.33-1.58Z" fill="#fff"/>
    <path d="M285.83,805.77l2.33,1.57-9.47,14.01-2.33-1.58,9.47-14.01ZM287.93,802.66l1.59-2.34,2.33,1.58-1.59,2.34-2.33-1.58Z" fill="#fff"/>
    <path d="M284.72,825.43l-2.33-1.58,9.47-14.01,2.33,1.58-1.64,2.42c1.01-.43,1.87-.67,2.58-.72.71-.05,1.38,0,2.02.15.63.15,1.26.44,1.88.86.88.59,1.54,1.31,2,2.14.45.83.64,1.73.55,2.68-.09.96-.65,2.21-1.69,3.74l-6.03,8.92-2.33-1.58,5.35-7.91c.85-1.25,1.36-2.2,1.55-2.83.19-.64.14-1.27-.15-1.89-.28-.62-.71-1.13-1.28-1.51-.68-.46-1.47-.7-2.36-.72-.89-.02-1.76.21-2.62.68-.86.47-1.74,1.37-2.64,2.71l-4.65,6.88Z" fill="#fff"/>
    <path d="M308.44,841.47l-2.53-1.71,13.16-19.46,2.53,1.71-5.86,8.67,8.93,6.04,5.86-8.67,2.53,1.71-13.16,19.46-2.53-1.71,5.99-8.85-8.93-6.04-5.99,8.85Z" fill="#fff"/>
    <path d="M326.15,853.44l5.47-16.71,2.44,1.65-3.43,10.38-1.08,2.3.26.18,1.77-1.83,8.39-7.03,2.33,1.58-2.96,10.66-1,2.39.22.15,1.75-1.89,8.34-7.02,2.2,1.49-13.47,11.3-2.35-1.59,3.18-11.19,1.03-2.27-.18-.12-1.74,1.78-8.82,7.38-2.37-1.6Z" fill="#fff"/>
    <path d="M352.03,870.94c.27-.92.58-1.65.95-2.19-1.68.34-2.96.41-3.85.2s-1.65-.52-2.3-.96c-1.08-.73-1.78-1.7-2.1-2.91-.32-1.21-.07-2.41.73-3.6.91-1.35,2.17-2.03,3.76-2.02,1.59,0,3.91.65,6.94,1.92l1.38.59,1.07-1.58c.58-.86.71-1.65.39-2.38-.32-.72-.87-1.35-1.65-1.87-.93-.63-1.8-.91-2.61-.84-.81.07-1.41.39-1.79.96l-.14.2-2.53-1.71.13-.19c.42-.62,1.11-1.08,2.06-1.4.96-.31,1.97-.35,3.05-.12,1.07.24,2.11.7,3.12,1.38,1,.67,1.8,1.45,2.4,2.32.6.87.91,1.7.92,2.5.01.79-.49,1.93-1.49,3.42l-3.68,5.44c-.4.59-.81,1.23-1.22,1.9-.41.67-.78,1.54-1.1,2.59l-2.46-1.66ZM356.44,863.64l-.79-.28c-2.67-.96-4.49-1.4-5.48-1.32s-1.72.49-2.21,1.21c-.25.37-.38.77-.41,1.22-.02.44.09.88.34,1.31.25.42.56.76.92,1,.63.42,1.37.65,2.24.68.86.03,1.68-.15,2.45-.56.77-.4,1.44-1.03,2-1.87l.94-1.39Z" fill="#fff"/>
    <path d="M360.15,876.43l-2.33-1.58,9.47-14.01,2.33,1.58-1.64,2.42c1.01-.43,1.87-.67,2.58-.72s1.38,0,2.02.15c.63.15,1.26.44,1.88.86.88.59,1.54,1.31,2,2.14.45.83.64,1.72.55,2.68-.09.96-.65,2.21-1.69,3.74l-6.03,8.92-2.33-1.58,5.35-7.91c.85-1.25,1.36-2.2,1.55-2.83.19-.63.14-1.26-.15-1.89-.28-.62-.71-1.13-1.28-1.51-.68-.46-1.47-.7-2.36-.72s-1.76.21-2.62.68c-.86.47-1.74,1.37-2.64,2.71l-4.65,6.88Z" fill="#fff"/>
    <path d="M384.44,888.54c-1.14.66-2.26.98-3.36.96s-2.17-.39-3.21-1.09c-1.67-1.13-2.6-2.71-2.8-4.75-.2-2.04.42-4.13,1.86-6.26.95-1.4,2.06-2.52,3.32-3.34,1.27-.82,2.53-1.22,3.79-1.2,1.26.03,2.49.44,3.67,1.24.88.59,1.55,1.3,2.01,2.12.46.82.68,1.99.67,3.53l1.52-2.25,2.33,1.58-7.74,11.45c-1.94,2.88-3.53,4.57-4.75,5.08-1.22.51-2.45.68-3.67.49-1.22-.18-2.46-.69-3.71-1.54-1.15-.78-2.08-1.65-2.76-2.62-.69-.96-1.06-1.9-1.14-2.82-.07-.92.11-1.7.54-2.35l.14-.21,2.33,1.58-.14.2c-.42.62-.42,1.34,0,2.17.42.83,1.14,1.59,2.17,2.28.84.57,1.65.91,2.45,1.03.79.12,1.59-.03,2.39-.43.8-.4,1.78-1.46,2.93-3.16l1.14-1.68ZM387.46,884.08c1.01-1.5,1.45-2.97,1.3-4.42-.14-1.45-.75-2.54-1.82-3.26-1.14-.77-2.4-.94-3.79-.52-1.39.43-2.65,1.49-3.8,3.19-.72,1.07-1.21,2.11-1.45,3.12-.24,1.01-.18,1.93.18,2.78.36.85.91,1.52,1.64,2.01,1.18.8,2.49.92,3.93.38,1.44-.55,2.71-1.64,3.82-3.28Z" fill="#fff"/>
  </g>
</svg>