<?xml version="1.0" encoding="UTF-8"?>
<svg id="Layer_1" data-name="Layer 1" xmlns="http://www.w3.org/2000/svg" width="1280" height="1024" viewBox="0 0 1280 1024">
  <path d="M584.51,319.07v356.09H50.6v-356.09h533.9M586.01,317.57H49.1v359.09h536.9v-359.09h0Z" fill="#fff"/>
  <g>
    <path d="M345.59,712.88c-23.67,0-42.86-16.39-42.86-36.62s19.19-36.62,42.86-36.62v73.23Z" fill="none" stroke="#fff" stroke-miterlimit="10"/>
    <path d="M259.88,712.88c23.67,0,42.86-16.39,42.86-36.62s-19.19-36.62-42.86-36.62v73.23Z" fill="none" stroke="#fff" stroke-miterlimit="10"/>
  </g>
  <rect x="692.53" y="532.24" width="86.43" height="15.29" fill="none" stroke="#fff" stroke-miterlimit="10"/>
  <rect x="49.78" y="554.51" width="38.03" height="121.35" fill="none" stroke="#fff" stroke-miterlimit="10"/>
  <rect x="258.24" y="318.22" width="240.23" height="54.97" fill="none" stroke="#fff" stroke-miterlimit="10"/>
  <g>
    <line x1="359.21" y1="319.61" x2="396.45" y2="373.19" fill="#fff" stroke="#fff" stroke-miterlimit="10" stroke-width=".75"/>
    <line x1="498.46" y1="319.07" x2="498.46" y2="373.19" fill="#fff" stroke="#fff" stroke-miterlimit="10" stroke-width=".75"/>
    <line x1="485.31" y1="319.07" x2="485.31" y2="373.19" fill="#fff" stroke="#fff" stroke-miterlimit="10" stroke-width=".75"/>
    <line x1="472.16" y1="319.07" x2="472.16" y2="373.19" fill="#fff" stroke="#fff" stroke-miterlimit="10" stroke-width=".75"/>
    <line x1="459.01" y1="319.07" x2="459.01" y2="373.19" fill="#fff" stroke="#fff" stroke-miterlimit="10" stroke-width=".75"/>
    <line x1="445.86" y1="319.07" x2="445.86" y2="373.19" fill="#fff" stroke="#fff" stroke-miterlimit="10" stroke-width=".75"/>
    <line x1="432.71" y1="319.07" x2="432.71" y2="373.19" fill="#fff" stroke="#fff" stroke-miterlimit="10" stroke-width=".75"/>
    <line x1="419.56" y1="319.07" x2="419.56" y2="373.19" fill="#fff" stroke="#fff" stroke-miterlimit="10" stroke-width=".75"/>
    <line x1="406.41" y1="319.07" x2="406.41" y2="373.19" fill="#fff" stroke="#fff" stroke-miterlimit="10" stroke-width=".75"/>
    <line x1="393.26" y1="319.07" x2="393.26" y2="368.6" fill="#fff" stroke="#fff" stroke-miterlimit="10" stroke-width=".75"/>
    <line x1="380.11" y1="319.07" x2="380.11" y2="349.33" fill="#fff" stroke="#fff" stroke-miterlimit="10" stroke-width=".75"/>
  </g>
  <line x1="383.98" y1="346.83" x2="498.46" y2="346.83" fill="#fff" stroke="#fff" stroke-miterlimit="10" stroke-width=".75"/>
  <ellipse cx="498.46" cy="347.41" rx="2.6" ry="2.2" fill="#fff" stroke="#fff" stroke-miterlimit="10" stroke-width=".52"/>
  <polyline points="388.47 342.95 383.86 346.83 388.41 350.86" fill="none" stroke="#fff" stroke-miterlimit="10" stroke-width=".75"/>
  <rect x="49.78" y="318.59" width="208.46" height="141.47" fill="none" stroke="#fff" stroke-miterlimit="10"/>
  <path d="M1230.22,319.55v352.93h-537.69v-352.93h537.69M1231.72,318.05h-540.69v355.93h540.69v-355.93h0Z" fill="#fff"/>
  <g>
    <line x1="779.9" y1="346.87" x2="1127.73" y2="346.87" fill="#fff" stroke="#fff" stroke-miterlimit="10" stroke-width=".75"/>
    <ellipse cx="780.07" cy="346.87" rx="2.58" ry="2.33" fill="#fff" stroke="#fff" stroke-miterlimit="10" stroke-width=".75"/>
  </g>
  <polyline points="1123.7 342.52 1128.44 346.79 1123.77 351.21" fill="none" stroke="#fff" stroke-miterlimit="10" stroke-width=".75"/>
  <g>
    <line x1="780.07" y1="327.01" x2="780.07" y2="365.44" fill="none" stroke="#fff" stroke-miterlimit="10" stroke-width=".75"/>
    <line x1="792.59" y1="326.97" x2="792.59" y2="365.39" fill="none" stroke="#fff" stroke-miterlimit="10" stroke-width=".75"/>
    <line x1="804.91" y1="327.01" x2="804.91" y2="365.44" fill="none" stroke="#fff" stroke-miterlimit="10" stroke-width=".75"/>
    <line x1="817.09" y1="327.01" x2="817.09" y2="365.44" fill="none" stroke="#fff" stroke-miterlimit="10" stroke-width=".75"/>
    <line x1="829.28" y1="327.01" x2="829.28" y2="365.44" fill="none" stroke="#fff" stroke-miterlimit="10" stroke-width=".75"/>
    <line x1="841.86" y1="327.01" x2="841.86" y2="365.44" fill="none" stroke="#fff" stroke-miterlimit="10" stroke-width=".75"/>
    <line x1="854.05" y1="327.01" x2="854.05" y2="365.44" fill="none" stroke="#fff" stroke-miterlimit="10" stroke-width=".75"/>
    <line x1="866.23" y1="327.01" x2="866.23" y2="365.44" fill="none" stroke="#fff" stroke-miterlimit="10" stroke-width=".75"/>
    <line x1="878.42" y1="327.01" x2="878.42" y2="365.44" fill="none" stroke="#fff" stroke-miterlimit="10" stroke-width=".75"/>
    <line x1="890.47" y1="327.01" x2="890.47" y2="365.44" fill="none" stroke="#fff" stroke-miterlimit="10" stroke-width=".75"/>
    <line x1="902.92" y1="327.01" x2="902.92" y2="365.44" fill="none" stroke="#fff" stroke-miterlimit="10" stroke-width=".75"/>
    <line x1="915.37" y1="326.42" x2="915.37" y2="364.84" fill="none" stroke="#fff" stroke-miterlimit="10" stroke-width=".75"/>
    <line x1="927.29" y1="326.97" x2="927.29" y2="365.39" fill="none" stroke="#fff" stroke-miterlimit="10" stroke-width=".75"/>
    <line x1="982.02" y1="326.97" x2="982.02" y2="365.39" fill="none" stroke="#fff" stroke-miterlimit="10" stroke-width=".75"/>
    <line x1="994.54" y1="326.93" x2="994.54" y2="365.35" fill="none" stroke="#fff" stroke-miterlimit="10" stroke-width=".75"/>
    <line x1="1006.85" y1="326.97" x2="1006.85" y2="365.39" fill="none" stroke="#fff" stroke-miterlimit="10" stroke-width=".75"/>
    <line x1="1019.04" y1="326.97" x2="1019.04" y2="365.39" fill="none" stroke="#fff" stroke-miterlimit="10" stroke-width=".75"/>
    <line x1="1031.23" y1="326.97" x2="1031.23" y2="365.39" fill="none" stroke="#fff" stroke-miterlimit="10" stroke-width=".75"/>
    <line x1="1043.81" y1="326.97" x2="1043.81" y2="365.39" fill="none" stroke="#fff" stroke-miterlimit="10" stroke-width=".75"/>
    <line x1="1055.99" y1="326.97" x2="1055.99" y2="365.39" fill="none" stroke="#fff" stroke-miterlimit="10" stroke-width=".75"/>
    <line x1="1068.18" y1="326.97" x2="1068.18" y2="365.39" fill="none" stroke="#fff" stroke-miterlimit="10" stroke-width=".75"/>
    <line x1="1080.36" y1="326.97" x2="1080.36" y2="365.39" fill="none" stroke="#fff" stroke-miterlimit="10" stroke-width=".75"/>
    <line x1="1092.42" y1="326.97" x2="1092.42" y2="365.39" fill="none" stroke="#fff" stroke-miterlimit="10" stroke-width=".75"/>
    <line x1="1104.87" y1="326.97" x2="1104.87" y2="365.39" fill="none" stroke="#fff" stroke-miterlimit="10" stroke-width=".75"/>
    <line x1="1117.31" y1="326.38" x2="1117.31" y2="364.8" fill="none" stroke="#fff" stroke-miterlimit="10" stroke-width=".75"/>
    <line x1="1129.24" y1="326.93" x2="1129.24" y2="365.35" fill="none" stroke="#fff" stroke-miterlimit="10" stroke-width=".75"/>
  </g>
  <line x1="778.13" y1="372.93" x2="1141.6" y2="372.93" fill="#fff" stroke="#fff" stroke-miterlimit="10"/>
  <line x1="906.44" y1="372.93" x2="906.44" y2="674.81" fill="none" stroke="#fff" stroke-miterlimit="10"/>
  <g>
    <path d="M506.85,481.38c.73,0,1.35-.23,1.86-.69.52-.48.78-1.05.78-1.7v-10.33h1.33v10.39c0,.93-.4,1.78-1.19,2.54-.79.75-1.68,1.12-2.7,1.12-.74,0-1.52-.15-2.34-.46-.19-.06-.41-.15-.65-.27-.24-.13-.51-.27-.8-.44v-1.62c.3.2.58.38.86.55s.56.31.84.44c.72.32,1.38.48,2,.48Z" fill="#fff" stroke="#fff" stroke-miterlimit="10" stroke-width=".25"/>
    <path d="M512.54,473.07h1.25v6.05c0,.67.19,1.24.56,1.7.41.53.99.8,1.74.8.86,0,1.6-.36,2.22-1.08.64-.76.96-1.59.96-2.5v-4.97h1.23v9.5h-1.08l-.09-1.62c-.18.26-.38.49-.58.7s-.43.39-.67.54c-.64.4-1.34.6-2.1.6-1.05,0-1.88-.34-2.51-1.01-.63-.69-.94-1.52-.94-2.5v-6.21Z" fill="#fff" stroke="#fff" stroke-miterlimit="10" stroke-width=".25"/>
    <path d="M530.01,476.21v6.35h-1.23v-6.27c0-.66-.23-1.21-.7-1.63-.47-.44-1.02-.66-1.67-.66-.86,0-1.61.37-2.24,1.12-.63.76-.94,1.61-.94,2.56v4.88h-1.16v-9.5h1.08l.05,1.78c.31-.48.67-.89,1.08-1.21.67-.52,1.43-.78,2.27-.78.98,0,1.8.31,2.46.92.67.6,1.01,1.41,1.01,2.43Z" fill="#fff" stroke="#fff" stroke-miterlimit="10" stroke-width=".25"/>
    <path d="M538.38,474.13l.34-1.07h.9v8.59c0,1.48-.35,2.6-1.04,3.37-.69.77-1.77,1.15-3.23,1.15-.59,0-1.15-.11-1.68-.33-.53-.22-1.08-.56-1.66-1.02v-1.56c.36.36.72.65,1.08.9s.7.43,1.04.56c.4.15.81.23,1.23.23.9,0,1.6-.21,2.1-.64.61-.52.92-1.35.92-2.5v-1.17c-.43.75-.97,1.27-1.6,1.58-.43.21-.91.32-1.43.32-1.13,0-2.07-.47-2.83-1.4-.75-.96-1.13-2.07-1.13-3.32s.35-2.36,1.06-3.32c.82-1.1,1.87-1.65,3.14-1.65.64,0,1.24.16,1.81.48.17.11.34.22.5.35.16.13.33.28.49.44ZM538.38,477.97v-2.61c-.19-.22-.39-.41-.59-.57s-.4-.29-.59-.41c-.23-.13-.46-.22-.7-.28s-.48-.09-.73-.09c-.85,0-1.56.31-2.12.94-.63.71-.94,1.65-.94,2.8,0,1.05.26,1.92.79,2.61.51.67,1.18,1.01,2,1.01s1.49-.33,2.05-.98c.56-.63.84-1.44.84-2.43Z" fill="#fff" stroke="#fff" stroke-miterlimit="10" stroke-width=".25"/>
    <path d="M541.21,468.65h1.23v6.12c.28-.47.63-.87,1.04-1.19.63-.49,1.33-.73,2.1-.73.48,0,.91.07,1.29.21.38.14.73.35,1.05.62.67.62,1.01,1.48,1.01,2.59v6.28h-1.25v-6.11c0-.69-.21-1.27-.63-1.74-.42-.47-.93-.71-1.54-.71-.88,0-1.6.36-2.18,1.08-.59.75-.89,1.6-.89,2.56v4.92h-1.23v-13.92Z" fill="#fff" stroke="#fff" stroke-miterlimit="10" stroke-width=".25"/>
    <path d="M549.83,473.07h1.37l3.14,8.02,2.68-8.02h1.35l-3.81,10.6c-.27.76-.63,1.3-1.06,1.62-.39.27-.85.41-1.38.41-.27,0-.5-.02-.68-.06-.18-.04-.36-.1-.53-.17v-1.23c.16.08.34.15.54.21.2.06.38.09.54.09.4,0,.71-.11.93-.32.22-.21.42-.55.59-1.01l.2-.73-3.87-9.41Z" fill="#fff" stroke="#fff" stroke-miterlimit="10" stroke-width=".25"/>
    <path d="M559.56,473.07h1.25v6.05c0,.67.19,1.24.56,1.7.41.53.99.8,1.74.8.86,0,1.6-.36,2.22-1.08.64-.76.96-1.59.96-2.5v-4.97h1.23v9.5h-1.08l-.09-1.62c-.18.26-.38.49-.58.7s-.43.39-.67.54c-.64.4-1.34.6-2.1.6-1.05,0-1.88-.34-2.51-1.01-.63-.69-.94-1.52-.94-2.5v-6.21Z" fill="#fff" stroke="#fff" stroke-miterlimit="10" stroke-width=".25"/>
    <path d="M577.03,476.21v6.35h-1.23v-6.27c0-.66-.23-1.21-.7-1.63-.47-.44-1.02-.66-1.67-.66-.86,0-1.61.37-2.24,1.12-.63.76-.94,1.61-.94,2.56v4.88h-1.16v-9.5h1.08l.05,1.78c.31-.48.67-.89,1.08-1.21.67-.52,1.43-.78,2.27-.78.98,0,1.8.31,2.46.92.67.6,1.01,1.41,1.01,2.43Z" fill="#fff" stroke="#fff" stroke-miterlimit="10" stroke-width=".25"/>
    <path d="M550.6,484.26h1.35v12.69h6.61v1.23h-7.95v-13.92Z" fill="#fff" stroke="#fff" stroke-miterlimit="10" stroke-width=".25"/>
    <path d="M567.92,493.05h-6.95c0,1.36.3,2.4.91,3.12.61.72,1.41,1.07,2.4,1.07.75,0,1.47-.25,2.17-.75.19-.13.4-.29.61-.49s.45-.42.7-.68v1.54c-.27.21-.53.4-.76.56-.23.16-.45.29-.66.4-.72.39-1.43.59-2.15.59-1.24,0-2.29-.44-3.16-1.33-.93-.94-1.4-2.15-1.4-3.64,0-1.41.42-2.59,1.26-3.53.85-.96,1.91-1.44,3.16-1.44s2.18.46,2.9,1.38c.64.84.96,1.91.96,3.19ZM561.14,491.97h5.34c-.14-.8-.43-1.41-.88-1.8-.45-.4-.99-.59-1.63-.59-.71,0-1.3.23-1.79.69-.46.43-.8.99-1.04,1.7Z" fill="#fff" stroke="#fff" stroke-miterlimit="10" stroke-width=".25"/>
    <path d="M577.29,493.05h-6.95c0,1.36.3,2.4.91,3.12.61.72,1.41,1.07,2.4,1.07.75,0,1.47-.25,2.17-.75.19-.13.4-.29.61-.49s.45-.42.7-.68v1.54c-.27.21-.53.4-.76.56-.23.16-.45.29-.66.4-.72.39-1.43.59-2.15.59-1.24,0-2.29-.44-3.16-1.33-.93-.94-1.4-2.15-1.4-3.64,0-1.41.42-2.59,1.26-3.53.85-.96,1.91-1.44,3.16-1.44s2.18.46,2.9,1.38c.64.84.96,1.91.96,3.19ZM570.51,491.97h5.34c-.14-.8-.43-1.41-.88-1.8-.45-.4-.99-.59-1.63-.59-.71,0-1.3.23-1.79.69-.46.43-.8.99-1.04,1.7Z" fill="#fff" stroke="#fff" stroke-miterlimit="10" stroke-width=".25"/>
  </g>
  <g>
    <path d="M517.55,409.66v-13.92h1.76l5.19,11.52,5.36-11.52h1.66v13.92h-1.21v-12.09l-5.51,12.09h-.58l-5.43-12.07v12.07h-1.23Z" fill="#fff" stroke="#fff" stroke-miterlimit="10" stroke-width=".25"/>
    <path d="M533.61,396.16c.24,0,.44.08.6.25.16.17.24.4.24.71s-.07.54-.22.71c-.15.17-.35.25-.61.25s-.46-.09-.61-.28c-.14-.19-.21-.41-.21-.66,0-.39.09-.65.26-.78s.36-.2.56-.2ZM533.01,400.17h1.23v9.5h-1.23v-9.5Z" fill="#fff" stroke="#fff" stroke-miterlimit="10" stroke-width=".25"/>
    <path d="M543.75,403.31v6.36h-1.23v-6.27c0-.66-.23-1.21-.7-1.63-.47-.44-1.02-.66-1.67-.66-.86,0-1.61.37-2.24,1.12-.63.76-.94,1.61-.94,2.56v4.88h-1.16v-9.5h1.08l.05,1.78c.31-.48.67-.89,1.08-1.21.67-.52,1.43-.78,2.27-.78.98,0,1.8.31,2.46.92.67.6,1.01,1.41,1.01,2.43Z" fill="#fff" stroke="#fff" stroke-miterlimit="10" stroke-width=".25"/>
    <path d="M547.13,400.17h1.23v10.21c0,.91-.25,1.58-.75,2.01-.42.38-.96.57-1.62.57-.31,0-.56-.03-.77-.09-.2-.06-.41-.14-.61-.25v-1.17c.2.11.41.19.61.26.2.07.4.1.59.1.43,0,.76-.13.99-.4.23-.27.34-.63.34-1.09v-10.14ZM547.66,396.16c.24,0,.44.08.6.25.16.17.24.4.24.71s-.07.54-.22.71c-.15.17-.35.25-.61.25s-.46-.09-.61-.28c-.14-.19-.21-.41-.21-.66,0-.39.08-.65.26-.78s.36-.2.56-.2Z" fill="#fff" stroke="#fff" stroke-miterlimit="10" stroke-width=".25"/>
    <path d="M549.99,400.17h1.25v6.05c0,.67.19,1.24.56,1.7.41.53.99.8,1.74.8.86,0,1.6-.36,2.22-1.08.64-.76.96-1.59.96-2.5v-4.97h1.23v9.5h-1.08l-.09-1.62c-.18.26-.38.49-.58.7s-.43.39-.67.54c-.64.4-1.34.6-2.1.6-1.05,0-1.88-.34-2.51-1.01-.63-.69-.94-1.52-.94-2.5v-6.21Z" fill="#fff" stroke="#fff" stroke-miterlimit="10" stroke-width=".25"/>
    <path d="M567.47,403.31v6.36h-1.23v-6.27c0-.66-.23-1.21-.7-1.63-.47-.44-1.02-.66-1.67-.66-.86,0-1.61.37-2.24,1.12-.63.76-.94,1.61-.94,2.56v4.88h-1.16v-9.5h1.08l.05,1.78c.31-.48.67-.89,1.08-1.21.67-.52,1.43-.78,2.27-.78.98,0,1.8.31,2.46.92.67.6,1.01,1.41,1.01,2.43Z" fill="#fff" stroke="#fff" stroke-miterlimit="10" stroke-width=".25"/>
    <path d="M575.83,401.23l.34-1.07h.9v8.59c0,1.48-.35,2.6-1.04,3.37-.69.77-1.77,1.15-3.23,1.15-.59,0-1.15-.11-1.68-.33-.53-.22-1.08-.56-1.66-1.02v-1.56c.36.35.72.65,1.08.9s.7.43,1.04.56c.4.15.81.23,1.23.23.9,0,1.6-.21,2.1-.64.61-.52.92-1.36.92-2.5v-1.17c-.43.75-.97,1.27-1.6,1.58-.43.21-.91.32-1.43.32-1.13,0-2.07-.47-2.83-1.4-.75-.96-1.13-2.07-1.13-3.32s.35-2.36,1.06-3.32c.82-1.1,1.87-1.65,3.14-1.65.64,0,1.24.16,1.81.48.17.11.34.23.5.36.16.13.33.28.49.44ZM575.83,405.07v-2.61c-.19-.22-.39-.41-.59-.57-.2-.15-.4-.29-.59-.41-.23-.13-.46-.22-.7-.28s-.48-.09-.73-.09c-.85,0-1.56.31-2.12.94-.63.71-.94,1.65-.94,2.8,0,1.05.26,1.92.79,2.61.51.67,1.18,1.01,2,1.01s1.49-.33,2.05-.98c.56-.63.84-1.44.84-2.43Z" fill="#fff" stroke="#fff" stroke-miterlimit="10" stroke-width=".25"/>
    <path d="M548.06,411.36h1.35v6.96l6.54-6.96h1.79l-5.24,5.49,5.63,8.43h-1.76l-4.95-7.37-2.01,2.09v5.27h-1.35v-13.92Z" fill="#fff" stroke="#fff" stroke-miterlimit="10" stroke-width=".25"/>
    <path d="M559.59,411.77c.24,0,.44.08.6.25.16.17.24.4.24.71s-.07.54-.22.71c-.15.17-.35.25-.61.25s-.46-.09-.61-.28c-.14-.19-.21-.41-.21-.66,0-.39.09-.65.26-.78s.36-.2.56-.2ZM559,415.78h1.23v9.5h-1.23v-9.5Z" fill="#fff" stroke="#fff" stroke-miterlimit="10" stroke-width=".25"/>
    <path d="M575.4,419.19v6.09h-1.25v-6.39c0-.67-.22-1.22-.67-1.63-.38-.36-.82-.53-1.33-.53-.76,0-1.44.37-2.05,1.1-.59.72-.89,1.62-.89,2.68v4.78h-1.25v-6.39c0-.64-.21-1.15-.63-1.54-.4-.41-.85-.62-1.37-.62-.74,0-1.4.34-1.98,1.03-.64.76-.96,1.69-.96,2.81v4.72h-1.25v-9.5h1.16l.05,1.51c.33-.56.8-.99,1.42-1.31.55-.27,1.1-.41,1.66-.41.86,0,1.59.26,2.18.78.43.39.71.78.82,1.17.23-.44.55-.83.97-1.19.66-.51,1.39-.76,2.18-.76.97,0,1.72.3,2.25.91.6.69.9,1.59.9,2.72Z" fill="#fff" stroke="#fff" stroke-miterlimit="10" stroke-width=".25"/>
  </g>
  <g>
    <path d="M58.95,209.44h1.95v22.74h-2.23v-16.8h-5.37v-1.71h1.22c1.83,0,3.1-.51,3.81-1.52.41-.65.61-1.56.61-2.71Z" fill="#fff" stroke="#fff" stroke-miterlimit="10" stroke-width=".5"/>
    <path d="M70.13,208.28h14.88v2.1h-12.47v8.87h11.95v1.95h-11.95v10.98h-2.41v-23.9Z" fill="#fff" stroke="#fff" stroke-miterlimit="10" stroke-width=".5"/>
  </g>
  <g>
    <path d="M687.3,230.05h13.54v2.04h-15.67v-.98c0-2.58,1.1-4.9,3.29-6.95,1.04-.73,2.06-1.46,3.08-2.2,1.02-.73,2.04-1.47,3.08-2.23,2.21-1.61,3.32-3.2,3.32-4.79,0-1.26-.51-2.25-1.52-2.96-.47-.35-.98-.6-1.53-.76-.55-.16-1.15-.24-1.8-.24-.96,0-1.87.12-2.74.37-1.32.41-2.68,1.11-4.09,2.1v-2.5c1.4-.71,2.65-1.22,3.73-1.54,1.09-.31,2.12-.47,3.09-.47,2.05,0,3.78.53,5.18,1.59,1.38,1.04,2.07,2.47,2.07,4.3,0,1.99-1.07,3.87-3.2,5.64-1.02.71-2.03,1.41-3.03,2.09-1.01.68-2.02,1.38-3.03,2.09-2.28,1.71-3.54,3.51-3.78,5.4Z" fill="#fff" stroke="#fff" stroke-miterlimit="10" stroke-width=".5"/>
    <path d="M704.4,208.19h14.88v2.1h-12.47v8.87h11.95v1.95h-11.95v10.98h-2.41v-23.9Z" fill="#fff" stroke="#fff" stroke-miterlimit="10" stroke-width=".5"/>
  </g>
  <g>
    <path d="M106.03,610.41v1.79c-.31-.26-.62-.49-.93-.69-.31-.2-.62-.37-.93-.5-.71-.33-1.43-.5-2.16-.5-.92,0-1.69.23-2.29.69-.62.47-.92,1.04-.92,1.69,0,.95.7,1.66,2.09,2.13.65.22,1.3.44,1.94.65s1.3.42,1.96.63c1.41.67,2.11,1.68,2.11,3.02s-.5,2.35-1.51,3.14c-.96.75-2.15,1.12-3.56,1.12-.95,0-1.86-.18-2.73-.55-.51-.2-1.11-.53-1.81-.99v-1.81c.91.82,1.83,1.39,2.77,1.72.31.12.61.2.9.25.3.05.59.07.89.07.95,0,1.74-.24,2.39-.71.72-.52,1.08-1.2,1.08-2.04,0-1.02-.69-1.79-2.06-2.33-.66-.2-1.31-.41-1.95-.62-.64-.21-1.28-.42-1.92-.62-1.38-.64-2.08-1.62-2.08-2.95,0-1.11.44-2.02,1.31-2.72.9-.72,2.02-1.08,3.37-1.08.83,0,1.66.15,2.48.46.43.14.94.39,1.54.75Z" fill="#fff" stroke="#fff" stroke-miterlimit="10" stroke-width=".25"/>
    <path d="M113,623.58c-1.22,0-2.29-.44-3.21-1.33-.98-.94-1.47-2.15-1.47-3.64,0-1.41.43-2.59,1.29-3.53.89-.96,1.98-1.44,3.28-1.44s2.38.48,3.26,1.44c.87.95,1.31,2.12,1.31,3.51,0,1.47-.47,2.68-1.42,3.64-.88.9-1.89,1.35-3.05,1.35ZM112.88,622.41c.85,0,1.61-.36,2.27-1.07.64-.72.96-1.64.96-2.75s-.34-2.08-1.03-2.81c-.63-.66-1.35-.99-2.18-.99s-1.58.34-2.18,1.03c-.66.76-.99,1.69-.99,2.79s.32,2.04.98,2.79c.6.68,1.33,1.01,2.18,1.01Z" fill="#fff" stroke="#fff" stroke-miterlimit="10" stroke-width=".25"/>
    <path d="M123.34,623.58c-1.22,0-2.29-.44-3.21-1.33-.98-.94-1.47-2.15-1.47-3.64,0-1.41.43-2.59,1.29-3.53.89-.96,1.98-1.44,3.28-1.44s2.38.48,3.26,1.44c.87.95,1.31,2.12,1.31,3.51,0,1.47-.47,2.68-1.42,3.64-.88.9-1.89,1.35-3.05,1.35ZM123.22,622.41c.85,0,1.61-.36,2.27-1.07.64-.72.96-1.64.96-2.75s-.34-2.08-1.03-2.81c-.63-.66-1.35-.99-2.18-.99s-1.58.34-2.18,1.03c-.66.76-.99,1.69-.99,2.79s.32,2.04.98,2.79c.6.68,1.33,1.01,2.18,1.01Z" fill="#fff" stroke="#fff" stroke-miterlimit="10" stroke-width=".25"/>
    <path d="M129.25,609.43h1.28v6.12c.3-.47.66-.87,1.08-1.19.65-.49,1.38-.73,2.18-.73.5,0,.94.07,1.34.21.4.14.76.35,1.09.62.7.62,1.05,1.48,1.05,2.59v6.28h-1.29v-6.11c0-.69-.22-1.27-.66-1.74-.44-.47-.97-.71-1.6-.71-.91,0-1.67.36-2.27,1.08-.61.75-.92,1.6-.92,2.56v4.92h-1.28v-13.92Z" fill="#fff" stroke="#fff" stroke-miterlimit="10" stroke-width=".25"/>
    <path d="M138.21,613.85h1.42l3.26,8.02,2.78-8.02h1.4l-3.96,10.6c-.28.76-.65,1.3-1.1,1.62-.4.27-.88.41-1.44.41-.28,0-.52-.02-.71-.06-.19-.04-.37-.1-.55-.17v-1.23c.17.08.35.15.56.21.21.06.39.09.56.09.41,0,.74-.11.97-.32.23-.21.43-.55.61-1.01l.21-.73-4.03-9.41Z" fill="#fff" stroke="#fff" stroke-miterlimit="10" stroke-width=".25"/>
    <path d="M148.32,613.85h1.29v6.05c0,.67.2,1.24.59,1.7.43.53,1.03.8,1.81.8.9,0,1.67-.36,2.31-1.08.66-.76.99-1.59.99-2.5v-4.97h1.28v9.5h-1.12l-.09-1.62c-.19.26-.39.49-.6.7-.21.21-.44.39-.69.54-.66.4-1.39.6-2.18.6-1.09,0-1.96-.34-2.61-1.01-.65-.69-.98-1.52-.98-2.5v-6.21Z" fill="#fff" stroke="#fff" stroke-miterlimit="10" stroke-width=".25"/>
    <path d="M166.48,617v6.35h-1.28v-6.27c0-.66-.24-1.21-.73-1.63-.48-.44-1.06-.66-1.74-.66-.9,0-1.67.37-2.32,1.12-.65.76-.98,1.61-.98,2.56v4.88h-1.21v-9.5h1.12l.05,1.78c.32-.48.69-.89,1.12-1.21.7-.52,1.48-.78,2.36-.78,1.02,0,1.87.31,2.55.92.7.6,1.05,1.41,1.05,2.43Z" fill="#fff" stroke="#fff" stroke-miterlimit="10" stroke-width=".25"/>
    <path d="M97.31,625.05h1.4v6.96l6.79-6.96h1.86l-5.45,5.49,5.85,8.43h-1.83l-5.14-7.37-2.09,2.1v5.27h-1.4v-13.92Z" fill="#fff" stroke="#fff" stroke-miterlimit="10" stroke-width=".25"/>
    <path d="M109.3,625.46c.25,0,.45.08.62.25.17.17.25.4.25.71s-.08.54-.23.71c-.15.17-.37.25-.64.25s-.48-.09-.63-.28-.22-.41-.22-.66c0-.39.09-.65.27-.78.18-.13.37-.2.59-.2ZM108.68,629.47h1.28v9.5h-1.28v-9.5Z" fill="#fff" stroke="#fff" stroke-miterlimit="10" stroke-width=".25"/>
    <path d="M125.72,632.88v6.09h-1.29v-6.39c0-.68-.23-1.22-.69-1.63-.39-.35-.85-.53-1.38-.53-.79,0-1.5.37-2.13,1.1-.62.72-.92,1.62-.92,2.68v4.78h-1.29v-6.39c0-.64-.22-1.15-.66-1.54-.41-.41-.89-.62-1.42-.62-.77,0-1.45.34-2.06,1.03-.66.76-.99,1.69-.99,2.81v4.72h-1.29v-9.5h1.21l.05,1.51c.34-.56.83-.99,1.47-1.31.57-.27,1.14-.41,1.72-.41.9,0,1.66.26,2.27.78.45.39.73.78.85,1.17.24-.44.57-.83,1.01-1.19.69-.51,1.44-.76,2.27-.76,1,0,1.78.3,2.34.9.63.69.94,1.59.94,2.72Z" fill="#fff" stroke="#fff" stroke-miterlimit="10" stroke-width=".25"/>
  </g>
  <g>
    <path d="M130.33,575.96v-13.92h1.83l5.39,11.52,5.57-11.52h1.72v13.92h-1.26v-12.09l-5.73,12.09h-.6l-5.64-12.07v12.07h-1.28Z" fill="#fff" stroke="#fff" stroke-miterlimit="10" stroke-width=".25"/>
    <path d="M147.02,562.45c.25,0,.45.08.62.25.17.17.25.4.25.71s-.08.54-.23.71c-.15.17-.37.25-.64.25s-.48-.09-.63-.28-.22-.41-.22-.66c0-.39.09-.65.27-.78.18-.13.37-.2.59-.2ZM146.4,566.46h1.28v9.5h-1.28v-9.5Z" fill="#fff" stroke="#fff" stroke-miterlimit="10" stroke-width=".25"/>
    <path d="M157.55,569.61v6.35h-1.28v-6.27c0-.66-.24-1.21-.73-1.63-.48-.44-1.06-.66-1.74-.66-.9,0-1.67.37-2.32,1.12-.65.76-.98,1.61-.98,2.56v4.88h-1.21v-9.5h1.12l.05,1.78c.32-.48.69-.89,1.12-1.21.7-.52,1.48-.78,2.36-.78,1.02,0,1.87.31,2.55.92.7.6,1.05,1.41,1.05,2.43Z" fill="#fff" stroke="#fff" stroke-miterlimit="10" stroke-width=".25"/>
    <path d="M159.04,575.15v-1.54c.73.59,1.48,1.01,2.23,1.24.22.06.44.1.66.13s.43.04.66.04c.72,0,1.32-.17,1.79-.5.48-.35.73-.75.73-1.19,0-.24-.09-.48-.27-.73-.25-.31-.91-.59-1.99-.83-1.28-.32-2.13-.59-2.55-.8-.83-.47-1.24-1.14-1.24-1.99,0-.79.34-1.44,1.03-1.95.7-.52,1.57-.78,2.61-.78.47,0,.9.04,1.28.12.38.08.73.19,1.06.33s.64.31.92.51v1.54c-.5-.41-1.02-.74-1.56-.99-.54-.24-1.12-.36-1.72-.36s-1.12.14-1.56.41c-.45.27-.67.63-.67,1.07,0,.58.53,1.04,1.6,1.38.5.14.99.28,1.47.43.48.14.98.28,1.47.43,1.08.46,1.61,1.16,1.61,2.09,0,.79-.37,1.49-1.12,2.09-.76.59-1.7.89-2.82.89-.5,0-.98-.05-1.45-.16-.76-.17-1.48-.46-2.16-.89Z" fill="#fff" stroke="#fff" stroke-miterlimit="10" stroke-width=".25"/>
    <path d="M176.35,570.83h-7.22c0,1.36.32,2.4.95,3.12.63.72,1.46,1.07,2.49,1.07.78,0,1.53-.25,2.25-.75.2-.13.41-.29.64-.49s.47-.42.73-.68v1.54c-.28.21-.55.4-.79.56-.24.16-.47.29-.68.4-.74.39-1.49.59-2.23.59-1.29,0-2.38-.44-3.28-1.33-.97-.94-1.45-2.15-1.45-3.64,0-1.41.44-2.59,1.31-3.53.89-.96,1.98-1.44,3.28-1.44s2.27.46,3.02,1.38c.66.84.99,1.91.99,3.19ZM169.31,569.75h5.55c-.14-.8-.45-1.41-.91-1.8s-1.03-.59-1.69-.59c-.73,0-1.35.23-1.86.69-.47.43-.83.99-1.08,1.7Z" fill="#fff" stroke="#fff" stroke-miterlimit="10" stroke-width=".25"/>
    <path d="M182.19,576.19c-1.22,0-2.29-.44-3.21-1.33-.98-.94-1.47-2.15-1.47-3.64,0-1.41.43-2.59,1.29-3.53.89-.96,1.98-1.44,3.28-1.44s2.38.48,3.26,1.44c.87.95,1.31,2.12,1.31,3.51,0,1.47-.47,2.68-1.42,3.64-.88.9-1.89,1.35-3.05,1.35ZM182.06,575.02c.85,0,1.61-.36,2.27-1.07.64-.72.96-1.64.96-2.75s-.34-2.08-1.03-2.81c-.63-.66-1.35-.99-2.18-.99s-1.58.34-2.18,1.03c-.66.76-.99,1.69-.99,2.79s.32,2.04.98,2.79c.6.68,1.33,1.01,2.18,1.01Z" fill="#fff" stroke="#fff" stroke-miterlimit="10" stroke-width=".25"/>
    <path d="M204.36,563.14v1.79c-.44-.43-.94-.79-1.51-1.1-.89-.47-1.78-.71-2.68-.71-1.38,0-2.57.59-3.57,1.76-.5.58-.87,1.21-1.11,1.9-.24.69-.36,1.42-.36,2.2,0,1.6.5,2.97,1.49,4.12.98,1.15,2.18,1.72,3.58,1.72.66,0,1.34-.13,2.03-.4.69-.27,1.4-.68,2.12-1.23v1.72c-1.58.85-3.02,1.28-4.31,1.28-1.67,0-3.13-.64-4.38-1.93-1.35-1.38-2.02-3.12-2.02-5.2s.63-3.73,1.88-5.13c1.28-1.41,2.86-2.11,4.74-2.11.73,0,1.44.11,2.11.34s1.34.56,1.99.99Z" fill="#fff" stroke="#fff" stroke-miterlimit="10" stroke-width=".25"/>
    <path d="M205.92,562.04h1.28v6.12c.3-.47.66-.87,1.08-1.19.65-.49,1.38-.73,2.18-.73.5,0,.94.07,1.34.21.4.14.76.35,1.09.62.7.62,1.05,1.48,1.05,2.59v6.28h-1.29v-6.11c0-.69-.22-1.27-.66-1.74-.44-.47-.97-.71-1.6-.71-.91,0-1.67.36-2.27,1.08-.61.75-.92,1.6-.92,2.56v4.92h-1.28v-13.92Z" fill="#fff" stroke="#fff" stroke-miterlimit="10" stroke-width=".25"/>
    <path d="M222.56,569.82v4.47c0,.2.04.38.13.52.09.15.25.22.49.22.07,0,.13,0,.18,0,.05,0,.09-.01.14-.03.07-.02.13-.05.19-.07.05-.02.1-.04.13-.05v.99c-.21.07-.43.12-.64.15-.21.03-.38.04-.5.04-.6,0-1-.16-1.19-.48-.15-.2-.23-.63-.23-1.3-.15.26-.31.49-.46.68-.15.2-.31.36-.46.49-.62.49-1.33.73-2.15.73-.86,0-1.61-.25-2.25-.76-.66-.54-.99-1.24-.99-2.08,0-1.05.53-1.83,1.6-2.33.39-.19.91-.35,1.55-.5.64-.14,1.42-.27,2.31-.39l.85-.09c0-.83-.21-1.48-.63-1.94-.42-.47-1.04-.7-1.85-.7-.31,0-.61.04-.91.11-.3.08-.61.2-.91.36-.17.09-.35.21-.55.34-.2.13-.42.3-.66.5v-1.46c1.01-.68,2.09-1.01,3.25-1.01s2.09.37,2.73,1.12c.56.65.83,1.47.83,2.45ZM221.26,571.68v-.57l-.6.07c-1.48.15-2.52.36-3.12.62-.8.32-1.21.84-1.21,1.56,0,.21.05.42.14.61.09.2.22.37.39.52.17.15.37.28.61.37.24.09.51.14.81.14.8,0,1.51-.33,2.11-.98.58-.66.87-1.45.87-2.36Z" fill="#fff" stroke="#fff" stroke-miterlimit="10" stroke-width=".25"/>
  </g>
  <g>
    <path d="M277.6,509.27h3.33c1.23,0,2.26.15,3.09.46.34.13.67.29.98.49s.6.43.87.7c.65.65,1.15,1.43,1.49,2.34.34.91.51,1.86.51,2.86,0,2.21-.63,3.95-1.9,5.22-1.28,1.24-3.03,1.86-5.25,1.86h-3.12v-13.94ZM280.38,510.5h-1.38v11.49h2.29c1.34,0,2.47-.46,3.39-1.38,1.08-1.08,1.61-2.57,1.61-4.49,0-.38-.02-.73-.06-1.06-.04-.33-.1-.65-.19-.96-.26-.9-.72-1.67-1.38-2.31-.48-.46-1.05-.79-1.68-.99-.62-.19-1.48-.28-2.59-.28Z" fill="#fff" stroke="#fff" stroke-miterlimit="10" stroke-width=".25"/>
    <path d="M296.93,517.06v4.47c0,.2.04.38.13.52.09.15.25.22.49.22.07,0,.13,0,.18,0,.05,0,.09-.01.14-.03.07-.02.13-.05.19-.07.05-.02.1-.04.13-.05v.99c-.21.07-.43.12-.64.15-.21.03-.38.04-.5.04-.6,0-1-.16-1.19-.48-.15-.2-.23-.63-.23-1.3-.15.26-.31.49-.46.68-.15.2-.31.36-.46.49-.62.49-1.33.73-2.15.73-.86,0-1.61-.25-2.25-.76-.66-.54-.99-1.24-.99-2.08,0-1.05.53-1.83,1.6-2.33.39-.19.91-.35,1.55-.5.64-.14,1.42-.27,2.31-.39l.85-.09c0-.83-.21-1.48-.63-1.94-.42-.47-1.04-.7-1.85-.7-.31,0-.61.04-.91.11-.3.08-.61.2-.91.36-.17.09-.35.21-.55.34-.2.13-.42.3-.66.5v-1.46c1.01-.68,2.09-1.01,3.25-1.01s2.09.37,2.73,1.12c.56.65.83,1.47.83,2.45ZM295.64,518.93v-.57l-.6.07c-1.48.15-2.52.36-3.12.62-.8.32-1.21.84-1.21,1.56,0,.21.05.42.14.61.09.2.22.37.39.52.17.15.37.28.61.37.24.09.51.14.81.14.8,0,1.51-.33,2.11-.98.58-.66.87-1.45.87-2.36Z" fill="#fff" stroke="#fff" stroke-miterlimit="10" stroke-width=".25"/>
    <path d="M299.57,509.29h1.28v6.12c.3-.47.66-.87,1.08-1.19.65-.49,1.38-.73,2.18-.73.5,0,.94.07,1.34.21.4.14.76.35,1.09.62.7.62,1.05,1.48,1.05,2.59v6.28h-1.29v-6.11c0-.69-.22-1.27-.66-1.74-.44-.47-.97-.71-1.6-.71-.91,0-1.67.36-2.27,1.08-.61.75-.92,1.6-.92,2.56v4.92h-1.28v-13.92Z" fill="#fff" stroke="#fff" stroke-miterlimit="10" stroke-width=".25"/>
    <path d="M308.53,513.71h1.42l3.26,8.02,2.78-8.02h1.4l-3.96,10.6c-.28.76-.65,1.3-1.1,1.62-.4.27-.88.41-1.44.41-.28,0-.52-.02-.71-.06-.19-.04-.37-.1-.55-.17v-1.23c.17.08.35.15.56.21.21.06.39.09.56.09.41,0,.74-.11.97-.32.23-.21.43-.55.61-1.01l.21-.73-4.03-9.41Z" fill="#fff" stroke="#fff" stroke-miterlimit="10" stroke-width=".25"/>
    <path d="M327.05,518.08h-7.22c0,1.36.32,2.4.95,3.12.63.72,1.46,1.07,2.49,1.07.78,0,1.53-.25,2.25-.75.2-.13.41-.29.64-.49s.47-.42.73-.68v1.54c-.28.21-.55.4-.79.56-.24.16-.47.29-.68.4-.74.39-1.49.59-2.23.59-1.29,0-2.38-.44-3.28-1.33-.97-.94-1.45-2.15-1.45-3.64,0-1.41.44-2.59,1.31-3.53.89-.96,1.98-1.44,3.28-1.44s2.27.46,3.02,1.38c.66.84.99,1.91.99,3.19ZM320,516.99h5.55c-.14-.8-.45-1.41-.91-1.8s-1.03-.59-1.69-.59c-.73,0-1.35.23-1.86.69-.47.43-.83.99-1.08,1.7Z" fill="#fff" stroke="#fff" stroke-miterlimit="10" stroke-width=".25"/>
    <path d="M349.86,509.29h1.38l-4.08,13.92h-1.35l-3.44-12.12-3.32,12.12h-1.35l-4.19-13.92h1.45l3.42,11.84,3.28-11.84h1.35l3.46,11.84,3.37-11.84Z" fill="#fff" stroke="#fff" stroke-miterlimit="10" stroke-width=".25"/>
    <path d="M356.7,523.44c-1.22,0-2.29-.44-3.21-1.33-.98-.94-1.47-2.15-1.47-3.64,0-1.41.43-2.59,1.29-3.53.89-.96,1.98-1.44,3.28-1.44s2.38.48,3.26,1.44c.87.95,1.31,2.12,1.31,3.51,0,1.47-.47,2.68-1.42,3.64-.88.9-1.89,1.35-3.05,1.35ZM356.58,522.27c.85,0,1.61-.36,2.27-1.07.64-.72.96-1.64.96-2.75s-.34-2.08-1.03-2.81c-.63-.66-1.35-.99-2.18-.99s-1.58.34-2.18,1.03c-.66.76-.99,1.69-.99,2.79s.32,2.04.98,2.79c.6.68,1.33,1.01,2.18,1.01Z" fill="#fff" stroke="#fff" stroke-miterlimit="10" stroke-width=".25"/>
    <path d="M370.85,516.85v6.35h-1.28v-6.27c0-.66-.24-1.21-.73-1.63-.48-.44-1.06-.66-1.74-.66-.9,0-1.67.37-2.32,1.12-.65.76-.98,1.61-.98,2.56v4.88h-1.21v-9.5h1.12l.05,1.78c.32-.48.69-.89,1.12-1.21.7-.52,1.48-.78,2.36-.78,1.02,0,1.87.31,2.55.92.7.6,1.05,1.41,1.05,2.43Z" fill="#fff" stroke="#fff" stroke-miterlimit="10" stroke-width=".25"/>
    <path d="M273.54,543.32c.76,0,1.4-.23,1.93-.69.54-.48.82-1.05.82-1.7v-10.33h1.38v10.39c0,.93-.41,1.78-1.24,2.54-.82.75-1.75,1.12-2.8,1.12-.77,0-1.58-.15-2.43-.46-.2-.06-.43-.15-.67-.27-.25-.13-.53-.27-.83-.44v-1.62c.31.2.61.38.9.55s.58.31.88.44c.74.32,1.44.48,2.08.48Z" fill="#fff" stroke="#fff" stroke-miterlimit="10" stroke-width=".25"/>
    <path d="M287.85,539.38h-7.22c0,1.36.32,2.4.95,3.12.63.72,1.46,1.07,2.49,1.07.78,0,1.53-.25,2.25-.75.2-.13.41-.29.64-.49s.47-.42.73-.68v1.54c-.28.21-.55.4-.79.56-.24.16-.47.29-.68.4-.74.39-1.49.59-2.23.59-1.29,0-2.38-.44-3.28-1.33-.97-.94-1.45-2.15-1.45-3.64,0-1.41.44-2.59,1.31-3.53.89-.96,1.98-1.44,3.28-1.44s2.27.46,3.02,1.38c.66.84.99,1.91.99,3.19ZM280.81,538.3h5.55c-.14-.8-.45-1.41-.91-1.8s-1.03-.59-1.69-.59c-.73,0-1.35.23-1.86.69-.47.43-.83.99-1.08,1.7Z" fill="#fff" stroke="#fff" stroke-miterlimit="10" stroke-width=".25"/>
    <path d="M293.68,544.74c-1.22,0-2.29-.44-3.21-1.33-.98-.94-1.47-2.15-1.47-3.64,0-1.41.43-2.59,1.29-3.53.89-.96,1.98-1.44,3.28-1.44s2.38.48,3.26,1.44c.87.95,1.31,2.12,1.31,3.51,0,1.47-.47,2.68-1.42,3.64-.88.9-1.89,1.35-3.05,1.35ZM293.56,543.57c.85,0,1.61-.36,2.27-1.07.64-.72.96-1.64.96-2.75s-.34-2.08-1.03-2.81c-.63-.66-1.35-.99-2.18-.99s-1.58.34-2.18,1.03c-.66.76-.99,1.69-.99,2.79s.32,2.04.98,2.79c.6.68,1.33,1.01,2.18,1.01Z" fill="#fff" stroke="#fff" stroke-miterlimit="10" stroke-width=".25"/>
    <path d="M307.84,538.15v6.35h-1.28v-6.27c0-.66-.24-1.21-.73-1.63-.48-.44-1.06-.66-1.74-.66-.9,0-1.67.37-2.32,1.12-.65.76-.98,1.61-.98,2.56v4.88h-1.21v-9.5h1.12l.05,1.78c.32-.48.69-.89,1.12-1.21.7-.52,1.48-.78,2.36-.78,1.02,0,1.87.31,2.55.92.7.6,1.05,1.41,1.05,2.43Z" fill="#fff" stroke="#fff" stroke-miterlimit="10" stroke-width=".25"/>
    <path d="M316.53,536.08l.35-1.07h.94v8.59c0,1.48-.36,2.6-1.08,3.37-.72.77-1.84,1.15-3.35,1.15-.62,0-1.2-.11-1.75-.33-.55-.22-1.13-.56-1.73-1.02v-1.56c.38.36.75.65,1.12.9s.73.43,1.08.56c.41.15.84.23,1.28.23.93,0,1.66-.21,2.18-.64.64-.52.96-1.35.96-2.5v-1.17c-.45.75-1.01,1.27-1.67,1.58-.45.21-.95.32-1.49.32-1.17,0-2.15-.47-2.94-1.4-.78-.96-1.17-2.07-1.17-3.32s.37-2.36,1.1-3.32c.85-1.1,1.94-1.65,3.26-1.65.66,0,1.29.16,1.88.48.18.11.35.22.52.35.17.13.34.28.51.44ZM316.53,539.91v-2.61c-.2-.22-.41-.41-.61-.57s-.41-.29-.61-.41c-.24-.13-.48-.22-.73-.28-.25-.06-.5-.09-.76-.09-.89,0-1.62.31-2.2.94-.65.71-.98,1.65-.98,2.8,0,1.05.27,1.92.82,2.61.53.67,1.22,1.01,2.08,1.01s1.55-.33,2.13-.98c.58-.63.87-1.44.87-2.43Z" fill="#fff" stroke="#fff" stroke-miterlimit="10" stroke-width=".25"/>
    <path d="M319.47,530.59h1.29v6.02c.17-.25.33-.46.49-.64s.32-.33.49-.46c.61-.47,1.33-.71,2.15-.71,1.23,0,2.24.47,3.03,1.4.82.95,1.22,2.09,1.22,3.44s-.41,2.56-1.22,3.53c-.87,1.04-1.97,1.56-3.28,1.56-.72,0-1.35-.16-1.88-.48-.34-.19-.67-.46-.99-.82l-.34,1.07h-.96v-13.92ZM320.77,539.34v2.75c.17.2.33.38.5.53.17.15.32.28.46.39.52.37,1.11.55,1.77.55.91,0,1.66-.37,2.25-1.12.59-.77.89-1.7.89-2.79s-.33-2.07-.99-2.79c-.57-.62-1.22-.92-1.97-.92-.8,0-1.5.34-2.08,1.03-.56.66-.83,1.45-.83,2.36Z" fill="#fff" stroke="#fff" stroke-miterlimit="10" stroke-width=".25"/>
    <path d="M329.97,531c.25,0,.45.08.62.25.17.17.25.4.25.71s-.08.54-.23.71c-.15.17-.37.25-.64.25s-.48-.09-.63-.28-.22-.41-.22-.66c0-.39.09-.65.27-.78.18-.13.37-.2.59-.2ZM329.35,535.01h1.28v9.5h-1.28v-9.5Z" fill="#fff" stroke="#fff" stroke-miterlimit="10" stroke-width=".25"/>
    <path d="M340.51,538.15v6.35h-1.28v-6.27c0-.66-.24-1.21-.73-1.63-.48-.44-1.06-.66-1.74-.66-.9,0-1.67.37-2.32,1.12-.65.76-.98,1.61-.98,2.56v4.88h-1.21v-9.5h1.12l.05,1.78c.32-.48.69-.89,1.12-1.21.7-.52,1.48-.78,2.36-.78,1.02,0,1.87.31,2.55.92.7.6,1.05,1.41,1.05,2.43Z" fill="#fff" stroke="#fff" stroke-miterlimit="10" stroke-width=".25"/>
    <path d="M352.83,530.59h1.37l5.18,13.92h-1.63l-1.67-4.76h-5.29l-1.74,4.76h-1.54l5.32-13.92ZM355.69,538.53l-2.15-6.27-2.32,6.27h4.47Z" fill="#fff" stroke="#fff" stroke-miterlimit="10" stroke-width=".25"/>
    <path d="M360.73,530.59h1.28v6.12c.3-.47.66-.87,1.08-1.19.65-.49,1.38-.73,2.18-.73.5,0,.94.07,1.34.21.4.14.76.35,1.09.62.7.62,1.05,1.48,1.05,2.59v6.28h-1.29v-6.11c0-.69-.22-1.27-.66-1.74-.44-.47-.97-.71-1.6-.71-.91,0-1.67.36-2.27,1.08-.61.75-.92,1.6-.92,2.56v4.92h-1.28v-13.92Z" fill="#fff" stroke="#fff" stroke-miterlimit="10" stroke-width=".25"/>
    <path d="M378.23,538.15v6.35h-1.28v-6.27c0-.66-.24-1.21-.73-1.63-.48-.44-1.06-.66-1.74-.66-.9,0-1.67.37-2.32,1.12-.65.76-.98,1.61-.98,2.56v4.88h-1.21v-9.5h1.12l.05,1.78c.32-.48.69-.89,1.12-1.21.7-.52,1.48-.78,2.36-.78,1.02,0,1.87.31,2.55.92.7.6,1.05,1.41,1.05,2.43Z" fill="#fff" stroke="#fff" stroke-miterlimit="10" stroke-width=".25"/>
  </g>
  <g>
    <path d="M274.51,395.96v1.85c-.65-.58-1.28-1.01-1.88-1.3-.71-.35-1.44-.53-2.18-.53-1.5,0-2.75.62-3.74,1.86-.95,1.14-1.42,2.5-1.42,4.08s.51,3.01,1.53,4.19c.96,1.08,2.04,1.62,3.25,1.62.96,0,1.76-.31,2.41-.92.71-.67,1.06-1.56,1.06-2.66v-1.07h-4.58v-1.22h5.99v6.96h-1.22l-.2-1.69c-.41.52-.86.93-1.33,1.22-.73.46-1.54.69-2.41.69-1.6,0-2.99-.68-4.17-2.04-1.22-1.37-1.83-3.05-1.83-5.04s.63-3.77,1.9-5.18c1.27-1.41,2.84-2.11,4.74-2.11.83,0,1.64.15,2.43.46.41.15.96.43,1.65.83Z" fill="#fff" stroke="#fff" stroke-miterlimit="10" stroke-width=".25"/>
    <path d="M284.43,402.67v4.47c0,.2.04.38.13.52.09.15.25.22.49.22.07,0,.13,0,.18,0,.05,0,.09-.01.14-.03.07-.02.13-.05.19-.07s.1-.04.13-.05v.99c-.21.07-.43.12-.64.15-.21.03-.38.04-.5.04-.6,0-1-.16-1.19-.48-.15-.2-.23-.63-.23-1.3-.15.26-.31.49-.46.68-.15.2-.31.36-.46.49-.62.49-1.33.73-2.15.73-.86,0-1.61-.25-2.25-.76-.66-.54-.99-1.24-.99-2.08,0-1.05.53-1.83,1.6-2.33.39-.19.91-.36,1.55-.5.64-.14,1.42-.27,2.31-.39l.85-.09c0-.83-.21-1.48-.63-1.94-.42-.47-1.04-.7-1.85-.7-.31,0-.61.04-.91.12-.3.08-.61.2-.91.36-.17.1-.35.21-.55.34-.2.13-.42.3-.66.5v-1.46c1.01-.67,2.09-1.01,3.25-1.01s2.09.37,2.73,1.12c.56.65.83,1.47.83,2.45ZM283.13,404.54v-.57l-.6.07c-1.48.15-2.52.36-3.12.62-.8.32-1.21.84-1.21,1.56,0,.21.05.42.14.61.09.2.22.37.39.52.17.15.37.28.61.37.24.1.51.14.81.14.8,0,1.51-.33,2.11-.98.58-.66.87-1.45.87-2.36Z" fill="#fff" stroke="#fff" stroke-miterlimit="10" stroke-width=".25"/>
    <path d="M295.41,403.68h-7.22c0,1.36.32,2.4.95,3.12s1.46,1.07,2.49,1.07c.78,0,1.53-.25,2.25-.75.2-.13.41-.29.64-.49.22-.2.47-.42.73-.68v1.54c-.28.21-.55.4-.79.56-.24.16-.47.29-.68.4-.74.39-1.49.59-2.23.59-1.29,0-2.38-.44-3.28-1.33-.97-.93-1.45-2.15-1.45-3.64,0-1.41.44-2.59,1.31-3.53.89-.96,1.98-1.44,3.28-1.44s2.27.46,3.02,1.38c.66.84.99,1.91.99,3.2ZM288.36,402.6h5.55c-.14-.8-.45-1.41-.91-1.8s-1.03-.59-1.69-.59c-.73,0-1.35.23-1.86.69-.47.43-.83.99-1.08,1.7Z" fill="#fff" stroke="#fff" stroke-miterlimit="10" stroke-width=".25"/>
    <path d="M296.74,399.32h1.29v6.05c0,.67.2,1.24.59,1.7.43.53,1.03.8,1.81.8.9,0,1.67-.36,2.31-1.08.66-.76.99-1.59.99-2.5v-4.97h1.28v9.5h-1.12l-.09-1.62c-.19.26-.39.49-.6.7-.21.21-.44.39-.69.54-.66.4-1.39.6-2.18.6-1.09,0-1.96-.34-2.61-1.01-.65-.69-.98-1.52-.98-2.5v-6.21Z" fill="#fff" stroke="#fff" stroke-miterlimit="10" stroke-width=".25"/>
    <path d="M314.9,402.46v6.36h-1.28v-6.27c0-.66-.24-1.21-.73-1.63-.48-.44-1.06-.66-1.74-.66-.9,0-1.67.37-2.32,1.12-.65.76-.98,1.61-.98,2.56v4.88h-1.21v-9.5h1.12l.05,1.78c.32-.48.69-.89,1.12-1.21.7-.52,1.48-.78,2.36-.78,1.02,0,1.87.31,2.55.92.7.6,1.05,1.41,1.05,2.43Z" fill="#fff" stroke="#fff" stroke-miterlimit="10" stroke-width=".25"/>
    <path d="M275.7,410.51h1.4v12.69h6.86v1.22h-8.27v-13.92Z" fill="#fff" stroke="#fff" stroke-miterlimit="10" stroke-width=".25"/>
    <path d="M293.7,419.3h-7.22c0,1.36.32,2.4.95,3.12s1.46,1.07,2.49,1.07c.78,0,1.53-.25,2.25-.75.2-.13.41-.29.64-.49.22-.2.47-.42.73-.68v1.54c-.28.21-.55.4-.79.56-.24.16-.47.29-.68.4-.74.39-1.49.59-2.23.59-1.29,0-2.38-.44-3.28-1.33-.97-.93-1.45-2.15-1.45-3.64,0-1.41.44-2.59,1.31-3.53.89-.96,1.98-1.44,3.28-1.44s2.27.46,3.02,1.38c.66.84.99,1.91.99,3.2ZM286.66,418.22h5.55c-.14-.8-.45-1.41-.91-1.8s-1.03-.59-1.69-.59c-.73,0-1.35.23-1.86.69-.47.43-.83.99-1.08,1.7Z" fill="#fff" stroke="#fff" stroke-miterlimit="10" stroke-width=".25"/>
    <path d="M303.44,419.3h-7.22c0,1.36.32,2.4.95,3.12s1.46,1.07,2.49,1.07c.78,0,1.53-.25,2.25-.75.2-.13.41-.29.64-.49.22-.2.47-.42.73-.68v1.54c-.28.21-.55.4-.79.56-.24.16-.47.29-.68.4-.74.39-1.49.59-2.23.59-1.29,0-2.38-.44-3.28-1.33-.97-.93-1.45-2.15-1.45-3.64,0-1.41.44-2.59,1.31-3.53.89-.96,1.98-1.44,3.28-1.44s2.27.46,3.02,1.38c.66.84.99,1.91.99,3.2ZM296.4,418.22h5.55c-.14-.8-.45-1.41-.91-1.8s-1.03-.59-1.69-.59c-.73,0-1.35.23-1.86.69-.47.43-.83.99-1.08,1.7Z" fill="#fff" stroke="#fff" stroke-miterlimit="10" stroke-width=".25"/>
  </g>
  <g>
    <path d="M381.82,393.86v-13.92h1.83l5.39,11.52,5.57-11.52h1.72v13.92h-1.26v-12.09l-5.73,12.09h-.6l-5.64-12.07v12.07h-1.28Z" fill="#fff" stroke="#fff" stroke-miterlimit="10" stroke-width=".25"/>
    <path d="M398.51,380.35c.25,0,.45.08.62.25.17.17.25.4.25.71s-.08.54-.23.71c-.15.17-.37.25-.64.25s-.48-.09-.63-.28c-.15-.19-.22-.41-.22-.66,0-.39.09-.65.27-.78s.37-.2.59-.2ZM397.89,384.36h1.28v9.5h-1.28v-9.5Z" fill="#fff" stroke="#fff" stroke-miterlimit="10" stroke-width=".25"/>
    <path d="M409.04,387.5v6.36h-1.28v-6.27c0-.66-.24-1.21-.73-1.63-.48-.44-1.06-.66-1.74-.66-.9,0-1.67.37-2.32,1.12-.65.76-.98,1.61-.98,2.56v4.88h-1.21v-9.5h1.12l.05,1.78c.32-.48.69-.89,1.12-1.21.7-.52,1.48-.78,2.36-.78,1.02,0,1.87.31,2.55.92.7.6,1.05,1.41,1.05,2.43Z" fill="#fff" stroke="#fff" stroke-miterlimit="10" stroke-width=".25"/>
    <path d="M412.56,384.36h1.28v10.21c0,.91-.26,1.58-.78,2.01-.44.38-1,.57-1.68.57-.32,0-.59-.03-.8-.09-.21-.06-.43-.14-.64-.25v-1.17c.21.11.42.19.63.26s.41.1.61.1c.45,0,.79-.13,1.03-.4.24-.27.35-.63.35-1.09v-10.14ZM413.11,380.35c.25,0,.45.08.62.25.17.17.25.4.25.71s-.08.54-.23.71c-.15.17-.37.25-.64.25s-.48-.09-.63-.28c-.15-.19-.22-.41-.22-.66,0-.39.09-.65.27-.78.18-.13.37-.2.59-.2Z" fill="#fff" stroke="#fff" stroke-miterlimit="10" stroke-width=".25"/>
    <path d="M415.54,384.36h1.29v6.05c0,.67.2,1.24.59,1.7.43.53,1.03.8,1.81.8.9,0,1.67-.36,2.31-1.08.66-.76.99-1.59.99-2.5v-4.97h1.28v9.5h-1.12l-.09-1.62c-.19.26-.39.49-.6.7-.21.21-.44.39-.69.54-.66.4-1.39.6-2.18.6-1.09,0-1.96-.34-2.61-1.01-.65-.69-.98-1.52-.98-2.5v-6.21Z" fill="#fff" stroke="#fff" stroke-miterlimit="10" stroke-width=".25"/>
    <path d="M431.13,379.94h1.29v8.61l4.36-4.19h1.81l-3.99,3.69,4.56,5.8h-1.76l-3.76-4.95-1.22,1.14v3.82h-1.29v-13.92Z" fill="#fff" stroke="#fff" stroke-miterlimit="10" stroke-width=".25"/>
    <path d="M440.77,380.35c.25,0,.45.08.62.25.17.17.25.4.25.71s-.08.54-.23.71c-.15.17-.37.25-.64.25s-.48-.09-.63-.28c-.15-.19-.22-.41-.22-.66,0-.39.09-.65.27-.78s.37-.2.59-.2ZM440.15,384.36h1.28v9.5h-1.28v-9.5Z" fill="#fff" stroke="#fff" stroke-miterlimit="10" stroke-width=".25"/>
    <path d="M457.2,387.77v6.09h-1.29v-6.39c0-.67-.23-1.22-.69-1.63-.39-.36-.85-.53-1.38-.53-.79,0-1.5.37-2.13,1.1-.62.72-.92,1.62-.92,2.68v4.78h-1.29v-6.39c0-.64-.22-1.15-.66-1.54-.41-.41-.89-.62-1.42-.62-.77,0-1.45.34-2.06,1.03-.66.76-.99,1.69-.99,2.81v4.72h-1.29v-9.5h1.21l.05,1.51c.34-.56.83-.99,1.47-1.31.57-.27,1.14-.41,1.72-.41.9,0,1.66.26,2.27.78.45.39.73.78.85,1.17.24-.44.57-.83,1.01-1.19.69-.51,1.44-.76,2.27-.76,1,0,1.78.3,2.34.91.63.69.94,1.59.94,2.72Z" fill="#fff" stroke="#fff" stroke-miterlimit="10" stroke-width=".25"/>
  </g>
  <g>
    <path d="M376.09,449.94h8.66v1.22h-7.25v4.81h6.99v1.23h-6.99v5.45h7.31v1.22h-8.71v-13.94Z" fill="#fff" stroke="#fff" stroke-miterlimit="10" stroke-width=".25"/>
    <path d="M386.31,454.38h1.29v6.05c0,.67.2,1.24.59,1.7.43.53,1.03.8,1.81.8.9,0,1.67-.36,2.31-1.08.66-.76.99-1.59.99-2.5v-4.97h1.28v9.5h-1.12l-.09-1.62c-.19.26-.39.49-.6.7-.21.21-.44.39-.69.54-.66.4-1.39.6-2.18.6-1.09,0-1.96-.34-2.61-1.01-.65-.69-.98-1.52-.98-2.5v-6.21Z" fill="#fff" stroke="#fff" stroke-miterlimit="10" stroke-width=".25"/>
    <path d="M404.47,457.52v6.36h-1.28v-6.27c0-.66-.24-1.21-.73-1.63-.48-.44-1.06-.66-1.74-.66-.9,0-1.67.37-2.32,1.12-.65.76-.98,1.61-.98,2.56v4.88h-1.21v-9.5h1.12l.05,1.78c.32-.48.69-.89,1.12-1.21.7-.52,1.48-.78,2.36-.78,1.02,0,1.87.31,2.55.92.7.6,1.05,1.41,1.05,2.43Z" fill="#fff" stroke="#fff" stroke-miterlimit="10" stroke-width=".25"/>
    <path d="M406.14,449.96h1.29v8.61l4.36-4.19h1.81l-3.99,3.69,4.56,5.8h-1.76l-3.76-4.95-1.22,1.14v3.82h-1.29v-13.92Z" fill="#fff" stroke="#fff" stroke-miterlimit="10" stroke-width=".25"/>
    <path d="M414.95,454.38h1.42l3.26,8.02,2.78-8.02h1.4l-3.96,10.6c-.28.76-.65,1.3-1.1,1.62-.4.27-.88.41-1.44.41-.28,0-.52-.02-.71-.06-.19-.04-.37-.1-.55-.17v-1.23c.17.08.35.15.56.21.21.06.39.09.56.09.41,0,.74-.11.97-.32.23-.21.43-.55.61-1.01l.21-.73-4.03-9.41Z" fill="#fff" stroke="#fff" stroke-miterlimit="10" stroke-width=".25"/>
    <path d="M433.47,458.74h-7.22c0,1.36.32,2.4.95,3.12s1.46,1.07,2.49,1.07c.78,0,1.53-.25,2.25-.75.2-.13.41-.29.64-.49.22-.2.47-.42.73-.68v1.54c-.28.21-.55.4-.79.56-.24.16-.47.29-.68.4-.74.39-1.49.59-2.23.59-1.29,0-2.38-.44-3.28-1.33-.97-.93-1.45-2.15-1.45-3.64,0-1.41.44-2.59,1.31-3.53.89-.96,1.98-1.44,3.28-1.44s2.27.46,3.02,1.38c.66.84.99,1.91.99,3.2ZM426.43,457.66h5.55c-.14-.8-.45-1.41-.91-1.8s-1.03-.59-1.69-.59c-.73,0-1.35.23-1.86.69-.47.43-.83.99-1.08,1.7Z" fill="#fff" stroke="#fff" stroke-miterlimit="10" stroke-width=".25"/>
    <path d="M439.3,464.11c-1.22,0-2.29-.44-3.21-1.33-.98-.93-1.47-2.15-1.47-3.64,0-1.41.43-2.59,1.29-3.53.89-.96,1.98-1.44,3.28-1.44s2.38.48,3.26,1.44c.87.95,1.31,2.12,1.31,3.51,0,1.47-.47,2.68-1.42,3.64-.88.9-1.89,1.35-3.05,1.35ZM439.18,462.93c.85,0,1.61-.35,2.27-1.07.64-.72.96-1.64.96-2.75s-.34-2.08-1.03-2.8c-.63-.66-1.35-.99-2.18-.99s-1.58.34-2.18,1.03c-.66.76-.99,1.69-.99,2.79s.32,2.04.98,2.79c.6.67,1.33,1.01,2.18,1.01Z" fill="#fff" stroke="#fff" stroke-miterlimit="10" stroke-width=".25"/>
    <path d="M453.46,457.52v6.36h-1.28v-6.27c0-.66-.24-1.21-.73-1.63-.48-.44-1.06-.66-1.74-.66-.9,0-1.67.37-2.32,1.12-.65.76-.98,1.61-.98,2.56v4.88h-1.21v-9.5h1.12l.05,1.78c.32-.48.69-.89,1.12-1.21.7-.52,1.48-.78,2.36-.78,1.02,0,1.87.31,2.55.92.7.6,1.05,1.41,1.05,2.43Z" fill="#fff" stroke="#fff" stroke-miterlimit="10" stroke-width=".25"/>
    <path d="M462.15,455.44l.35-1.07h.94v8.59c0,1.48-.36,2.6-1.08,3.37-.72.77-1.84,1.15-3.35,1.15-.62,0-1.2-.11-1.75-.33s-1.13-.56-1.73-1.02v-1.56c.38.35.75.65,1.12.9s.73.43,1.08.56c.41.15.84.23,1.28.23.93,0,1.66-.21,2.18-.64.64-.52.96-1.36.96-2.5v-1.17c-.45.75-1.01,1.27-1.67,1.58-.45.21-.95.32-1.49.32-1.17,0-2.15-.47-2.94-1.4-.78-.96-1.17-2.07-1.17-3.32s.37-2.36,1.1-3.32c.85-1.1,1.94-1.65,3.26-1.65.66,0,1.29.16,1.88.48.18.11.35.23.52.36s.34.28.51.44ZM462.15,459.28v-2.61c-.2-.22-.41-.41-.61-.57-.21-.15-.41-.29-.61-.41-.24-.13-.48-.22-.73-.28-.25-.06-.5-.09-.76-.09-.89,0-1.62.31-2.2.94-.65.71-.98,1.65-.98,2.8,0,1.05.27,1.92.82,2.61.53.67,1.22,1.01,2.08,1.01s1.55-.33,2.13-.98c.58-.63.87-1.44.87-2.43Z" fill="#fff" stroke="#fff" stroke-miterlimit="10" stroke-width=".25"/>
    <path d="M404.58,471.26h1.38v6.07h7.64v-6.07h1.38v13.92h-1.38v-6.67h-7.64v6.67h-1.38v-13.92Z" fill="#fff" stroke="#fff" stroke-miterlimit="10" stroke-width=".25"/>
    <path d="M424.25,479.03v4.47c0,.2.04.38.13.52.09.15.25.22.49.22.07,0,.13,0,.18,0,.05,0,.09-.01.14-.03.07-.02.13-.05.19-.07s.1-.04.13-.05v.99c-.21.07-.43.12-.64.15-.21.03-.38.04-.5.04-.6,0-1-.16-1.19-.48-.15-.2-.23-.63-.23-1.3-.15.26-.31.49-.46.68-.15.2-.31.36-.46.49-.62.49-1.33.73-2.15.73-.86,0-1.61-.25-2.25-.76-.66-.54-.99-1.24-.99-2.08,0-1.05.53-1.83,1.6-2.33.39-.19.91-.36,1.55-.5.64-.14,1.42-.27,2.31-.39l.85-.09c0-.83-.21-1.48-.63-1.94-.42-.47-1.04-.7-1.85-.7-.31,0-.61.04-.91.12-.3.08-.61.2-.91.36-.17.1-.35.21-.55.34-.2.13-.42.3-.66.5v-1.46c1.01-.67,2.09-1.01,3.25-1.01s2.09.37,2.73,1.12c.56.65.83,1.47.83,2.45ZM422.95,480.9v-.57l-.6.07c-1.48.15-2.52.36-3.12.62-.8.32-1.21.84-1.21,1.56,0,.21.05.42.14.61.09.2.22.37.39.52.17.15.37.28.61.37.24.1.51.14.81.14.8,0,1.51-.33,2.11-.98.58-.66.87-1.45.87-2.36Z" fill="#fff" stroke="#fff" stroke-miterlimit="10" stroke-width=".25"/>
    <path d="M435.14,478.82v6.36h-1.28v-6.27c0-.66-.24-1.21-.73-1.63-.48-.44-1.06-.66-1.74-.66-.9,0-1.67.37-2.32,1.12-.65.76-.98,1.61-.98,2.56v4.88h-1.21v-9.5h1.12l.05,1.78c.32-.48.69-.89,1.12-1.21.7-.52,1.48-.78,2.36-.78,1.02,0,1.87.31,2.55.92.7.6,1.05,1.41,1.05,2.43Z" fill="#fff" stroke="#fff" stroke-miterlimit="10" stroke-width=".25"/>
  </g>
  <g>
    <path d="M393.58,570.97h1.67l4.26,6.41,4.19-6.41h1.74l-5.25,7.63v6.28h-1.38v-6.28l-5.21-7.63Z" fill="#fff" stroke="#fff" stroke-miterlimit="10" stroke-width=".25"/>
    <path d="M414.72,579.75h-7.22c0,1.36.32,2.4.95,3.12.63.72,1.46,1.07,2.49,1.07.78,0,1.53-.25,2.25-.75.2-.13.41-.29.64-.49s.47-.42.73-.68v1.54c-.28.21-.55.4-.79.56-.24.16-.47.29-.68.4-.74.39-1.49.59-2.23.59-1.29,0-2.38-.44-3.28-1.33-.97-.94-1.45-2.15-1.45-3.64,0-1.41.44-2.59,1.31-3.53.89-.96,1.98-1.44,3.28-1.44s2.27.46,3.02,1.38c.66.84.99,1.91.99,3.19ZM407.68,578.67h5.55c-.14-.8-.45-1.41-.91-1.8s-1.03-.59-1.69-.59c-.73,0-1.35.23-1.86.69-.47.43-.83.99-1.08,1.7Z" fill="#fff" stroke="#fff" stroke-miterlimit="10" stroke-width=".25"/>
    <path d="M420.56,585.12c-1.22,0-2.29-.44-3.21-1.33-.98-.94-1.47-2.15-1.47-3.64,0-1.41.43-2.59,1.29-3.53.89-.96,1.98-1.44,3.28-1.44s2.38.48,3.26,1.44c.87.95,1.31,2.12,1.31,3.51,0,1.47-.47,2.68-1.42,3.64-.88.9-1.89,1.35-3.05,1.35ZM420.43,583.94c.85,0,1.61-.36,2.27-1.07.64-.72.96-1.64.96-2.75s-.34-2.08-1.03-2.81c-.63-.66-1.35-.99-2.18-.99s-1.58.34-2.18,1.03c-.66.76-.99,1.69-.99,2.79s.32,2.04.98,2.79c.6.68,1.33,1.01,2.18,1.01Z" fill="#fff" stroke="#fff" stroke-miterlimit="10" stroke-width=".25"/>
    <path d="M434.71,578.53v6.35h-1.28v-6.27c0-.66-.24-1.21-.73-1.63-.48-.44-1.06-.66-1.74-.66-.9,0-1.67.37-2.32,1.12-.65.76-.98,1.61-.98,2.56v4.88h-1.21v-9.5h1.12l.05,1.78c.32-.48.69-.89,1.12-1.21.7-.52,1.48-.78,2.36-.78,1.02,0,1.87.31,2.55.92.7.6,1.05,1.41,1.05,2.43Z" fill="#fff" stroke="#fff" stroke-miterlimit="10" stroke-width=".25"/>
    <path d="M442.34,575.39h1.21l1.47,4.47c.18.58.36,1.18.54,1.8.18.62.34,1.2.47,1.73.04-.12.07-.22.1-.3.03-.08.06-.17.08-.25.13-.45.26-.9.4-1.37s.27-.94.4-1.44l1.45-4.65h1.33l-3.17,9.5h-1.19l-1.68-5.25c-.19-.57-.34-1.01-.45-1.34s-.18-.55-.2-.67c-.05-.2-.08-.37-.11-.51-.02-.14-.04-.27-.04-.39-.11.32-.2.6-.28.85-.08.25-.14.46-.19.64-.15.53-.27.96-.35,1.28-.08.32-.14.53-.16.64l-1.51,4.76h-1.21l-3.16-9.5h1.38l2.52,8.01c.06-.34.12-.66.2-.97s.15-.59.23-.88c.06-.2.12-.41.18-.62.06-.21.13-.43.21-.66l1.53-4.88Z" fill="#fff" stroke="#fff" stroke-miterlimit="10" stroke-width=".25"/>
    <path d="M455.62,585.12c-1.22,0-2.29-.44-3.21-1.33-.98-.94-1.47-2.15-1.47-3.64,0-1.41.43-2.59,1.29-3.53.89-.96,1.98-1.44,3.28-1.44s2.38.48,3.26,1.44c.87.95,1.31,2.12,1.31,3.51,0,1.47-.47,2.68-1.42,3.64-.88.9-1.89,1.35-3.05,1.35ZM455.5,583.94c.85,0,1.61-.36,2.27-1.07.64-.72.96-1.64.96-2.75s-.34-2.08-1.03-2.81c-.63-.66-1.35-.99-2.18-.99s-1.58.34-2.18,1.03c-.66.76-.99,1.69-.99,2.79s.32,2.04.98,2.79c.6.68,1.33,1.01,2.18,1.01Z" fill="#fff" stroke="#fff" stroke-miterlimit="10" stroke-width=".25"/>
    <path d="M465.96,585.12c-1.22,0-2.29-.44-3.21-1.33-.98-.94-1.47-2.15-1.47-3.64,0-1.41.43-2.59,1.29-3.53.89-.96,1.98-1.44,3.28-1.44s2.38.48,3.26,1.44c.87.95,1.31,2.12,1.31,3.51,0,1.47-.47,2.68-1.42,3.64-.88.9-1.89,1.35-3.05,1.35ZM465.84,583.94c.85,0,1.61-.36,2.27-1.07.64-.72.96-1.64.96-2.75s-.34-2.08-1.03-2.81c-.63-.66-1.35-.99-2.18-.99s-1.58.34-2.18,1.03c-.66.76-.99,1.69-.99,2.79s.32,2.04.98,2.79c.6.68,1.33,1.01,2.18,1.01Z" fill="#fff" stroke="#fff" stroke-miterlimit="10" stroke-width=".25"/>
    <path d="M430.52,588.73v1.79c-.44-.43-.94-.79-1.51-1.1-.89-.47-1.78-.71-2.68-.71-1.38,0-2.57.59-3.57,1.76-.5.58-.87,1.21-1.11,1.9-.24.69-.36,1.42-.36,2.2,0,1.6.5,2.97,1.49,4.12.98,1.15,2.18,1.72,3.58,1.72.66,0,1.34-.13,2.03-.4.69-.27,1.4-.68,2.12-1.23v1.72c-1.58.85-3.02,1.28-4.31,1.28-1.67,0-3.13-.64-4.38-1.93-1.35-1.38-2.02-3.12-2.02-5.2s.63-3.73,1.88-5.13c1.28-1.41,2.86-2.11,4.74-2.11.73,0,1.44.11,2.11.34s1.34.56,1.99.99Z" fill="#fff" stroke="#fff" stroke-miterlimit="10" stroke-width=".25"/>
    <path d="M432.08,587.63h1.28v6.12c.3-.47.66-.87,1.08-1.19.65-.49,1.38-.73,2.18-.73.5,0,.94.07,1.34.21.4.14.76.35,1.09.62.7.62,1.05,1.48,1.05,2.59v6.28h-1.29v-6.11c0-.69-.22-1.27-.66-1.74-.44-.47-.97-.71-1.6-.71-.91,0-1.67.36-2.27,1.08-.61.75-.92,1.6-.92,2.56v4.92h-1.28v-13.92Z" fill="#fff" stroke="#fff" stroke-miterlimit="10" stroke-width=".25"/>
    <path d="M445.77,601.77c-1.22,0-2.29-.44-3.21-1.33-.98-.94-1.47-2.15-1.47-3.64,0-1.41.43-2.59,1.29-3.53.89-.96,1.98-1.44,3.28-1.44s2.38.48,3.26,1.44c.87.95,1.31,2.12,1.31,3.51,0,1.47-.47,2.68-1.42,3.64-.88.9-1.89,1.35-3.05,1.35ZM445.65,600.6c.85,0,1.61-.36,2.27-1.07.64-.72.96-1.64.96-2.75s-.34-2.08-1.03-2.81c-.63-.66-1.35-.99-2.18-.99s-1.58.34-2.18,1.03c-.66.76-.99,1.69-.99,2.79s.32,2.04.98,2.79c.6.68,1.33,1.01,2.18,1.01Z" fill="#fff" stroke="#fff" stroke-miterlimit="10" stroke-width=".25"/>
  </g>
  <g>
    <path d="M539.35,546.84v1.79c-.31-.26-.62-.49-.93-.69-.31-.2-.62-.37-.93-.5-.71-.33-1.43-.5-2.16-.5-.92,0-1.69.23-2.29.69-.62.47-.92,1.04-.92,1.69,0,.95.7,1.66,2.09,2.13.65.22,1.3.44,1.94.65s1.3.42,1.96.63c1.41.67,2.11,1.68,2.11,3.02s-.5,2.35-1.51,3.14c-.96.75-2.15,1.12-3.56,1.12-.95,0-1.86-.18-2.73-.55-.51-.2-1.11-.53-1.81-.99v-1.81c.91.82,1.83,1.39,2.77,1.72.31.12.61.2.9.25.3.05.59.07.89.07.95,0,1.74-.24,2.39-.71.72-.52,1.08-1.2,1.08-2.04,0-1.02-.69-1.79-2.06-2.33-.66-.2-1.31-.41-1.95-.62-.64-.21-1.28-.42-1.92-.62-1.38-.64-2.08-1.62-2.08-2.95,0-1.11.44-2.02,1.31-2.72.9-.72,2.02-1.08,3.37-1.08.83,0,1.66.15,2.48.46.43.14.94.39,1.54.75Z" fill="#fff" stroke="#fff" stroke-miterlimit="10" stroke-width=".25"/>
    <path d="M546.32,560.01c-1.22,0-2.29-.44-3.21-1.33-.98-.94-1.47-2.15-1.47-3.64,0-1.41.43-2.59,1.29-3.53.89-.96,1.98-1.44,3.28-1.44s2.38.48,3.26,1.44c.87.95,1.31,2.12,1.31,3.51,0,1.47-.47,2.68-1.42,3.64-.88.9-1.89,1.35-3.05,1.35ZM546.2,558.84c.85,0,1.61-.36,2.27-1.07.64-.72.96-1.64.96-2.75s-.34-2.08-1.03-2.81c-.63-.66-1.35-.99-2.18-.99s-1.58.34-2.18,1.03c-.66.76-.99,1.69-.99,2.79s.32,2.04.98,2.79c.6.68,1.33,1.01,2.18,1.01Z" fill="#fff" stroke="#fff" stroke-miterlimit="10" stroke-width=".25"/>
    <path d="M556.66,560.01c-1.22,0-2.29-.44-3.21-1.33-.98-.94-1.47-2.15-1.47-3.64,0-1.41.43-2.59,1.29-3.53.89-.96,1.98-1.44,3.28-1.44s2.38.48,3.26,1.44c.87.95,1.31,2.12,1.31,3.51,0,1.47-.47,2.68-1.42,3.64-.88.9-1.89,1.35-3.05,1.35ZM556.54,558.84c.85,0,1.61-.36,2.27-1.07.64-.72.96-1.64.96-2.75s-.34-2.08-1.03-2.81c-.63-.66-1.35-.99-2.18-.99s-1.58.34-2.18,1.03c-.66.76-.99,1.69-.99,2.79s.32,2.04.98,2.79c.6.68,1.33,1.01,2.18,1.01Z" fill="#fff" stroke="#fff" stroke-miterlimit="10" stroke-width=".25"/>
    <path d="M567.55,545.86h1.37l5.18,13.92h-1.63l-1.67-4.76h-5.29l-1.74,4.76h-1.54l5.32-13.92ZM570.41,553.79l-2.15-6.27-2.32,6.27h4.47Z" fill="#fff" stroke="#fff" stroke-miterlimit="10" stroke-width=".25"/>
    <path d="M531.85,574.2c.76,0,1.4-.23,1.93-.69.54-.48.82-1.05.82-1.7v-10.33h1.38v10.39c0,.93-.41,1.78-1.24,2.54-.82.75-1.75,1.12-2.8,1.12-.77,0-1.58-.15-2.43-.46-.2-.06-.43-.15-.67-.27-.25-.13-.53-.27-.83-.44v-1.62c.31.2.61.38.9.55s.58.31.88.44c.74.32,1.44.48,2.08.48Z" fill="#fff" stroke="#fff" stroke-miterlimit="10" stroke-width=".25"/>
    <path d="M546.16,570.26h-7.22c0,1.36.32,2.4.95,3.12.63.72,1.46,1.07,2.49,1.07.78,0,1.53-.25,2.25-.75.2-.13.41-.29.64-.49s.47-.42.73-.68v1.54c-.28.21-.55.4-.79.56-.24.16-.47.29-.68.4-.74.39-1.49.59-2.23.59-1.29,0-2.38-.44-3.28-1.33-.97-.94-1.45-2.15-1.45-3.64,0-1.41.44-2.59,1.31-3.53.89-.96,1.98-1.44,3.28-1.44s2.27.46,3.02,1.38c.66.84.99,1.91.99,3.19ZM539.12,569.18h5.55c-.14-.8-.45-1.41-.91-1.8s-1.03-.59-1.69-.59c-.73,0-1.35.23-1.86.69-.47.43-.83.99-1.08,1.7Z" fill="#fff" stroke="#fff" stroke-miterlimit="10" stroke-width=".25"/>
    <path d="M552,575.62c-1.22,0-2.29-.44-3.21-1.33-.98-.94-1.47-2.15-1.47-3.64,0-1.41.43-2.59,1.29-3.53.89-.96,1.98-1.44,3.28-1.44s2.38.48,3.26,1.44c.87.95,1.31,2.12,1.31,3.51,0,1.47-.47,2.68-1.42,3.64-.88.9-1.89,1.35-3.05,1.35ZM551.87,574.45c.85,0,1.61-.36,2.27-1.07.64-.72.96-1.64.96-2.75s-.34-2.08-1.03-2.81c-.63-.66-1.35-.99-2.18-.99s-1.58.34-2.18,1.03c-.66.76-.99,1.69-.99,2.79s.32,2.04.98,2.79c.6.68,1.33,1.01,2.18,1.01Z" fill="#fff" stroke="#fff" stroke-miterlimit="10" stroke-width=".25"/>
    <path d="M566.15,569.04v6.35h-1.28v-6.27c0-.66-.24-1.21-.73-1.63-.48-.44-1.06-.66-1.74-.66-.9,0-1.67.37-2.32,1.12-.65.76-.98,1.61-.98,2.56v4.88h-1.21v-9.5h1.12l.05,1.78c.32-.48.69-.89,1.12-1.21.7-.52,1.48-.78,2.36-.78,1.02,0,1.87.31,2.55.92.7.6,1.05,1.41,1.05,2.43Z" fill="#fff" stroke="#fff" stroke-miterlimit="10" stroke-width=".25"/>
    <path d="M574.84,566.96l.35-1.07h.94v8.59c0,1.48-.36,2.6-1.08,3.37-.72.77-1.84,1.15-3.35,1.15-.62,0-1.2-.11-1.75-.33-.55-.22-1.13-.56-1.73-1.02v-1.56c.38.36.75.65,1.12.9s.73.43,1.08.56c.41.15.84.23,1.28.23.93,0,1.66-.21,2.18-.64.64-.52.96-1.35.96-2.5v-1.17c-.45.75-1.01,1.27-1.67,1.58-.45.21-.95.32-1.49.32-1.17,0-2.15-.47-2.94-1.4-.78-.96-1.17-2.07-1.17-3.32s.37-2.36,1.1-3.32c.85-1.1,1.94-1.65,3.26-1.65.66,0,1.29.16,1.88.48.18.11.35.22.52.35.17.13.34.28.51.44ZM574.84,570.8v-2.61c-.2-.22-.41-.41-.61-.57s-.41-.29-.61-.41c-.24-.13-.48-.22-.73-.28-.25-.06-.5-.09-.76-.09-.89,0-1.62.31-2.2.94-.65.71-.98,1.65-.98,2.8,0,1.05.27,1.92.82,2.61.53.67,1.22,1.01,2.08,1.01s1.55-.33,2.13-.98c.58-.63.87-1.44.87-2.43Z" fill="#fff" stroke="#fff" stroke-miterlimit="10" stroke-width=".25"/>
  </g>
  <line x1="259.88" y1="644.25" x2="259.88" y2="705.36" fill="none" stroke="#fff" stroke-miterlimit="10" stroke-width=".76"/>
  <line x1="345.59" y1="644.25" x2="345.59" y2="705.36" fill="none" stroke="#fff" stroke-miterlimit="10" stroke-width=".76"/>
  <polygon points="220.21 478.75 220.21 539.68 87.81 539.68 87.81 554.51 258.24 554.51 258.24 539.68 258.24 478.75 220.21 478.75" fill="none" stroke="#fff" stroke-miterlimit="10"/>
  <g>
    <path d="M372.46,648.72v1.79c-.31-.26-.62-.49-.93-.69-.31-.2-.62-.37-.93-.5-.71-.33-1.43-.5-2.16-.5-.92,0-1.69.23-2.29.69-.62.47-.92,1.04-.92,1.69,0,.95.7,1.66,2.09,2.13.65.22,1.3.44,1.94.65s1.3.42,1.96.63c1.41.67,2.11,1.68,2.11,3.02s-.5,2.35-1.51,3.14c-.96.75-2.15,1.12-3.56,1.12-.95,0-1.86-.18-2.73-.55-.51-.2-1.11-.53-1.81-.99v-1.81c.91.82,1.83,1.39,2.77,1.72.31.12.61.2.9.25.3.05.59.07.89.07.95,0,1.74-.24,2.39-.71.72-.52,1.08-1.2,1.08-2.04,0-1.02-.69-1.79-2.06-2.33-.66-.2-1.31-.41-1.95-.62-.64-.21-1.28-.42-1.92-.62-1.38-.64-2.08-1.62-2.08-2.95,0-1.11.44-2.02,1.31-2.72.9-.72,2.02-1.08,3.37-1.08.83,0,1.66.15,2.48.46.43.14.94.39,1.54.75Z" fill="#fff" stroke="#fff" stroke-miterlimit="10" stroke-width=".25"/>
    <path d="M383.34,656.53h-7.22c0,1.36.32,2.4.95,3.12.63.72,1.46,1.07,2.49,1.07.78,0,1.53-.25,2.25-.75.2-.13.41-.29.64-.49s.47-.42.73-.68v1.54c-.28.21-.55.4-.79.56-.24.16-.47.29-.68.4-.74.39-1.49.59-2.23.59-1.29,0-2.38-.44-3.28-1.33-.97-.94-1.45-2.15-1.45-3.64,0-1.41.44-2.59,1.31-3.53.89-.96,1.98-1.44,3.28-1.44s2.27.46,3.02,1.38c.66.84.99,1.91.99,3.19ZM376.29,655.45h5.55c-.14-.8-.45-1.41-.91-1.8s-1.03-.59-1.69-.59c-.73,0-1.35.23-1.86.69-.47.43-.83.99-1.08,1.7Z" fill="#fff" stroke="#fff" stroke-miterlimit="10" stroke-width=".25"/>
    <path d="M389.17,661.89c-1.22,0-2.29-.44-3.21-1.33-.98-.94-1.47-2.15-1.47-3.64,0-1.41.43-2.59,1.29-3.53.89-.96,1.98-1.44,3.28-1.44s2.38.48,3.26,1.44c.87.95,1.31,2.12,1.31,3.51,0,1.47-.47,2.68-1.42,3.64-.88.9-1.89,1.35-3.05,1.35ZM389.05,660.72c.85,0,1.61-.36,2.27-1.07.64-.72.96-1.64.96-2.75s-.34-2.08-1.03-2.81c-.63-.66-1.35-.99-2.18-.99s-1.58.34-2.18,1.03c-.66.76-.99,1.69-.99,2.79s.32,2.04.98,2.79c.6.68,1.33,1.01,2.18,1.01Z" fill="#fff" stroke="#fff" stroke-miterlimit="10" stroke-width=".25"/>
    <path d="M394.78,652.16h1.42l3.26,8.02,2.78-8.02h1.4l-3.96,10.6c-.28.76-.65,1.3-1.1,1.62-.4.27-.88.41-1.44.41-.28,0-.52-.02-.71-.06-.19-.04-.37-.1-.55-.17v-1.23c.17.08.35.15.56.21.21.06.39.09.56.09.41,0,.74-.11.97-.32.23-.21.43-.55.61-1.01l.21-.73-4.03-9.41Z" fill="#fff" stroke="#fff" stroke-miterlimit="10" stroke-width=".25"/>
    <path d="M409.39,661.89c-1.22,0-2.29-.44-3.21-1.33-.98-.94-1.47-2.15-1.47-3.64,0-1.41.43-2.59,1.29-3.53.89-.96,1.98-1.44,3.28-1.44s2.38.48,3.26,1.44c.87.95,1.31,2.12,1.31,3.51,0,1.47-.47,2.68-1.42,3.64-.88.9-1.89,1.35-3.05,1.35ZM409.27,660.72c.85,0,1.61-.36,2.27-1.07.64-.72.96-1.64.96-2.75s-.34-2.08-1.03-2.81c-.63-.66-1.35-.99-2.18-.99s-1.58.34-2.18,1.03c-.66.76-.99,1.69-.99,2.79s.32,2.04.98,2.79c.6.68,1.33,1.01,2.18,1.01Z" fill="#fff" stroke="#fff" stroke-miterlimit="10" stroke-width=".25"/>
    <path d="M423.54,655.3v6.35h-1.28v-6.27c0-.66-.24-1.21-.73-1.63-.48-.44-1.06-.66-1.74-.66-.9,0-1.67.37-2.32,1.12-.65.76-.98,1.61-.98,2.56v4.88h-1.21v-9.5h1.12l.05,1.78c.32-.48.69-.89,1.12-1.21.7-.52,1.48-.78,2.36-.78,1.02,0,1.87.31,2.55.92.7.6,1.05,1.41,1.05,2.43Z" fill="#fff" stroke="#fff" stroke-miterlimit="10" stroke-width=".25"/>
    <path d="M432.23,653.23l.35-1.07h.94v8.59c0,1.48-.36,2.6-1.08,3.37-.72.77-1.84,1.15-3.35,1.15-.62,0-1.2-.11-1.75-.33-.55-.22-1.13-.56-1.73-1.02v-1.56c.38.36.75.65,1.12.9s.73.43,1.08.56c.41.15.84.23,1.28.23.93,0,1.66-.21,2.18-.64.64-.52.96-1.35.96-2.5v-1.17c-.45.75-1.01,1.27-1.67,1.58-.45.21-.95.32-1.49.32-1.17,0-2.15-.47-2.94-1.4-.78-.96-1.17-2.07-1.17-3.32s.37-2.36,1.1-3.32c.85-1.1,1.94-1.65,3.26-1.65.66,0,1.29.16,1.88.48.18.11.35.22.52.35.17.13.34.28.51.44ZM432.23,657.06v-2.61c-.2-.22-.41-.41-.61-.57s-.41-.29-.61-.41c-.24-.13-.48-.22-.73-.28-.25-.06-.5-.09-.76-.09-.89,0-1.62.31-2.2.94-.65.71-.98,1.65-.98,2.8,0,1.05.27,1.92.82,2.61.53.67,1.22,1.01,2.08,1.01s1.55-.33,2.13-.98c.58-.63.87-1.44.87-2.43Z" fill="#fff" stroke="#fff" stroke-miterlimit="10" stroke-width=".25"/>
    <path d="M440.78,647.74h4.45c1.28,0,2.32.22,3.14.66,1.1.62,1.65,1.6,1.65,2.95s-.45,2.31-1.37,3.02c-.83.66-1.89.99-3.19.99h-3.28v6.3h-1.4v-13.92ZM445.22,648.97h-3.03v5.17h3.14c.83,0,1.54-.22,2.15-.66.67-.5,1.01-1.17,1.01-2.01,0-.95-.4-1.63-1.19-2.04-.58-.31-1.27-.46-2.07-.46Z" fill="#fff" stroke="#fff" stroke-miterlimit="10" stroke-width=".25"/>
    <path d="M458.93,655.52v4.47c0,.2.04.38.13.52.09.15.25.22.49.22.07,0,.13,0,.18,0,.05,0,.09-.01.14-.03.07-.02.13-.05.19-.07.05-.02.1-.04.13-.05v.99c-.21.07-.43.12-.64.15-.21.03-.38.04-.5.04-.6,0-1-.16-1.19-.48-.15-.2-.23-.63-.23-1.3-.15.26-.31.49-.46.68-.15.2-.31.36-.46.49-.62.49-1.33.73-2.15.73-.86,0-1.61-.25-2.25-.76-.66-.54-.99-1.24-.99-2.08,0-1.05.53-1.83,1.6-2.33.39-.19.91-.35,1.55-.5.64-.14,1.42-.27,2.31-.39l.85-.09c0-.83-.21-1.48-.63-1.94-.42-.47-1.04-.7-1.85-.7-.31,0-.61.04-.91.11-.3.08-.61.2-.91.36-.17.09-.35.21-.55.34-.2.13-.42.3-.66.5v-1.46c1.01-.68,2.09-1.01,3.25-1.01s2.09.37,2.73,1.12c.56.65.83,1.47.83,2.45ZM457.63,657.38v-.57l-.6.07c-1.48.15-2.52.36-3.12.62-.8.32-1.21.84-1.21,1.56,0,.21.05.42.14.61.09.2.22.37.39.52.17.15.37.28.61.37.24.09.51.14.81.14.8,0,1.51-.33,2.11-.98.58-.66.87-1.45.87-2.36Z" fill="#fff" stroke="#fff" stroke-miterlimit="10" stroke-width=".25"/>
    <path d="M466.66,652.16v1.28c-.13-.05-.24-.09-.32-.11-.08-.03-.15-.05-.21-.06-.06-.01-.12-.02-.19-.03s-.15,0-.26,0c-.86,0-1.57.42-2.13,1.26-.47.77-.71,1.63-.71,2.57v4.6h-1.28v-9.5h1.17l.09,1.63c.3-.5.57-.85.83-1.06.53-.44,1.17-.66,1.92-.66.2,0,.39,0,.56.02.17.01.35.04.52.07Z" fill="#fff" stroke="#fff" stroke-miterlimit="10" stroke-width=".25"/>
    <path d="M467.81,647.74h1.29v8.61l4.36-4.19h1.81l-3.99,3.69,4.56,5.8h-1.76l-3.76-4.95-1.22,1.14v3.82h-1.29v-13.92Z" fill="#fff" stroke="#fff" stroke-miterlimit="10" stroke-width=".25"/>
  </g>
  <g>
    <path d="M515.47,647.66c.73,0,1.35-.23,1.86-.69.52-.48.78-1.05.78-1.7v-10.33h1.33v10.39c0,.93-.4,1.78-1.19,2.54-.79.75-1.68,1.12-2.7,1.12-.74,0-1.52-.15-2.34-.46-.19-.06-.41-.15-.65-.27-.24-.13-.51-.27-.8-.44v-1.62c.3.2.58.38.86.55s.56.31.84.44c.72.32,1.38.48,2,.48Z" fill="#fff" stroke="#fff" stroke-miterlimit="10" stroke-width=".25"/>
    <path d="M528.32,642.71v4.47c0,.2.04.38.13.52s.24.22.47.22c.07,0,.13,0,.17,0,.05,0,.09-.01.14-.03.07-.02.13-.05.18-.07.05-.02.09-.04.13-.05v.99c-.2.07-.41.12-.61.15s-.36.04-.48.04c-.58,0-.96-.16-1.14-.48-.15-.2-.22-.63-.22-1.3-.15.26-.3.49-.44.68s-.3.36-.44.49c-.59.49-1.28.73-2.07.73-.83,0-1.55-.25-2.17-.76-.64-.54-.96-1.24-.96-2.08,0-1.05.51-1.83,1.54-2.33.38-.19.87-.35,1.49-.5.62-.14,1.36-.27,2.23-.39l.82-.09c0-.83-.2-1.48-.61-1.94-.4-.47-1-.7-1.78-.7-.3,0-.59.04-.88.11s-.58.2-.88.36c-.16.09-.34.21-.53.34s-.4.3-.63.5v-1.46c.97-.68,2.01-1.01,3.12-1.01s2.01.37,2.63,1.12c.53.65.8,1.47.8,2.45ZM527.07,644.57v-.57l-.58.07c-1.42.15-2.42.36-3,.62-.77.32-1.16.84-1.16,1.56,0,.21.05.42.14.61.09.2.22.37.38.52.16.15.36.28.59.37s.49.14.78.14c.77,0,1.45-.33,2.03-.98.56-.66.84-1.45.84-2.36Z" fill="#fff" stroke="#fff" stroke-miterlimit="10" stroke-width=".25"/>
    <path d="M538.89,643.72h-6.95c0,1.36.3,2.4.91,3.12.61.72,1.41,1.07,2.4,1.07.75,0,1.47-.25,2.17-.75.19-.13.4-.29.61-.49s.45-.42.7-.68v1.54c-.27.21-.53.4-.76.56-.23.16-.45.29-.66.4-.72.39-1.43.59-2.15.59-1.24,0-2.29-.44-3.16-1.33-.93-.94-1.4-2.15-1.4-3.64,0-1.41.42-2.59,1.26-3.53.85-.96,1.91-1.44,3.16-1.44s2.18.46,2.9,1.38c.64.84.96,1.91.96,3.19ZM532.11,642.63h5.34c-.14-.8-.43-1.41-.88-1.8-.45-.4-.99-.59-1.63-.59-.71,0-1.3.23-1.79.69-.46.43-.8.99-1.04,1.7Z" fill="#fff" stroke="#fff" stroke-miterlimit="10" stroke-width=".25"/>
    <path d="M539.94,639.35h1.37l3.14,8.02,2.68-8.02h1.35l-3.81,10.6c-.27.76-.63,1.3-1.06,1.62-.39.27-.85.41-1.38.41-.27,0-.5-.02-.68-.06-.18-.04-.36-.1-.53-.17v-1.23c.16.08.34.15.54.21.2.06.38.09.54.09.4,0,.71-.11.93-.32.22-.21.42-.55.59-1.01l.2-.73-3.87-9.41Z" fill="#fff" stroke="#fff" stroke-miterlimit="10" stroke-width=".25"/>
    <path d="M554.01,649.08c-1.17,0-2.2-.44-3.09-1.33-.94-.94-1.42-2.15-1.42-3.64,0-1.41.42-2.59,1.25-3.53.85-.96,1.91-1.44,3.16-1.44s2.29.48,3.14,1.44c.84.95,1.26,2.12,1.26,3.51,0,1.47-.45,2.68-1.37,3.64-.84.9-1.82,1.35-2.94,1.35ZM553.89,647.91c.82,0,1.55-.36,2.18-1.07.61-.72.92-1.64.92-2.75s-.33-2.08-.99-2.81c-.6-.66-1.3-.99-2.1-.99s-1.52.34-2.1,1.03c-.64.76-.96,1.69-.96,2.79s.31,2.04.94,2.79c.58.68,1.28,1.01,2.1,1.01Z" fill="#fff" stroke="#fff" stroke-miterlimit="10" stroke-width=".25"/>
    <path d="M563.96,649.08c-1.17,0-2.2-.44-3.09-1.33-.94-.94-1.42-2.15-1.42-3.64,0-1.41.42-2.59,1.25-3.53.85-.96,1.91-1.44,3.16-1.44s2.29.48,3.14,1.44c.84.95,1.26,2.12,1.26,3.51,0,1.47-.45,2.68-1.37,3.64-.84.9-1.82,1.35-2.94,1.35ZM563.84,647.91c.82,0,1.55-.36,2.18-1.07.61-.72.92-1.64.92-2.75s-.33-2.08-.99-2.81c-.6-.66-1.3-.99-2.1-.99s-1.52.34-2.1,1.03c-.64.76-.96,1.69-.96,2.79s.31,2.04.94,2.79c.58.68,1.28,1.01,2.1,1.01Z" fill="#fff" stroke="#fff" stroke-miterlimit="10" stroke-width=".25"/>
    <path d="M577.58,642.49v6.35h-1.23v-6.27c0-.66-.23-1.21-.7-1.63-.47-.44-1.02-.66-1.67-.66-.86,0-1.61.37-2.24,1.12-.63.76-.94,1.61-.94,2.56v4.88h-1.16v-9.5h1.08l.05,1.78c.31-.48.67-.89,1.08-1.21.67-.52,1.43-.78,2.27-.78.98,0,1.8.31,2.46.92.67.6,1.01,1.41,1.01,2.43Z" fill="#fff" stroke="#fff" stroke-miterlimit="10" stroke-width=".25"/>
    <path d="M548.49,650.55h1.35v12.69h6.61v1.23h-7.95v-13.92Z" fill="#fff" stroke="#fff" stroke-miterlimit="10" stroke-width=".25"/>
    <path d="M565.81,659.33h-6.95c0,1.36.3,2.4.91,3.12.61.72,1.41,1.07,2.4,1.07.75,0,1.47-.25,2.17-.75.19-.13.4-.29.61-.49s.45-.42.7-.68v1.54c-.27.21-.53.4-.76.56-.23.16-.45.29-.66.4-.72.39-1.43.59-2.15.59-1.24,0-2.29-.44-3.16-1.33-.93-.94-1.4-2.15-1.4-3.64,0-1.41.42-2.59,1.26-3.53.85-.96,1.91-1.44,3.16-1.44s2.18.46,2.9,1.38c.64.84.96,1.91.96,3.19ZM559.03,658.25h5.34c-.14-.8-.43-1.41-.88-1.8-.45-.4-.99-.59-1.63-.59-.71,0-1.3.23-1.79.69-.46.43-.8.99-1.04,1.7Z" fill="#fff" stroke="#fff" stroke-miterlimit="10" stroke-width=".25"/>
    <path d="M575.18,659.33h-6.95c0,1.36.3,2.4.91,3.12.61.72,1.41,1.07,2.4,1.07.75,0,1.47-.25,2.17-.75.19-.13.4-.29.61-.49s.45-.42.7-.68v1.54c-.27.21-.53.4-.76.56-.23.16-.45.29-.66.4-.72.39-1.43.59-2.15.59-1.24,0-2.29-.44-3.16-1.33-.93-.94-1.4-2.15-1.4-3.64,0-1.41.42-2.59,1.26-3.53.85-.96,1.91-1.44,3.16-1.44s2.18.46,2.9,1.38c.64.84.96,1.91.96,3.19ZM568.4,658.25h5.34c-.14-.8-.43-1.41-.88-1.8-.45-.4-.99-.59-1.63-.59-.71,0-1.3.23-1.79.69-.46.43-.8.99-1.04,1.7Z" fill="#fff" stroke="#fff" stroke-miterlimit="10" stroke-width=".25"/>
  </g>
  <g>
    <path d="M853.03,454.94h1.67l4.26,6.41,4.18-6.41h1.74l-5.25,7.63v6.28h-1.38v-6.28l-5.21-7.63Z" fill="#fff" stroke="#fff" stroke-miterlimit="10" stroke-width=".25"/>
    <path d="M874.17,463.72h-7.22c0,1.36.32,2.4.95,3.12.63.72,1.46,1.07,2.49,1.07.78,0,1.53-.25,2.25-.75.2-.13.41-.29.64-.49s.47-.42.73-.68v1.54c-.28.21-.55.4-.79.56s-.47.29-.68.4c-.75.39-1.49.59-2.23.59-1.29,0-2.38-.44-3.28-1.33-.97-.94-1.45-2.15-1.45-3.64,0-1.41.44-2.59,1.31-3.53.89-.96,1.98-1.44,3.28-1.44s2.27.46,3.02,1.38c.66.84.99,1.91.99,3.19ZM867.13,462.64h5.55c-.14-.8-.45-1.41-.91-1.8-.47-.4-1.03-.59-1.69-.59-.73,0-1.35.23-1.86.69-.47.43-.83.99-1.08,1.7Z" fill="#fff" stroke="#fff" stroke-miterlimit="10" stroke-width=".25"/>
    <path d="M875.58,454.94h1.28v13.92h-1.28v-13.92Z" fill="#fff" stroke="#fff" stroke-miterlimit="10" stroke-width=".25"/>
    <path d="M879.07,455.34c.25,0,.46.08.62.25.16.17.25.4.25.71s-.08.54-.23.71-.37.25-.64.25-.48-.09-.63-.28c-.15-.19-.22-.41-.22-.66,0-.39.09-.65.27-.78.18-.13.37-.2.59-.2ZM878.45,459.36h1.28v9.5h-1.28v-9.5Z" fill="#fff" stroke="#fff" stroke-miterlimit="10" stroke-width=".25"/>
    <path d="M895.49,462.76v6.09h-1.29v-6.39c0-.68-.23-1.22-.69-1.63-.39-.35-.85-.53-1.38-.53-.79,0-1.5.37-2.13,1.1-.62.72-.92,1.62-.92,2.68v4.78h-1.29v-6.39c0-.64-.22-1.15-.66-1.54-.41-.41-.89-.62-1.42-.62-.77,0-1.45.34-2.06,1.03-.66.76-.99,1.69-.99,2.81v4.72h-1.3v-9.5h1.21l.05,1.51c.34-.56.83-.99,1.47-1.31.57-.27,1.14-.41,1.72-.41.9,0,1.66.26,2.27.78.45.39.73.78.85,1.17.24-.44.57-.83,1.01-1.19.69-.51,1.44-.76,2.27-.76,1,0,1.79.3,2.34.9.63.69.94,1.59.94,2.72Z" fill="#fff" stroke="#fff" stroke-miterlimit="10" stroke-width=".25"/>
    <path d="M874.58,471.53v1.79c-.31-.26-.62-.49-.93-.69s-.62-.37-.93-.5c-.71-.33-1.43-.5-2.16-.5-.92,0-1.68.23-2.29.69-.62.47-.92,1.04-.92,1.69,0,.95.7,1.66,2.09,2.13.65.22,1.3.44,1.94.65s1.3.42,1.96.63c1.41.67,2.11,1.68,2.11,3.02s-.5,2.35-1.51,3.14c-.96.75-2.15,1.12-3.56,1.12-.95,0-1.86-.18-2.73-.55-.51-.2-1.11-.53-1.81-.99v-1.81c.91.82,1.83,1.39,2.77,1.72.31.12.61.2.9.25.29.05.59.07.89.07.95,0,1.74-.24,2.39-.71.72-.52,1.08-1.2,1.08-2.04,0-1.02-.69-1.79-2.06-2.33-.66-.2-1.31-.41-1.95-.62-.64-.21-1.28-.42-1.92-.62-1.38-.64-2.08-1.62-2.08-2.95,0-1.11.44-2.02,1.31-2.72.9-.72,2.02-1.08,3.37-1.08.83,0,1.66.15,2.48.46.43.14.94.39,1.54.75Z" fill="#fff" stroke="#fff" stroke-miterlimit="10" stroke-width=".25"/>
    <path d="M885.45,479.34h-7.22c0,1.36.32,2.4.95,3.12.63.72,1.46,1.07,2.49,1.07.78,0,1.53-.25,2.25-.75.2-.13.41-.29.64-.49s.47-.42.73-.68v1.54c-.28.21-.55.4-.79.56-.24.16-.47.29-.68.4-.74.39-1.49.59-2.23.59-1.29,0-2.38-.44-3.28-1.33-.97-.94-1.45-2.15-1.45-3.64,0-1.41.44-2.59,1.31-3.53.89-.96,1.98-1.44,3.28-1.44s2.27.46,3.01,1.38c.66.84.99,1.91.99,3.19ZM878.41,478.26h5.55c-.14-.8-.45-1.41-.91-1.8-.47-.4-1.03-.59-1.69-.59-.73,0-1.35.23-1.86.69-.47.43-.83.99-1.08,1.7Z" fill="#fff" stroke="#fff" stroke-miterlimit="10" stroke-width=".25"/>
    <path d="M891.29,484.7c-1.22,0-2.29-.44-3.21-1.33-.98-.94-1.47-2.15-1.47-3.64,0-1.41.43-2.59,1.29-3.53.89-.96,1.98-1.44,3.28-1.44s2.38.48,3.26,1.44c.88.95,1.31,2.12,1.31,3.51,0,1.47-.47,2.68-1.42,3.64-.88.9-1.89,1.35-3.05,1.35ZM891.17,483.53c.85,0,1.61-.36,2.27-1.07.64-.72.96-1.64.96-2.75s-.34-2.08-1.03-2.81c-.63-.66-1.35-.99-2.18-.99s-1.58.34-2.18,1.03c-.66.76-.99,1.69-.99,2.79s.33,2.04.98,2.79c.6.68,1.33,1.01,2.18,1.01Z" fill="#fff" stroke="#fff" stroke-miterlimit="10" stroke-width=".25"/>
  </g>
  <g>
    <path d="M931.39,331.26h1.38v13.92h-1.38v-13.92Z" fill="#fff" stroke="#fff" stroke-miterlimit="10" stroke-width=".25"/>
    <path d="M943.05,338.83v6.35h-1.28v-6.27c0-.66-.24-1.21-.73-1.63-.48-.44-1.06-.66-1.74-.66-.9,0-1.67.37-2.32,1.12-.65.76-.98,1.61-.98,2.56v4.88h-1.21v-9.5h1.12l.05,1.78c.32-.48.69-.89,1.12-1.21.7-.52,1.48-.78,2.36-.78,1.02,0,1.87.31,2.55.92.7.6,1.05,1.41,1.05,2.43Z" fill="#fff" stroke="#fff" stroke-miterlimit="10" stroke-width=".25"/>
    <path d="M950.67,335.68h1.21l1.47,4.47c.18.58.36,1.18.54,1.8.18.62.34,1.2.47,1.73.04-.12.07-.22.1-.3.03-.08.06-.17.08-.25.13-.45.26-.9.4-1.37.14-.46.27-.94.4-1.44l1.45-4.65h1.33l-3.17,9.5h-1.19l-1.68-5.25c-.19-.57-.34-1.01-.45-1.34-.11-.33-.18-.55-.2-.67-.05-.2-.08-.37-.11-.51-.02-.14-.03-.27-.03-.39-.11.32-.2.6-.28.85-.08.25-.14.46-.19.64-.15.53-.27.96-.35,1.28-.08.32-.14.53-.16.64l-1.51,4.76h-1.21l-3.16-9.5h1.38l2.52,8.01c.06-.34.12-.66.2-.97s.15-.59.23-.88c.06-.2.12-.41.18-.62.06-.21.13-.43.21-.66l1.53-4.88Z" fill="#fff" stroke="#fff" stroke-miterlimit="10" stroke-width=".25"/>
    <path d="M963.96,345.41c-1.22,0-2.29-.44-3.21-1.33-.98-.94-1.47-2.15-1.47-3.64,0-1.41.43-2.59,1.29-3.53.89-.96,1.98-1.44,3.28-1.44s2.38.48,3.26,1.44c.88.95,1.31,2.12,1.31,3.51,0,1.47-.47,2.68-1.42,3.64-.88.9-1.89,1.35-3.05,1.35ZM963.83,344.24c.85,0,1.61-.36,2.27-1.07.64-.72.96-1.64.96-2.75s-.34-2.08-1.03-2.81c-.63-.66-1.35-.99-2.18-.99s-1.58.34-2.18,1.03c-.66.76-.99,1.69-.99,2.79s.33,2.04.98,2.79c.6.68,1.33,1.01,2.18,1.01Z" fill="#fff" stroke="#fff" stroke-miterlimit="10" stroke-width=".25"/>
    <path d="M974.3,345.41c-1.22,0-2.29-.44-3.21-1.33-.98-.94-1.47-2.15-1.47-3.64,0-1.41.43-2.59,1.29-3.53.89-.96,1.98-1.44,3.28-1.44s2.38.48,3.26,1.44c.87.95,1.31,2.12,1.31,3.51,0,1.47-.47,2.68-1.42,3.64-.88.9-1.89,1.35-3.05,1.35ZM974.17,344.24c.85,0,1.61-.36,2.27-1.07.64-.72.96-1.64.96-2.75s-.34-2.08-1.03-2.81c-.63-.66-1.35-.99-2.18-.99s-1.58.34-2.18,1.03c-.66.76-.99,1.69-.99,2.79s.32,2.04.98,2.79c.6.68,1.33,1.01,2.18,1.01Z" fill="#fff" stroke="#fff" stroke-miterlimit="10" stroke-width=".25"/>
    <path d="M939.5,359.61c.76,0,1.4-.23,1.93-.69.54-.48.82-1.05.82-1.7v-10.33h1.38v10.39c0,.93-.41,1.78-1.24,2.54-.82.75-1.75,1.12-2.8,1.12-.77,0-1.58-.15-2.43-.46-.2-.06-.43-.15-.67-.27-.25-.13-.53-.27-.83-.44v-1.62c.31.2.61.38.9.55s.58.31.88.44c.74.32,1.44.48,2.08.48Z" fill="#fff" stroke="#fff" stroke-miterlimit="10" stroke-width=".25"/>
    <path d="M945.4,351.3h1.3v6.05c0,.67.2,1.24.59,1.7.43.53,1.03.8,1.81.8.9,0,1.67-.36,2.31-1.08.66-.76.99-1.59.99-2.5v-4.97h1.28v9.5h-1.12l-.09-1.62c-.19.26-.39.49-.6.7s-.44.39-.69.54c-.66.4-1.39.6-2.18.6-1.09,0-1.96-.34-2.61-1.01-.65-.69-.98-1.52-.98-2.5v-6.21Z" fill="#fff" stroke="#fff" stroke-miterlimit="10" stroke-width=".25"/>
    <path d="M963.57,354.44v6.35h-1.28v-6.27c0-.66-.24-1.21-.73-1.63-.48-.44-1.06-.66-1.74-.66-.9,0-1.67.37-2.32,1.12-.65.76-.98,1.61-.98,2.56v4.88h-1.21v-9.5h1.12l.05,1.78c.32-.48.69-.89,1.12-1.21.7-.52,1.48-.78,2.36-.78,1.02,0,1.87.31,2.55.92.7.6,1.05,1.41,1.05,2.43Z" fill="#fff" stroke="#fff" stroke-miterlimit="10" stroke-width=".25"/>
    <path d="M972.26,352.37l.35-1.07h.94v8.59c0,1.48-.36,2.6-1.08,3.37-.72.77-1.84,1.15-3.35,1.15-.62,0-1.2-.11-1.75-.33-.55-.22-1.13-.56-1.73-1.02v-1.56c.38.36.75.65,1.12.9.37.24.73.43,1.08.56.41.15.84.23,1.28.23.93,0,1.66-.21,2.18-.64.64-.52.96-1.35.96-2.5v-1.17c-.45.75-1.01,1.27-1.67,1.58-.45.21-.95.32-1.49.32-1.17,0-2.15-.47-2.94-1.4-.78-.96-1.17-2.07-1.17-3.32s.37-2.36,1.1-3.32c.85-1.1,1.94-1.65,3.26-1.65.66,0,1.29.16,1.88.48.18.11.35.22.52.35.17.13.34.28.51.44ZM972.26,356.2v-2.61c-.2-.22-.41-.41-.61-.57-.21-.15-.41-.29-.61-.41-.24-.13-.48-.22-.73-.28s-.5-.09-.76-.09c-.89,0-1.62.31-2.2.94-.65.71-.98,1.65-.98,2.8,0,1.05.27,1.92.82,2.61.53.67,1.22,1.01,2.08,1.01s1.55-.33,2.13-.98c.58-.63.87-1.44.87-2.43Z" fill="#fff" stroke="#fff" stroke-miterlimit="10" stroke-width=".25"/>
  </g>
  <g>
    <path d="M721.59,509.31c.76,0,1.4-.23,1.93-.69.54-.48.82-1.05.82-1.7v-10.33h1.38v10.39c0,.93-.41,1.78-1.24,2.54-.82.75-1.75,1.12-2.8,1.12-.77,0-1.58-.15-2.43-.46-.2-.06-.43-.15-.67-.27-.25-.13-.53-.27-.83-.44v-1.62c.31.2.61.38.9.55s.58.31.88.44c.74.32,1.44.48,2.08.48Z" fill="#fff" stroke="#fff" stroke-miterlimit="10" stroke-width=".25"/>
    <path d="M727.5,501h1.3v6.05c0,.67.2,1.24.59,1.7.43.53,1.03.8,1.81.8.9,0,1.67-.36,2.31-1.08.66-.76.99-1.59.99-2.5v-4.97h1.28v9.5h-1.12l-.09-1.62c-.19.26-.39.49-.6.7s-.44.39-.69.54c-.66.4-1.39.6-2.18.6-1.09,0-1.96-.34-2.61-1.01-.65-.69-.98-1.52-.98-2.5v-6.21Z" fill="#fff" stroke="#fff" stroke-miterlimit="10" stroke-width=".25"/>
    <path d="M745.66,504.14v6.35h-1.28v-6.27c0-.66-.24-1.21-.73-1.63-.48-.44-1.06-.66-1.74-.66-.9,0-1.67.37-2.32,1.12-.65.76-.98,1.61-.98,2.56v4.88h-1.21v-9.5h1.12l.05,1.78c.32-.48.69-.89,1.12-1.21.7-.52,1.48-.78,2.36-.78,1.02,0,1.87.31,2.55.92.7.6,1.05,1.41,1.05,2.43Z" fill="#fff" stroke="#fff" stroke-miterlimit="10" stroke-width=".25"/>
    <path d="M748.45,498.19h1.17v2.79h2.5v1.15h-2.5v6.04c0,.5.09.85.27,1.06.18.21.5.32.95.32.26,0,.48-.03.66-.09.18-.06.39-.14.61-.23v1.15c-.19.06-.42.12-.68.17s-.53.08-.81.08c-.71,0-1.26-.16-1.65-.48-.44-.33-.66-.86-.66-1.6v-6.43h-1.6v-1.15h1.6l.12-2.79Z" fill="#fff" stroke="#fff" stroke-miterlimit="10" stroke-width=".25"/>
    <path d="M760.77,504.35v4.47c0,.2.04.38.13.52.09.15.25.22.49.22.07,0,.13,0,.18,0,.05,0,.09-.01.14-.03.07-.02.13-.05.19-.07.05-.02.1-.04.13-.05v.99c-.21.07-.43.12-.64.15s-.38.04-.5.04c-.6,0-1-.16-1.19-.48-.15-.2-.23-.63-.23-1.3-.15.26-.31.49-.46.68-.15.2-.31.36-.46.49-.62.49-1.33.73-2.15.73-.86,0-1.61-.25-2.25-.76-.66-.54-.99-1.24-.99-2.08,0-1.05.53-1.83,1.6-2.33.39-.19.91-.35,1.55-.5.64-.14,1.42-.27,2.32-.39l.85-.09c0-.83-.21-1.48-.63-1.94-.42-.47-1.04-.7-1.85-.7-.31,0-.61.04-.91.11-.3.08-.61.2-.91.36-.17.09-.35.21-.55.34-.2.13-.42.3-.66.5v-1.46c1-.68,2.09-1.01,3.25-1.01s2.09.37,2.73,1.12c.56.65.83,1.47.83,2.45ZM759.48,506.22v-.57l-.6.07c-1.48.15-2.52.36-3.12.62-.8.32-1.21.84-1.21,1.56,0,.21.05.42.14.61s.22.37.39.52c.17.15.37.28.61.37.24.09.51.14.81.14.8,0,1.51-.33,2.11-.98.58-.66.87-1.45.87-2.36Z" fill="#fff" stroke="#fff" stroke-miterlimit="10" stroke-width=".25"/>
    <path d="M771.75,505.37h-7.22c0,1.36.32,2.4.95,3.12.63.72,1.46,1.07,2.49,1.07.78,0,1.53-.25,2.25-.75.2-.13.41-.29.64-.49s.47-.42.73-.68v1.54c-.28.21-.55.4-.79.56-.24.16-.47.29-.68.4-.74.39-1.49.59-2.23.59-1.29,0-2.38-.44-3.28-1.33-.97-.94-1.45-2.15-1.45-3.64,0-1.41.44-2.59,1.31-3.53.89-.96,1.98-1.44,3.28-1.44s2.27.46,3.01,1.38c.66.84.99,1.91.99,3.19ZM764.71,504.28h5.55c-.14-.8-.45-1.41-.91-1.8-.47-.4-1.03-.59-1.69-.59-.73,0-1.35.23-1.86.69-.47.43-.83.99-1.08,1.7Z" fill="#fff" stroke="#fff" stroke-miterlimit="10" stroke-width=".25"/>
    <path d="M783.81,496.58h1.37l5.18,13.92h-1.63l-1.67-4.76h-5.29l-1.74,4.76h-1.54l5.32-13.92ZM786.67,504.51l-2.15-6.27-2.32,6.27h4.47Z" fill="#fff" stroke="#fff" stroke-miterlimit="10" stroke-width=".25"/>
    <path d="M791.71,496.58h1.28v6.12c.29-.47.66-.87,1.08-1.19.65-.49,1.38-.73,2.18-.73.5,0,.94.07,1.34.21.4.14.76.35,1.09.62.7.62,1.05,1.48,1.05,2.59v6.28h-1.3v-6.11c0-.69-.22-1.27-.66-1.74-.44-.47-.97-.71-1.6-.71-.91,0-1.67.36-2.27,1.08-.62.75-.92,1.6-.92,2.56v4.92h-1.28v-13.92Z" fill="#fff" stroke="#fff" stroke-miterlimit="10" stroke-width=".25"/>
    <path d="M809.21,504.14v6.35h-1.28v-6.27c0-.66-.24-1.21-.73-1.63-.49-.44-1.06-.66-1.74-.66-.9,0-1.67.37-2.32,1.12-.65.76-.98,1.61-.98,2.56v4.88h-1.21v-9.5h1.12l.05,1.78c.32-.48.69-.89,1.12-1.21.7-.52,1.48-.78,2.36-.78,1.02,0,1.87.31,2.55.92.7.6,1.05,1.41,1.05,2.43Z" fill="#fff" stroke="#fff" stroke-miterlimit="10" stroke-width=".25"/>
  </g>
  <g>
    <path d="M729.68,571.93l1.07.88-3.84,4.7,5.92,4.84,3.84-4.7,1.07.88-8.81,10.77-1.07-.88,4.23-5.17-5.92-4.84-4.23,5.17-1.07-.88,8.81-10.77Z" fill="#fff" stroke="#fff" stroke-miterlimit="10" stroke-width=".25"/>
    <path d="M736.16,582.94l1.1.9-2.55,8.28,7.24-4.45,1.08.89-9.77,5.7c-.7.41-1.32.59-1.87.55-.48-.04-.94-.24-1.37-.59-.22-.18-.39-.35-.51-.5-.12-.15-.23-.31-.32-.48l.78-.95c.08.17.17.34.3.52.12.18.25.32.38.42.32.26.64.38.95.37.31-.02.69-.15,1.11-.4l.63-.43,2.84-9.83Z" fill="#fff" stroke="#fff" stroke-miterlimit="10" stroke-width=".25"/>
    <path d="M747.73,598.04l-5.59-4.57c-.86,1.05-1.27,2.06-1.24,3.01.04.95.45,1.76,1.25,2.41.6.49,1.34.78,2.22.85.24.03.51.03.8.03s.63-.03,1-.07l-.98,1.19c-.35-.01-.68-.04-.96-.07-.29-.03-.55-.07-.78-.12-.82-.17-1.52-.49-2.1-.96-1-.82-1.56-1.85-1.7-3.11-.16-1.34.23-2.58,1.18-3.74.89-1.09,1.98-1.73,3.25-1.9,1.29-.18,2.44.14,3.45.96.98.8,1.47,1.79,1.46,2.98-.02,1.07-.44,2.1-1.25,3.1ZM742.97,592.75l4.3,3.51c.4-.71.54-1.37.43-1.97-.11-.6-.42-1.11-.94-1.53-.57-.46-1.19-.68-1.88-.64-.64.03-1.27.24-1.92.63Z" fill="#fff" stroke="#fff" stroke-miterlimit="10" stroke-width=".25"/>
    <path d="M753.01,596.72l.99.81-6.46,7.9c-.58.71-1.2,1.06-1.87,1.06-.58.02-1.13-.19-1.66-.63-.25-.2-.43-.39-.56-.57-.13-.18-.24-.38-.34-.6l.74-.91c.1.22.2.42.32.6.12.18.26.34.41.46.35.28.7.4,1.05.34.35-.06.67-.26.96-.62l6.42-7.85ZM755.98,593.96c.19.16.3.35.32.59.02.23-.06.47-.26.71-.2.24-.4.37-.63.4-.22.03-.44-.04-.65-.21-.21-.17-.31-.38-.31-.62,0-.24.09-.46.25-.65.25-.3.48-.45.7-.44.22.01.41.08.58.22Z" fill="#fff" stroke="#fff" stroke-miterlimit="10" stroke-width=".25"/>
    <path d="M755.3,598.59l.99.81-6.01,7.35-.99-.81,6.01-7.35ZM758.32,595.88c.19.16.3.35.32.59.02.23-.06.47-.26.71-.2.24-.4.37-.63.4-.23.03-.44-.04-.65-.21-.21-.17-.31-.38-.31-.62,0-.24.09-.46.24-.65.25-.3.48-.45.7-.44.22.01.41.09.58.22Z" fill="#fff" stroke="#fff" stroke-miterlimit="10" stroke-width=".25"/>
    <path d="M761.95,608.09l-4.02,4.92-.99-.81,3.97-4.85c.42-.51.58-1.09.47-1.72-.1-.65-.41-1.18-.93-1.61-.7-.57-1.53-.77-2.51-.6-.98.17-1.77.63-2.37,1.36l-3.09,3.78-.93-.76,6.01-7.35.86.71-1.08,1.41c.55-.17,1.1-.25,1.63-.23.87.04,1.64.33,2.32.89.79.64,1.25,1.42,1.39,2.33.16.91-.09,1.76-.73,2.54Z" fill="#fff" stroke="#fff" stroke-miterlimit="10" stroke-width=".25"/>
    <path d="M772.56,607l1.07.88-3.84,4.7,5.92,4.84,3.84-4.7,1.07.88-8.81,10.77-1.07-.88,4.23-5.17-5.92-4.84-4.23,5.17-1.07-.88,8.81-10.77Z" fill="#fff" stroke="#fff" stroke-miterlimit="10" stroke-width=".25"/>
    <path d="M783.88,621.97l.93.76-1.69,4.39c-.23.56-.47,1.14-.72,1.74-.25.6-.5,1.14-.73,1.64.1-.07.19-.13.27-.17.08-.05.15-.09.22-.14.38-.27.78-.53,1.17-.81.4-.27.81-.56,1.22-.86l4.07-2.68,1.03.84-8.47,5.34-.92-.75,2.02-5.13c.21-.56.38-1,.5-1.32.12-.32.21-.54.26-.64.09-.19.17-.34.24-.47.07-.12.15-.23.22-.32-.28.18-.53.34-.75.48s-.4.27-.55.38c-.46.32-.82.57-1.08.77-.27.2-.44.33-.53.39l-4.18,2.73-.93-.76,3.57-9.35,1.07.88-3.12,7.79c.26-.23.52-.44.76-.63s.49-.37.74-.53c.17-.12.35-.24.53-.37.18-.13.37-.25.58-.37l4.27-2.81Z" fill="#fff" stroke="#fff" stroke-miterlimit="10" stroke-width=".25"/>
    <path d="M794.32,634.85l-2.83,3.46c-.13.16-.2.32-.23.49-.03.17.05.33.24.48.05.04.1.08.14.11.04.03.08.05.13.07.07.03.13.05.19.06.06.01.1.03.14.04l-.63.77c-.21-.08-.41-.18-.59-.29-.18-.11-.32-.21-.41-.28-.47-.38-.67-.76-.62-1.12,0-.25.22-.64.64-1.15-.28.1-.55.18-.79.24-.24.05-.46.08-.66.09-.78-.01-1.49-.28-2.12-.8-.67-.55-1.09-1.22-1.26-2.02-.17-.84.01-1.59.55-2.24.67-.81,1.57-1.08,2.71-.79.42.1.93.3,1.52.6.59.3,1.27.69,2.04,1.16l.71.47c.52-.64.77-1.28.74-1.9-.03-.63-.36-1.2-.99-1.72-.24-.2-.5-.36-.78-.49s-.59-.23-.94-.3c-.19-.03-.4-.06-.64-.09s-.51-.04-.82-.03l.92-1.13c1.2.11,2.26.54,3.15,1.27.92.75,1.38,1.61,1.41,2.59.02.86-.28,1.66-.91,2.42ZM792.14,635.47l.36-.44-.51-.33c-1.24-.82-2.18-1.31-2.81-1.5-.82-.26-1.47-.11-1.92.45-.13.16-.23.35-.28.56-.05.21-.06.43-.03.65.03.22.11.45.24.68s.31.43.53.62c.62.51,1.37.7,2.25.58.87-.15,1.59-.57,2.17-1.28Z" fill="#fff" stroke="#fff" stroke-miterlimit="10" stroke-width=".25"/>
    <path d="M802.89,641.58l-4.02,4.92-.99-.81,3.97-4.85c.42-.51.58-1.09.47-1.72-.1-.65-.41-1.18-.93-1.61-.7-.57-1.53-.77-2.51-.61-.98.17-1.77.63-2.37,1.36l-3.09,3.78-.93-.76,6.01-7.35.87.71-1.08,1.41c.55-.17,1.1-.25,1.63-.23.87.04,1.64.33,2.32.89.79.64,1.25,1.42,1.39,2.33.16.91-.08,1.76-.73,2.55Z" fill="#fff" stroke="#fff" stroke-miterlimit="10" stroke-width=".25"/>
    <path d="M810.93,645.47l.95-.6.73.6-5.44,6.65c-.94,1.14-1.93,1.79-2.97,1.93-1.04.14-2.15-.27-3.32-1.23-.48-.39-.86-.84-1.14-1.36-.29-.52-.52-1.15-.69-1.89l.99-1.21c.07.51.17.98.3,1.4.13.42.29.79.48,1.12.22.38.5.71.84.99.72.59,1.42.89,2.09.89.82,0,1.6-.44,2.33-1.33l.74-.91c-.82.29-1.58.35-2.29.17-.48-.12-.93-.35-1.36-.7-.91-.74-1.37-1.72-1.39-2.95,0-1.24.4-2.34,1.2-3.31.79-.97,1.78-1.59,2.95-1.87,1.36-.31,2.54-.05,3.57.79.51.42.9.94,1.15,1.56.07.2.13.4.18.61.05.21.09.43.11.66ZM808.5,648.44l1.65-2.02c-.01-.3-.05-.58-.11-.83-.06-.25-.14-.48-.22-.7-.1-.25-.23-.48-.38-.68-.15-.2-.33-.39-.53-.55-.69-.56-1.45-.78-2.3-.66-.95.14-1.8.66-2.53,1.55-.67.82-1.01,1.66-1.02,2.54-.01.86.31,1.56.97,2.1.65.53,1.41.73,2.27.59.85-.12,1.58-.56,2.21-1.33Z" fill="#fff" stroke="#fff" stroke-miterlimit="10" stroke-width=".25"/>
  </g>
</svg>