<?xml version="1.0" encoding="UTF-8"?>
<svg id="Layer_3" data-name="Layer 3" xmlns="http://www.w3.org/2000/svg" width="1280" height="1024" viewBox="0 0 1280 1024">
  <g>
    <path d="M125.56,340.62c14.66,2.2,24.53,13.28,24.53,28.15,0,16.65-12.37,27.6-29.98,28.07-13.76,0-24.92-7.47-28.38-19.99-5.66-20.47,12.83-39.38,33.83-36.24ZM293.54,340.62c14.66,2.2,24.53,13.28,24.53,28.15,0,16.65-12.37,27.6-29.98,28.07-13.76,0-24.92-7.47-28.38-19.99-5.66-20.47,12.83-39.38,33.83-36.24Z" fill="#fff"/>
    <path d="M323.59,626.69c-7.6-3.39-11.08-11.47-13.2-19.4-7.28-27.06-21.88-83.21-29.79-112.98-2.44-9.85-6.26-21.48-16.77-24.42-11.28-3.09-20.7,4.73-23.95,18.46-2.33,11.48-1.21,28.11-2.61,41.46-2.65,41.27-20.15,83.17-61.77,98.08-63.07,23.16-129.48-19.62-137.14-89.72-2.44-17.64-1.81-36.81.46-53.85,1.98-14.05,4.51-30.72,13.74-36.11,11.89-7.57,36.05-6.72,44.14,3.89,4.73,8.02,1.21,16.07-1.02,28.65-3.61,18.46-5.76,40.12-.59,58.49,2.91,10.5,9.49,19.4,19.41,23.97,19.2,8.11,47.01,10.19,65.07-1.43,11.06-8.59,14.62-23.2,16.1-36.91,2.84-23.93-7.83-49.91-16.45-70.95-11.89-27.15,8.09-21.01,33.25-21.93,39.85.31,84.44-.62,124.53.38,9.79.8,11.25,4.32,11.7,16.47.15,5.03.26,10.19.33,15.68.31,19.62.66,39.69.98,59.94.45,24.93.91,57.34,1.29,79.33-.06,6.68.66,13.36-2.93,18.98-4.87,6.79-15.82,7.99-24.48,4.09l-.31-.15Z" fill="#fff"/>
  </g>
  <g>
    <path d="M436.54,555.75c2.2-14.66,13.28-24.53,28.15-24.53,16.65,0,27.6,12.37,28.07,29.98,0,13.76-7.47,24.92-19.99,28.38-20.47,5.66-39.38-12.83-36.24-33.83ZM436.54,387.77c2.2-14.66,13.28-24.53,28.15-24.53,16.65,0,27.6,12.37,28.07,29.98,0,13.76-7.47,24.92-19.99,28.38-20.47,5.66-39.38-12.83-36.24-33.83Z" fill="#fff"/>
    <path d="M722.61,357.72c-3.39,7.6-11.47,11.08-19.4,13.2-27.06,7.28-83.21,21.88-112.98,29.79-9.85,2.44-21.48,6.26-24.42,16.77-3.09,11.28,4.73,20.7,18.46,23.95,11.48,2.33,28.11,1.21,41.46,2.61,41.27,2.65,83.17,20.15,98.08,61.77,23.16,63.07-19.62,129.48-89.72,137.14-17.64,2.44-36.81,1.81-53.85-.46-14.05-1.98-30.72-4.51-36.11-13.74-7.57-11.89-6.72-36.05,3.89-44.14,8.02-4.73,16.07-1.21,28.65,1.02,18.46,3.61,40.12,5.76,58.49.59,10.5-2.91,19.4-9.49,23.97-19.41,8.11-19.2,10.19-47.01-1.43-65.07-8.59-11.06-23.2-14.62-36.91-16.1-23.93-2.84-49.91,7.83-70.95,16.45-27.15,11.89-21.01-8.09-21.93-33.25.31-39.85-.62-84.44.38-124.53.8-9.79,4.32-11.25,16.47-11.7,5.03-.15,10.19-.26,15.68-.33,19.62-.31,39.69-.66,59.94-.98,24.93-.45,57.34-.91,79.33-1.29,6.68.06,13.36-.66,18.98,2.93,6.79,4.87,7.99,15.82,4.09,24.48l-.15.31Z" fill="#fff"/>
  </g>
</svg>