<?xml version="1.0" encoding="UTF-8"?>
<svg id="Layer_1" data-name="Layer 1" xmlns="http://www.w3.org/2000/svg" width="1280" height="1024" viewBox="0 0 1280 1024">
  <path d="M1242.4,378.8v-15.3c0-19.11-5.9-34.81-17.54-46.67-11.69-11.91-26.82-17.95-44.95-17.95-13.49,0-25.3,3.35-35.28,9.96-.29-1.26-.81-2.47-1.57-3.56-1.92-2.77-5.09-4.43-8.46-4.43h-20.31c-4.41,0-8.33,2.81-9.75,6.98l-26.12,76.81-24.34-76.61c-1.36-4.28-5.33-7.18-9.82-7.18h-21.32c-3.37,0-6.52,1.64-8.45,4.4-.64.92-1.11,1.93-1.42,2.98-9.78-6.2-21.27-9.35-34.33-9.35-18.14,0-33.26,6.04-44.95,17.95-3.49,3.56-6.46,7.48-8.92,11.72v-17.4c0-5.69-4.61-10.3-10.3-10.3h-19.19c-3.48,0-6.55,1.73-8.41,4.37v-16.18c.22.22.42.46.65.67,4.7,4.39,10.68,6.71,17.3,6.71,4.31,0,8.36-.94,12.04-2.79,4.04-2.03,7.23-5.02,9.48-8.87,2.16-3.7,3.26-7.91,3.26-12.52,0-6.85-2.49-12.89-7.21-17.49-4.64-4.52-10.72-6.91-17.57-6.91s-12.65,2.36-17.36,6.82c-1.18,1.12-2.22,2.33-3.13,3.62-1.89-2.17-4.66-3.55-7.77-3.55h-19.42c-5.69,0-10.3,4.61-10.3,10.3v58.06c-1.62-2.19-3.39-4.28-5.33-6.26-11.69-11.91-26.82-17.95-44.95-17.95s-33.26,6.04-44.95,17.95c-2.97,3.02-5.56,6.3-7.78,9.82-2.18-3.75-4.75-7.21-7.74-10.36-11-11.55-25.61-17.41-43.43-17.41-11.16,0-20.78,2.25-28.64,6.69v-40.55c0-5.69-4.61-10.3-10.3-10.3h-19.19c-5.69,0-10.3,4.61-10.3,10.3v85.66h-61.01c-2.11-13.41-7.64-24.77-16.56-33.86-11.69-11.91-26.82-17.95-44.95-17.95-14.22,0-26.57,3.73-36.88,11.07-.11-.98-.37-1.94-.77-2.88-1.63-3.78-5.35-6.22-9.46-6.22h-22.67c-2.83,0-5.54,1.17-7.49,3.23l-37.09,39.26v-40.88c3.38.42,6.9.63,10.55.63,8.54,0,16.52-1.2,23.71-3.58,7.43-2.45,13.64-5.8,18.46-9.95,4.56-3.91,8.27-8.09,11.05-12.41,2.98-4.65,4.92-9.46,5.75-14.32.51-2.99-.32-6.06-2.28-8.38-1.96-2.32-4.84-3.66-7.88-3.66h-20.31c-4.4,0-8.32,2.8-9.75,6.96-.74,2.15-3.21,3.96-5.16,5.1-3.43,2-8.01,3.02-13.6,3.02-4.09,0-7.59-.62-10.6-1.85-.5-5.14-4.77-9.16-10.01-9.28-1.76-3.19-2.84-6.83-3.25-11h74.59c5.69,0,10.3-4.61,10.3-10.3v-15.3c0-19.11-5.9-34.81-17.54-46.67-11.69-11.91-26.82-17.95-44.95-17.95s-33.26,6.04-44.95,17.95c-2.07,2.11-3.95,4.35-5.66,6.7v-12.39c0-5.69-4.61-10.3-10.3-10.3h-19.08c-5.69,0-10.3,4.61-10.3,10.3v80.12c0,5.39-2.12,9.83-6.67,13.96-4.78,4.34-10.64,6.45-17.93,6.45-13.76,0-18.88-4.85-18.88-17.9v-82.63c0-5.69-4.61-10.3-10.3-10.3h-13.59c-1.24-.69-2.64-1.15-4.15-1.28-3.83-.32-6.5-.47-8.38-.47-11.4,0-20.81,2.3-28.04,6.84-1.79-3.05-5.1-5.09-8.89-5.09h-18.05c4.83-.85,8.51-5.06,8.51-10.14v-17.05c0-5.69-4.61-10.3-10.3-10.3H47.9c-5.69,0-10.3,4.61-10.3,10.3v17.05c0,5.69,4.61,10.3,10.3,10.3h40.88v135.06c0,5.69,4.61,10.3,10.3,10.3h3.78c-4.05,1.14-7.59,2.68-10.64,4.52-1.84-2.82-5.02-4.68-8.64-4.68h-19.08c-5.69,0-10.3,4.61-10.3,10.3v124.93c0,5.69,4.61,10.3,10.3,10.3h19.08c5.69,0,10.3-4.61,10.3-10.3v-80.77c0-5.93,1.7-10.43,5.36-14.16,3.6-3.67,7.93-5.38,13.63-5.38,6.01,0,10.47,1.57,13.64,4.79,3.26,3.32,4.78,7.51,4.78,13.21v82.3c0,5.69,4.61,10.3,10.3,10.3h19.08c5.69,0,10.3-4.61,10.3-10.3v-80.55c0-5.9,1.76-10.42,5.53-14.21,3.76-3.78,8.25-5.54,14.13-5.54s10.41,1.39,13.16,4.26c2.87,2.99,4.26,7.09,4.26,12.55v83.5c0,5.69,4.61,10.3,10.3,10.3h19.19c5.69,0,10.3-4.61,10.3-10.3v-2.33c.48.48.97.96,1.47,1.42,4.58,4.18,10.19,7.49,16.68,9.84,6.34,2.29,13.22,3.46,20.45,3.46,11.09,0,20.89-2.46,29.11-7.24,1.78,3.09,5.11,5.17,8.93,5.17h18.74c2.87,0,5.47-1.18,7.34-3.08,1.87,1.9,4.46,3.08,7.34,3.08h19.19c5.69,0,10.3-4.61,10.3-10.3v-42.32l.95-.93,38.28,49.55c1.95,2.52,4.96,4,8.15,4h23.12c3.93,0,7.52-2.24,9.25-5.77.18-.36.32-.74.45-1.11,9.85,5.94,21.77,8.96,35.61,8.96,8.54,0,16.52-1.2,23.71-3.58,7.43-2.45,13.64-5.8,18.46-9.95,4.56-3.91,8.27-8.09,11.05-12.41,2.98-4.65,4.92-9.46,5.75-14.32.51-2.99-.32-6.06-2.28-8.38-1.96-2.32-4.84-3.66-7.88-3.66h-20.31c-4.4,0-8.32,2.8-9.75,6.96-.74,2.15-3.21,3.96-5.16,5.1-3.43,2-8.01,3.02-13.6,3.02-7.82,0-13.56-2.22-17.57-6.78-3.61-4.11-5.68-9.15-6.28-15.35h74.59c1.56,0,3.04-.36,4.37-.98h65.97v47.95c0,3.46,1.72,6.52,4.34,8.39-8.85.63-16.62,2.78-23.17,6.48v-40.55c0-5.69-4.61-10.3-10.3-10.3h-19.19c-5.69,0-10.3,4.61-10.3,10.3v171.05c0,5.69,4.61,10.3,10.3,10.3h18.18c3.9,0,7.3-2.17,9.04-5.37.11.07.22.13.32.19,8.06,4.81,18.12,7.25,29.91,7.25,17.94,0,32.68-5.84,43.82-17.35,3.08-3.18,5.71-6.68,7.94-10.48,2.4,3.8,5.23,7.3,8.51,10.46,11.96,11.52,27.62,17.36,46.54,17.36s34.06-5.87,46.18-17.45c3.71-3.55,6.86-7.5,9.46-11.83,5.22,7.48,11.84,13.39,19.76,17.58,9.17,4.86,19.48,7.32,30.64,7.32,6.9,0,13.47-1.08,19.52-3.21,2.6-.91,5.04-1.98,7.32-3.18-.61,5.44-2.46,9.59-5.58,12.6-3.98,3.82-10.52,5.76-19.46,5.76-6.55,0-11.72-1.14-15.35-3.38-2.73-1.69-4.28-3.4-4.61-5.1-.93-4.85-5.18-8.35-10.12-8.35h-20.09c-2.94,0-5.74,1.26-7.69,3.45-1.95,2.19-2.88,5.12-2.54,8.04,1.45,12.53,7.51,22.95,18,30.98,10.03,7.68,24,11.58,41.5,11.58,19.86,0,35.85-5.04,47.53-14.97,12.16-10.35,18.33-25.55,18.33-45.17v-3.2c1.88,2.46,4.03,4.7,6.49,6.67,9.73,7.86,22.81,11.85,38.85,11.85,11.84,0,21.91-2.69,29.96-7.99,1.65,3.49,5.2,5.91,9.32,5.91h19.08c5.69,0,10.3-4.61,10.3-10.3v-.91c1,.84,2.04,1.65,3.15,2.42,10.36,7.21,23.76,10.86,39.83,10.86,17.31,0,31.65-4.14,42.63-12.31,11.75-8.74,17.96-21.43,17.96-36.68,0-4.97-.67-9.61-1.99-13.81-1.48-4.69-3.89-8.82-7.17-12.3-2.71-2.86-5.64-5.37-8.71-7.45-3.25-2.21-7.22-4.09-11.77-5.58-3.93-1.29-7.74-2.36-11.32-3.2-3.15-.73-6.83-1.45-10.96-2.14-.96-.35-1.96-.57-2.98-.65-.44-.09-.88-.15-1.32-.19-3.45-.67-6.11-1.18-7.95-1.53-.96-.18-2.75-.63-5.86-1.75-2.9-1.05-3.96-1.79-4.13-1.93-.28-.21-.86-.76-1.58-1.99-.37-.63-.44-1.62-.44-2.34,0-1.83.44-3.23,1.43-4.53,1.18-1.55,2.83-2.71,5.05-3.55,2.85-1.08,6.34-1.63,10.38-1.63s7.84.67,10.72,2c2.48,1.14,4.32,2.45,5.16,3.67.94,1.36,1.44,2.66,1.58,4.11.5,5.3,4.94,9.34,10.26,9.34h17.96c5.69,0,10.3-4.61,10.3-10.3,0-6.6-1.42-12.81-4.22-18.46-2.78-5.61-6.78-10.46-11.89-14.43-4.85-3.77-10.74-6.75-17.51-8.86-1.33-.41-2.69-.78-4.07-1.11,3.6-.59,6.67-3.06,7.97-6.55l19.91-53.28c.51,18.16,6.25,33.03,17.11,44.22,11.47,11.83,27.21,17.83,46.79,17.83,8.54,0,16.52-1.2,23.71-3.58,7.43-2.45,13.64-5.8,18.46-9.95,4.56-3.91,8.27-8.09,11.05-12.41,2.98-4.65,4.92-9.46,5.75-14.32.51-2.99-.32-6.06-2.28-8.38-1.96-2.32-4.84-3.66-7.88-3.66h-20.31c-4.4,0-8.32,2.8-9.75,6.96-.74,2.15-3.21,3.96-5.16,5.1-3.43,2-8.01,3.02-13.6,3.02-7.82,0-13.56-2.22-17.57-6.78-3.61-4.11-5.68-9.15-6.28-15.35h74.59c5.69,0,10.3-4.61,10.3-10.3ZM1201.58,354.07h-43.49c.95-4.62,2.8-8.39,5.58-11.44,4.07-4.46,9.2-6.54,16.13-6.54,4.67,0,8.58.98,11.97,2.99,3.25,1.93,5.73,4.68,7.57,8.43.98,1.99,1.73,4.18,2.23,6.56ZM1090.59,544.76c.31.57.47,1.37.47,2.37,0,1.97-.4,3.52-1.23,4.73-.48.7-1.81,2.08-5.41,3.54-3.42,1.39-7.95,2.09-13.47,2.09-17.28,0-18.28-6.7-18.77-9.92-.76-5.04-5.09-8.77-10.19-8.77h-14.92v-17.44c3.15,2.87,7.21,5.33,12.39,7.51,4.82,2.03,9.27,3.54,13.22,4.5,3.58.87,8.43,1.91,14.41,3.09,4.46.94,7.91,1.67,10.33,2.18,1.96.41,4.37,1.13,7.17,2.13,3.18,1.14,4.33,1.96,4.51,2.11.52.4,1.02,1.04,1.49,1.89ZM1000.4,354.07h-43.49c.95-4.62,2.8-8.39,5.58-11.44,4.07-4.46,9.2-6.54,16.13-6.54,4.67,0,8.59.98,11.97,2.99,3.25,1.93,5.73,4.68,7.58,8.43.98,1.99,1.73,4.18,2.23,6.56ZM924.87,436.07v-16.8c2.37,4.12,5.2,7.91,8.54,11.35,11.47,11.83,27.21,17.83,46.79,17.83,4.31,0,8.47-.31,12.46-.92-3.14,1.76-5.27,5.12-5.27,8.98v80.12c0,5.39-2.12,9.83-6.67,13.96-4.78,4.34-10.64,6.45-17.93,6.45-13.76,0-18.88-4.85-18.88-17.9v-82.63c0-5.69-4.61-10.3-10.3-10.3h-17.3c4.86-.83,8.56-5.05,8.56-10.14ZM824.63,510.95c0-4.79.64-9.2,1.91-13.1,1.18-3.63,2.79-6.56,4.92-8.97,2.05-2.32,4.55-4.07,7.63-5.38,3.2-1.35,6.87-2.03,10.92-2.03,7.11,0,12.34,2.25,16.48,7.06,4.48,5.22,6.66,11.34,6.66,18.7v20.11c0,7.09-2.1,13-6.42,18.09-3.94,4.64-9.19,6.8-16.5,6.8-7.71,0-13.52-2.41-18.28-7.6-4.93-5.36-7.33-12.38-7.33-21.45v-12.24ZM886.02,440.36c1.39,3.04,4.22,5.27,7.61,5.85h-9.04c-4.06,0-7.57,2.35-9.25,5.76-4.03-2.45-8.37-4.31-12.99-5.6h14.3c4.16,0,7.73-2.47,9.36-6.01ZM818.33,354.07h-43.49c.95-4.62,2.8-8.39,5.58-11.44,4.07-4.46,9.2-6.54,16.13-6.54,4.67,0,8.59.98,11.97,2.99,3.25,1.93,5.73,4.68,7.58,8.43.98,1.99,1.73,4.18,2.23,6.56ZM846.94,396.15h-20.31c-4.4,0-8.32,2.8-9.75,6.96-.74,2.15-3.21,3.96-5.16,5.1-3.43,2-8.01,3.02-13.6,3.02-7.82,0-13.56-2.22-17.57-6.78-3.61-4.11-5.68-9.15-6.28-15.35h72.67v7.05ZM664.12,386.01v-22.3c0-4.47.63-8.6,1.87-12.28,1.14-3.39,2.72-6.21,4.7-8.37,1.95-2.14,4.35-3.78,7.34-5.03,3.1-1.29,6.73-1.94,10.8-1.94,7.69,0,13.17,2.23,17.23,7.02,4.37,5.16,6.59,13.16,6.59,23.78v13.88c0,10.69-2.21,18.62-6.57,23.58-4.14,4.7-9.41,6.89-16.57,6.89-7.81,0-13.84-2.29-18.45-7.01-4.67-4.78-6.94-10.74-6.94-18.21ZM523.47,354.07h-43.49c.95-4.62,2.8-8.39,5.58-11.44,4.07-4.46,9.2-6.54,16.13-6.54,4.67,0,8.58.98,11.97,2.99,3.25,1.93,5.73,4.68,7.58,8.43.98,1.99,1.73,4.18,2.23,6.56ZM630.21,481.47c7.69,0,13.17,2.23,17.23,7.02,4.37,5.16,6.59,13.16,6.59,23.78v13.88c0,10.69-2.21,18.62-6.58,23.58-4.14,4.7-9.41,6.89-16.57,6.89-7.81,0-13.84-2.29-18.45-7.01-4.67-4.78-6.94-10.74-6.94-18.21v-22.3c0-4.47.63-8.6,1.87-12.28,1.14-3.39,2.72-6.21,4.7-8.37,1.95-2.14,4.35-3.78,7.34-5.03,3.1-1.29,6.73-1.94,10.8-1.94ZM418.19,208.7h-43.49c.95-4.62,2.8-8.39,5.58-11.44,4.07-4.46,9.2-6.54,16.13-6.54,4.67,0,8.59.98,11.97,2.99,3.25,1.93,5.73,4.68,7.58,8.43.98,1.99,1.73,4.18,2.23,6.56ZM440.22,396.4l-23.39-30.17,26.7-28.27c-2.8,7.67-4.22,16.19-4.22,25.54v20.22c0,4.42.32,8.64.91,12.68ZM277.63,392.06c2.07-1.91,6.45-2.96,12.33-2.96h23.59v4.24c0,5.16-1.86,9.19-5.85,12.68-4.35,3.8-9.71,5.65-16.39,5.65-5.2,0-9.4-1.24-12.85-3.78-1.81-1.34-3.67-3.38-3.67-8.43,0-4.23,1.52-6.17,2.85-7.39ZM268.18,351.29c4.45,0,8.39-2.85,9.78-7.08.71-2.16,2.6-7.9,17.38-7.9,6.6,0,11.51,1.26,14.58,3.73.9.72,3.62,2.92,3.62,10.45v2.49h-24.04c-10.93,0-20.61,1.87-28.77,5.56-4.97,2.25-9.26,5.06-12.86,8.38v-15.78c.55.09,1.11.15,1.68.15h18.63ZM178.26,301c-5.03,1.39-9.61,3.44-13.69,6.17-3.07,2.05-5.84,4.34-8.3,6.87-2.15-2.38-4.58-4.55-7.26-6.46-3.86-2.76-8.39-4.93-13.46-6.46-3.47-1.04-7.18-1.71-11.08-2.03,2.62-1.87,4.33-4.92,4.33-8.39v-135.06h39.73c-4.83.85-8.51,5.06-8.51,10.14v124.93c0,5.69,4.61,10.3,10.3,10.3h7.94ZM233.24,311.63c-9.28-8.36-21.94-12.64-37.61-12.75,2.47-1.88,4.07-4.84,4.07-8.19v-78.91c0-4,.8-7.38,2.45-10.33,1.53-2.74,3.99-4.99,7.52-6.86,3.47-1.85,7.87-2.84,13.06-2.97v61.59c0,16.83,5.27,29.62,15.67,38.02,8.2,6.63,18.78,10.49,31.51,11.54-4.45,1.51-8.5,3.45-12.13,5.82-6.47,4.23-11.35,9.86-14.51,16.61-2.41-5.18-5.75-9.72-10.02-13.57ZM347.64,324.11c-2.79-5.13-6.53-9.53-11.26-13.13-9.75-7.43-22.03-11.46-36.54-12.03,2.61-1.08,5.08-2.36,7.37-3.86,1.65,3.49,5.2,5.91,9.32,5.91h19.08c5.69,0,10.3-4.61,10.3-10.3v-11.77c.56.77,1.13,1.53,1.73,2.27v42.91ZM677.57,461.66c-7.18-7.54-15.91-12.64-26.06-15.28h1.3c3.9,0,7.3-2.17,9.04-5.37.11.07.21.13.32.19,8.06,4.81,18.12,7.25,29.91,7.25,17.94,0,32.68-5.84,43.82-17.35,3.02-3.12,5.61-6.54,7.81-10.25,2.17,3.51,4.71,6.77,7.61,9.77,11.47,11.83,27.21,17.83,46.79,17.83,8.54,0,16.52-1.2,23.72-3.58,7.43-2.45,13.64-5.8,18.46-9.95,2.47-2.12,4.68-4.32,6.64-6.57v7.72c0,3.46,1.71,6.52,4.33,8.39-1.63-.12-3.27-.21-4.96-.21-8.43,0-16.44,1.45-23.81,4.3-7.45,2.88-14.06,7.05-19.63,12.39-3.14,3.01-5.91,6.45-8.3,10.27-2.29-3.45-4.95-6.63-7.99-9.55-12.04-11.55-27.62-17.41-46.3-17.41s-34.05,6.02-46.24,17.9c-3.25,3.17-6.07,6.62-8.47,10.32-2.23-3.92-4.89-7.54-8-10.81ZM715.23,526.8v-15.63c0-9.51,2.33-16.77,7.13-22.2,4.52-5.12,10.24-7.5,17.98-7.5s13.34,2.33,17.71,7.34c4.67,5.36,6.95,12.68,6.95,22.36v15.63c0,9.87-2.22,17.26-6.78,22.59-4.21,4.92-9.91,7.22-17.93,7.22-5.43,0-9.87-1.11-13.56-3.38-3.6-2.22-6.31-5.33-8.26-9.49-2.14-4.57-3.23-10.26-3.23-16.93ZM908.48,447.95c-1.17-.78-2.52-1.32-3.97-1.57h7.93c-1.45.25-2.79.79-3.97,1.57ZM999.21,446.22c1.6-.4,3.17-.84,4.7-1.35,7.43-2.45,13.64-5.8,18.46-9.95,4.56-3.91,8.27-8.09,11.05-12.41,2.98-4.65,4.92-9.46,5.75-14.32.51-2.99-.32-6.06-2.28-8.38-1.96-2.32-4.84-3.66-7.88-3.66h-20.31c-4.4,0-8.32,2.8-9.75,6.96-.74,2.15-3.21,3.96-5.16,5.1-3.43,2-8.01,3.02-13.6,3.02-7.82,0-13.56-2.22-17.57-6.78-3.61-4.11-5.68-9.15-6.28-15.35h74.59c3.31,0,6.25-1.57,8.14-4l19.98,54.52c.79,2.16,2.27,3.92,4.12,5.11-11.56,1.23-21.7,4.89-30.22,10.93-2.15,1.52-4.11,3.2-5.88,5.01v-4.15c0-5.69-4.61-10.3-10.3-10.3h-17.56Z" fill="#86b2b1"/>
  <g>
    <path d="M799.27,208.06c-1.45-.97-2.56-2.38-3.34-4.24-.78-1.85-1.17-4.09-1.17-6.7s.39-4.84,1.17-6.7c.78-1.85,1.89-3.27,3.34-4.24,1.45-.97,3.18-1.46,5.19-1.46s3.73.49,5.18,1.46c1.45.97,2.57,2.39,3.35,4.25.78,1.86,1.17,4.09,1.17,6.69s-.39,4.86-1.17,6.71c-.78,1.85-1.89,3.26-3.34,4.23-1.45.97-3.18,1.45-5.19,1.45s-3.74-.49-5.19-1.46ZM806.88,204.48c.68-.6,1.21-1.5,1.58-2.71.37-1.21.56-2.7.56-4.48,0-2.76-.4-4.87-1.2-6.3-.8-1.44-1.92-2.16-3.36-2.16s-2.57.72-3.36,2.16c-.8,1.44-1.2,3.54-1.2,6.3,0,1.78.19,3.27.56,4.48.37,1.21.9,2.12,1.58,2.71.68.6,1.49.9,2.42.9s1.74-.3,2.42-.9Z" fill="#8cbfbf"/>
    <path d="M828.01,209.18h-5.03v-19.35h-.13l-5.53,3.46v-4.43l5.96-3.8h4.73v24.12Z" fill="#8cbfbf"/>
    <path d="M833.84,209.1c-.43-.26-.77-.6-1.02-1.02-.25-.43-.37-.89-.36-1.39-.01-.5.11-.96.36-1.38.25-.42.59-.76,1.02-1.01.43-.25.91-.37,1.42-.37.48,0,.93.13,1.36.37.43.25.77.59,1.02,1.01.26.42.38.88.38,1.38s-.13.96-.38,1.39c-.26.43-.6.77-1.02,1.02-.43.26-.88.38-1.36.38-.51,0-.98-.13-1.42-.38Z" fill="#8cbfbf"/>
    <path d="M841.92,205.55l8.66-7.96c.86-.82,1.52-1.5,1.99-2.05.47-.54.84-1.09,1.09-1.62.26-.54.38-1.11.38-1.72,0-.7-.16-1.31-.49-1.83-.33-.52-.78-.92-1.37-1.21-.58-.28-1.24-.42-1.97-.42-1.13,0-2.04.34-2.71,1.01-.68.67-1.02,1.58-1.02,2.72h-4.76c-.01-1.55.34-2.91,1.06-4.08.72-1.17,1.72-2.07,3.02-2.7,1.3-.63,2.79-.95,4.48-.95s3.2.3,4.5.91c1.3.61,2.31,1.45,3.02,2.52.72,1.08,1.07,2.31,1.07,3.7,0,.94-.18,1.85-.55,2.72-.37.87-1,1.84-1.91,2.91-.91,1.07-2.18,2.36-3.84,3.86l-3.66,3.56v.13h10.29v4.13h-17.26l-.03-3.63Z" fill="#8cbfbf"/>
    <path d="M862.74,205.55l8.66-7.96c.86-.82,1.52-1.5,1.99-2.05.47-.54.84-1.09,1.09-1.62.26-.54.38-1.11.38-1.72,0-.7-.16-1.31-.49-1.83-.33-.52-.78-.92-1.37-1.21-.58-.28-1.24-.42-1.97-.42-1.13,0-2.04.34-2.71,1.01-.68.67-1.02,1.58-1.02,2.72h-4.76c-.01-1.55.34-2.91,1.06-4.08.72-1.17,1.72-2.07,3.02-2.7,1.3-.63,2.79-.95,4.48-.95s3.2.3,4.5.91c1.3.61,2.31,1.45,3.02,2.52.72,1.08,1.07,2.31,1.07,3.7,0,.94-.18,1.85-.55,2.72-.37.87-1,1.84-1.91,2.91-.91,1.07-2.18,2.36-3.84,3.86l-3.66,3.56v.13h10.29v4.13h-17.26l-.03-3.63Z" fill="#8cbfbf"/>
    <path d="M885.67,191.48c.88-2.64,2.15-5.12,3.81-7.45h4.7c-.79,1.14-1.54,2.6-2.27,4.36-.72,1.76-1.31,3.66-1.76,5.7-.45,2.04-.67,4.01-.67,5.9s.22,3.88.67,5.92c.45,2.04,1.04,3.94,1.76,5.7.72,1.77,1.48,3.22,2.27,4.36h-4.7c-3.42-4.81-5.13-10.14-5.13-15.99,0-3.03.44-5.87,1.32-8.5Z" fill="#8cbfbf"/>
    <path d="M896.08,185.06h19.75v4.13h-7.4v19.99h-4.96v-19.99h-7.4v-4.13Z" fill="#8cbfbf"/>
    <path d="M918.93,185.06h5v9.99h10.46v-9.99h5.03v24.12h-5.03v-9.99h-10.46v9.99h-5v-24.12Z" fill="#8cbfbf"/>
    <path d="M963.44,185.06v15.66c0,1.74-.42,3.28-1.25,4.61-.83,1.33-2,2.36-3.51,3.09-1.51.73-3.25,1.09-5.23,1.09s-3.72-.36-5.22-1.09c-1.5-.73-2.67-1.76-3.5-3.09-.83-1.33-1.24-2.87-1.24-4.61v-15.66h5v15.26c0,.92.21,1.75.62,2.47.41.73.99,1.3,1.75,1.71.76.41,1.62.62,2.6.62s1.86-.21,2.61-.62c.76-.41,1.34-.98,1.74-1.71.41-.73.61-1.55.61-2.47v-15.26h5.03Z" fill="#8cbfbf"/>
    <path d="M967.5,185.06h9.46c1.81,0,3.36.32,4.66.97,1.29.64,2.28,1.56,2.96,2.74.68,1.18,1.02,2.57,1.02,4.16s-.37,3.05-1.1,4.23c-.73,1.18-1.79,2.06-3.16,2.65l5.13,9.38h-5.53l-4.61-8.56h-3.81v8.56h-5v-24.12ZM976.03,196.55c2.93,0,4.4-1.21,4.4-3.63,0-1.23-.37-2.17-1.1-2.81-.73-.64-1.83-.96-3.3-.96h-3.53v7.4h3.53Z" fill="#8cbfbf"/>
    <path d="M992.52,215.98h-4.7c.79-1.14,1.54-2.6,2.27-4.36.72-1.77,1.31-3.67,1.76-5.7.45-2.04.67-4.01.67-5.92s-.22-3.87-.67-5.9c-.45-2.04-1.04-3.94-1.76-5.7-.72-1.76-1.48-3.21-2.27-4.36h4.7c1.67,2.33,2.94,4.82,3.81,7.45.88,2.64,1.32,5.47,1.32,8.5,0,5.85-1.71,11.18-5.13,15.99Z" fill="#8cbfbf"/>
    <path d="M1021.34,199.09h-10.99v-3.93h10.99v3.93Z" fill="#8cbfbf"/>
    <path d="M1037.43,208.06c-1.45-.97-2.56-2.38-3.34-4.24-.78-1.85-1.17-4.09-1.17-6.7s.39-4.84,1.17-6.7c.78-1.85,1.89-3.27,3.34-4.24,1.45-.97,3.18-1.46,5.19-1.46s3.73.49,5.18,1.46c1.45.97,2.57,2.39,3.35,4.25.78,1.86,1.17,4.09,1.17,6.69s-.39,4.86-1.17,6.71c-.78,1.85-1.89,3.26-3.34,4.23-1.45.97-3.18,1.45-5.19,1.45s-3.74-.49-5.19-1.46ZM1045.05,204.48c.68-.6,1.21-1.5,1.58-2.71.37-1.21.56-2.7.56-4.48,0-2.76-.4-4.87-1.2-6.3-.8-1.44-1.92-2.16-3.36-2.16s-2.57.72-3.36,2.16c-.8,1.44-1.2,3.54-1.2,6.3,0,1.78.19,3.27.56,4.48.37,1.21.9,2.12,1.58,2.71.68.6,1.49.9,2.42.9s1.74-.3,2.42-.9Z" fill="#8cbfbf"/>
    <path d="M1066.17,209.18h-5.03v-19.35h-.13l-5.53,3.46v-4.43l5.96-3.8h4.73v24.12Z" fill="#8cbfbf"/>
    <path d="M1072,209.1c-.43-.26-.77-.6-1.02-1.02-.25-.43-.37-.89-.36-1.39-.01-.5.11-.96.36-1.38.25-.42.59-.76,1.02-1.01.43-.25.91-.37,1.42-.37.48,0,.93.13,1.36.37.43.25.77.59,1.02,1.01.26.42.38.88.38,1.38s-.13.96-.38,1.39c-.26.43-.6.77-1.02,1.02-.43.26-.88.38-1.36.38-.51,0-.98-.13-1.42-.38Z" fill="#8cbfbf"/>
    <path d="M1080.08,205.55l8.66-7.96c.86-.82,1.52-1.5,1.99-2.05.47-.54.84-1.09,1.09-1.62.26-.54.38-1.11.38-1.72,0-.7-.16-1.31-.49-1.83-.33-.52-.78-.92-1.37-1.21-.58-.28-1.24-.42-1.97-.42-1.13,0-2.04.34-2.71,1.01-.68.67-1.02,1.58-1.02,2.72h-4.76c-.01-1.55.34-2.91,1.06-4.08.72-1.17,1.72-2.07,3.02-2.7,1.3-.63,2.79-.95,4.48-.95s3.2.3,4.5.91c1.3.61,2.31,1.45,3.02,2.52.72,1.08,1.07,2.31,1.07,3.7,0,.94-.18,1.85-.55,2.72-.37.87-1,1.84-1.91,2.91-.91,1.07-2.18,2.36-3.84,3.86l-3.66,3.56v.13h10.29v4.13h-17.26l-.03-3.63Z" fill="#8cbfbf"/>
    <path d="M1105.12,208.63c-1.44-.59-2.56-1.4-3.37-2.44-.81-1.04-1.22-2.21-1.22-3.51,0-.99.23-1.91.7-2.76.47-.85,1.11-1.56,1.92-2.12.82-.56,1.72-.92,2.71-1.07v-.17c-.86-.17-1.62-.5-2.28-1.01-.67-.51-1.19-1.14-1.56-1.89-.37-.75-.56-1.57-.56-2.43,0-1.24.37-2.36,1.1-3.34.73-.98,1.75-1.75,3.05-2.32,1.3-.56,2.76-.84,4.38-.84s3.08.28,4.38.84c1.3.56,2.32,1.33,3.06,2.32.74.98,1.11,2.1,1.12,3.34-.01.88-.21,1.69-.58,2.44-.38.75-.9,1.38-1.57,1.88-.67.51-1.42.84-2.25,1.01v.17c.98.16,1.87.51,2.67,1.07.8.56,1.44,1.27,1.92,2.12.47.86.71,1.78.71,2.76,0,1.3-.41,2.47-1.22,3.51-.81,1.04-1.93,1.85-3.37,2.44-1.44.59-3.06.88-4.87.88s-3.43-.29-4.87-.88ZM1112.2,205.24c.64-.29,1.14-.71,1.49-1.24.36-.53.53-1.14.53-1.82s-.18-1.31-.54-1.87c-.36-.56-.86-.99-1.51-1.3-.64-.31-1.37-.47-2.18-.47s-1.54.16-2.19.47c-.65.31-1.15.74-1.52,1.3-.36.56-.54,1.18-.52,1.87-.01.68.16,1.28.51,1.82.35.53.85.95,1.49,1.24.64.29,1.39.44,2.23.44s1.57-.15,2.21-.44ZM1111.89,194.6c.56-.28,1-.67,1.31-1.17.31-.5.47-1.07.47-1.7s-.16-1.16-.47-1.65c-.31-.49-.74-.87-1.3-1.14-.56-.27-1.19-.41-1.9-.41s-1.34.13-1.89.4c-.55.27-.98.64-1.28,1.13-.31.49-.46,1.04-.46,1.67s.16,1.2.47,1.7c.31.5.74.89,1.29,1.17.55.28,1.17.42,1.87.42s1.33-.14,1.89-.42Z" fill="#8cbfbf"/>
    <path d="M1124.97,191.48c.88-2.64,2.15-5.12,3.81-7.45h4.7c-.79,1.14-1.54,2.6-2.27,4.36-.72,1.76-1.31,3.66-1.76,5.7-.45,2.04-.67,4.01-.67,5.9s.22,3.88.67,5.92c.45,2.04,1.04,3.94,1.76,5.7.72,1.77,1.48,3.22,2.27,4.36h-4.7c-3.42-4.81-5.13-10.14-5.13-15.99,0-3.03.44-5.87,1.32-8.5Z" fill="#8cbfbf"/>
    <path d="M1134.81,185.06h5.46l4.06,16.86h.2l4.43-16.86h4.7l4.43,16.89h.2l4.06-16.89h5.46l-6.9,24.12h-4.9l-4.6-15.92h-.2l-4.63,15.92h-4.9l-6.9-24.12Z" fill="#8cbfbf"/>
    <path d="M1170.39,185.06h16.19v4.13h-11.19v5.86h10.36v4.13h-10.36v5.86h11.23v4.13h-16.22v-24.12Z" fill="#8cbfbf"/>
    <path d="M1190.48,209.18v-24.12h8.59c2.41,0,4.49.48,6.25,1.44,1.75.96,3.1,2.35,4.04,4.16.94,1.81,1.41,3.95,1.41,6.43s-.47,4.66-1.42,6.47c-.94,1.82-2.3,3.21-4.06,4.17-1.77.97-3.87,1.45-6.31,1.45h-8.49ZM1198.77,204.88c2.33,0,4.08-.63,5.25-1.9,1.17-1.27,1.75-3.23,1.75-5.9s-.58-4.59-1.74-5.85c-1.16-1.25-2.9-1.88-5.22-1.88h-3.33v15.52h3.3Z" fill="#8cbfbf"/>
    <path d="M1217.86,215.98h-4.7c.79-1.14,1.54-2.6,2.27-4.36.72-1.77,1.31-3.67,1.76-5.7.45-2.04.67-4.01.67-5.92s-.22-3.87-.67-5.9c-.45-2.04-1.04-3.94-1.76-5.7-.72-1.76-1.48-3.21-2.27-4.36h4.7c1.67,2.33,2.94,4.82,3.81,7.45.88,2.64,1.32,5.47,1.32,8.5,0,5.85-1.71,11.18-5.13,15.99Z" fill="#8cbfbf"/>
    <path d="M1042.81,250.11h-5.03v-19.35h-.13l-5.53,3.46v-4.43l5.96-3.8h4.73v24.12Z" fill="#8cbfbf"/>
    <path d="M1052.57,248.99c-1.45-.97-2.56-2.38-3.34-4.24-.78-1.85-1.17-4.09-1.17-6.7s.39-4.84,1.17-6.7c.78-1.85,1.89-3.27,3.34-4.24,1.45-.97,3.18-1.46,5.19-1.46s3.73.49,5.18,1.46c1.45.97,2.57,2.39,3.35,4.25.78,1.86,1.17,4.09,1.17,6.69s-.39,4.86-1.17,6.71c-.78,1.85-1.89,3.26-3.34,4.23-1.45.97-3.18,1.45-5.19,1.45s-3.74-.49-5.19-1.46ZM1060.19,245.42c.68-.6,1.21-1.5,1.58-2.71.37-1.21.56-2.7.56-4.48,0-2.76-.4-4.87-1.2-6.3-.8-1.44-1.92-2.16-3.36-2.16s-2.57.72-3.36,2.16c-.8,1.44-1.2,3.54-1.2,6.3,0,1.78.19,3.27.56,4.48.37,1.21.9,2.12,1.58,2.71.68.6,1.49.9,2.42.9s1.74-.3,2.42-.9Z" fill="#8cbfbf"/>
    <path d="M1069.69,250.11l8.36-24.12h6.43l8.33,24.12h-5.36l-1.82-5.56h-8.73l-1.82,5.56h-5.4ZM1084.36,240.65l-3.01-9.23h-.17l-3.01,9.23h6.2Z" fill="#8cbfbf"/>
    <path d="M1101.73,226l6.7,16.36h.27l6.7-16.36h6.2v24.12h-4.86v-15.79h-.2l-6.3,15.69h-3.33l-6.3-15.76h-.2v15.86h-4.86v-24.12h6.2Z" fill="#8cbfbf"/>
    <path d="M1144.64,240.02h-10.99v-3.93h10.99v3.93Z" fill="#8cbfbf"/>
    <path d="M1167.66,230.26v-.17h-11.83v-4.1h17.02v4.16l-10.16,19.95h-5.2l10.16-19.85Z" fill="#8cbfbf"/>
    <path d="M1176.32,226h9.46c1.8,0,3.35.34,4.65,1.02,1.3.68,2.29,1.64,2.97,2.86.68,1.23,1.02,2.64,1.02,4.24s-.35,3.03-1.04,4.26c-.69,1.23-1.7,2.18-3.01,2.86-1.32.68-2.88,1.02-4.71,1.02h-4.33v7.86h-5v-24.12ZM1184.85,238.22c1.44,0,2.54-.37,3.28-1.11.74-.74,1.12-1.73,1.12-2.99s-.37-2.23-1.12-2.95c-.74-.72-1.84-1.08-3.28-1.08h-3.53v8.13h3.53Z" fill="#8cbfbf"/>
    <path d="M1203.77,226l6.7,16.36h.27l6.7-16.36h6.2v24.12h-4.86v-15.79h-.2l-6.3,15.69h-3.33l-6.3-15.76h-.2v15.86h-4.86v-24.12h6.2Z" fill="#8cbfbf"/>
  </g>
  <g>
    <path d="M789.36,155.79l-6.36-15.76v-.4l6.36-15.79h4.43l-6.13,15.99,6.13,15.96h-4.43ZM796.46,155.79l-6.36-15.76v-.4l6.36-15.79h4.43l-6.13,15.99,6.13,15.96h-4.43Z" fill="#8cbfbf"/>
    <path d="M815.24,133.98c.49,1.14,1.27,2.17,2.33,3.09,1.07.92,2.42,1.62,4.06,2.11l-2.47,3.73c-1.62-.5-3.02-1.24-4.19-2.22-1.17-.98-2.11-2.15-2.82-3.51-.72,1.49-1.7,2.77-2.92,3.85-1.23,1.08-2.7,1.89-4.42,2.45l-2.47-3.76c1.67-.51,3.05-1.25,4.14-2.22,1.09-.97,1.89-2.07,2.4-3.28.51-1.22.76-2.48.76-3.79h-6.03v-3.83h16.76v3.83h-5.86c0,1.23.24,2.42.73,3.56ZM828.77,154.6h-21.49v-10.03h4.86v6.2h16.62v3.83ZM828,146.53h-4.8v-21.99h4.8v21.99Z" fill="#8cbfbf"/>
    <path d="M844.73,133.98c.49,1.14,1.27,2.17,2.33,3.09,1.07.92,2.42,1.62,4.06,2.11l-2.47,3.73c-1.62-.5-3.02-1.24-4.19-2.22-1.17-.98-2.11-2.15-2.82-3.51-.72,1.49-1.7,2.77-2.92,3.85-1.23,1.08-2.7,1.89-4.42,2.45l-2.47-3.76c1.67-.51,3.05-1.25,4.14-2.22,1.09-.97,1.89-2.07,2.4-3.28.51-1.22.76-2.48.76-3.79h-6.03v-3.83h16.76v3.83h-5.86c0,1.23.24,2.42.73,3.56ZM858.25,154.6h-21.49v-10.03h4.86v6.2h16.62v3.83ZM857.48,146.53h-4.8v-21.99h4.8v21.99Z" fill="#8cbfbf"/>
    <path d="M874.08,140.65c-2.13,3.74-5.66,6.82-10.6,9.24l-2.7-3.66c3.54-1.78,6.26-3.85,8.15-6.23,1.89-2.38,3.05-5.21,3.46-8.49h-9.78v-3.93h14.66c0,4.97-1.06,9.33-3.19,13.08ZM885.53,136.01h4.1v3.93h-4.1v15.06h-4.8v-30.48h4.8v11.49Z" fill="#8cbfbf"/>
    <path d="M903.56,140.65c-2.13,3.74-5.66,6.82-10.6,9.24l-2.7-3.66c3.54-1.78,6.26-3.85,8.15-6.23,1.89-2.38,3.05-5.21,3.46-8.49h-9.78v-3.93h14.66c0,4.97-1.06,9.33-3.19,13.08ZM915.01,136.01h4.1v3.93h-4.1v15.06h-4.8v-30.48h4.8v11.49Z" fill="#8cbfbf"/>
    <path d="M933.17,133.98c.49,1.14,1.27,2.17,2.33,3.09,1.07.92,2.42,1.62,4.06,2.11l-2.47,3.73c-1.62-.5-3.02-1.24-4.19-2.22-1.17-.98-2.11-2.15-2.82-3.51-.72,1.49-1.7,2.77-2.92,3.85-1.23,1.08-2.7,1.89-4.42,2.45l-2.47-3.76c1.67-.51,3.05-1.25,4.14-2.22,1.09-.97,1.89-2.07,2.4-3.28.51-1.22.76-2.48.76-3.79h-6.03v-3.83h16.76v3.83h-5.86c0,1.23.24,2.42.73,3.56ZM946.69,154.6h-21.49v-10.03h4.86v6.2h16.62v3.83ZM945.93,146.53h-4.8v-21.99h4.8v21.99Z" fill="#8cbfbf"/>
    <path d="M962.53,140.65c-2.13,3.74-5.66,6.82-10.6,9.24l-2.7-3.66c3.54-1.78,6.26-3.85,8.15-6.23,1.89-2.38,3.05-5.21,3.46-8.49h-9.78v-3.93h14.66c0,4.97-1.06,9.33-3.19,13.08ZM973.98,136.01h4.1v3.93h-4.1v15.06h-4.8v-30.48h4.8v11.49Z" fill="#8cbfbf"/>
    <path d="M983.14,158.99h-3.9l1.6-9.63h5.26l-2.96,9.63ZM981.89,139.37c-.47-.27-.83-.63-1.1-1.1s-.39-.98-.38-1.53c-.01-.53.12-1.03.38-1.48.27-.46.63-.82,1.1-1.08s.97-.4,1.52-.4,1.01.13,1.47.4c.46.27.83.63,1.12,1.08.28.46.43.95.44,1.48-.01.56-.16,1.06-.43,1.52-.28.46-.65.83-1.12,1.1-.47.27-.96.41-1.48.41s-1.05-.13-1.52-.4Z" fill="#8cbfbf"/>
    <path d="M1014.52,135.84h3.13v3.96h-3.13v15.29h-4.8v-9.41l-2.47,2.88c-1.75-1.37-3.01-3.43-3.76-6.18-.9,2.93-2.32,5.08-4.26,6.45-1.9-1.38-3.29-3.49-4.16-6.33-.76,2.7-2,4.72-3.73,6.06l-3-3.46c1.22-.9,2.15-2.04,2.77-3.41.63-1.38,1.04-2.86,1.24-4.44.2-1.58.31-3.43.32-5.54v-.87h-3.06v-3.8h9.19v3.8h-1.63v.87c0,2.22.14,4.21.42,5.97.28,1.76.84,3.35,1.67,4.76.82-1.41,1.38-3,1.67-4.78.29-1.78.45-3.76.46-5.95v-.87h-1.63v-3.8h8.63v3.8h-2.47v.87c0,1.97.09,3.72.27,5.26.18,1.54.55,2.98,1.11,4.33.56,1.35,1.36,2.48,2.42,3.41v-20.19h4.8v11.33Z" fill="#8cbfbf"/>
    <path d="M1024.61,139.84l-6.13-15.99h4.43l6.36,15.79v.4l-6.36,15.76h-4.43l6.13-15.96ZM1031.71,139.84l-6.13-15.99h4.43l6.36,15.79v.4l-6.36,15.76h-4.43l6.13-15.96Z" fill="#8cbfbf"/>
  </g>
  <g>
    <circle cx="139.58" cy="158.22" r="26.86" fill="#c1e5e5"/>
    <circle cx="183.44" cy="281.84" r="27.51" fill="#c1e5e5"/>
    <circle cx="274.26" cy="561.92" r="32.8" fill="#c1e5e5"/>
    <g>
      <path d="M131.8,96.75c.91-.11.4-.34,2.17-.34,2.91,0,3.59.17,3.59.68s-.91,1.2-1.43,1.88c-1.77,2.85-4.74,6.96-6.68,9.19,1.31,1.08,3.37,2.62,4.28,3.25,2.34,1.43,2.62-.17,5.93,4.39.74.97,1.08,1.83,1.08,2.45,0,.68-.4,1.14-.97,1.14-.46,0-1.03-.29-1.65-.91-1.54-1.26-4.85-5.08-9.7-9.36-4.96,4.79-9.99,8.9-18.37,12.95-.57.29-1.03.4-1.31.4-.17,0-.28-.11-.28-.23,0-.23.34-.57,1.14-1.03,7.7-4.51,17.97-13.18,22.65-22.82-2.85.06-9.76.4-12.33.63-1.48.29-1.71.86-2.45.86-1.08,0-5.76-2.4-5.76-3.02,0-.23.29-.34.8-.34.29,0,.63.06,1.03.11,2.23.4,5.02.57,7.93.57,3.82,0,6.79-.23,10.33-.46ZM125.87,127.22c-.11-1.14-1.43-1.65-4.34-2.57-.63-.11-1.03-.34-1.03-.63s.46-.57,1.77-.8c2.62,0,5.02.23,6.16.4.97.23,1.2.51,1.2,1.03,0,.34-.17.86-.17,1.54,0,2.51,0,5.59.06,7.7,0,1.26.74,1.77,2.74,1.88l11.93-.11c4.28-.29,2.23-1.6,7.36-1.6,1.83,0,4.22.17,4.22,1.94,0,.63-.51,1.26-1.54,1.26h-22.2c-3.77-.06-5.93-.97-6.11-3.88l-.06-6.16ZM147.21,93.16c-.11-.74-2.4-2.34-4.79-3.31-.97-.34-1.43-.68-1.43-.97,0-.34.68-.51,2.05-.57,2.68.29,4.91.97,5.88,1.37,1.66.51,2.05.91,2.05,1.48,0,.4-.23.91-.23,1.65l-.06,23.97c0,2.45-.23,5.65-.91,7.99-.51,1.31-1.14,2-1.66,2s-.91-.8-.91-2.62v-30.98Z" fill="#4e9e92"/>
      <path d="M140.79,165.22c.91-.11.4-.34,2.17-.34,2.91,0,3.59.17,3.59.68s-.91,1.2-1.43,1.88c-1.77,2.85-4.74,6.96-6.68,9.19,1.31,1.08,3.37,2.62,4.28,3.25,2.34,1.43,2.62-.17,5.93,4.39.74.97,1.08,1.83,1.08,2.45,0,.68-.4,1.14-.97,1.14-.46,0-1.03-.29-1.65-.91-1.54-1.26-4.85-5.08-9.7-9.36-4.96,4.79-9.99,8.9-18.37,12.95-.57.29-1.03.4-1.31.4-.17,0-.28-.11-.28-.23,0-.23.34-.57,1.14-1.03,7.7-4.51,17.98-13.18,22.65-22.82-2.85.06-9.76.4-12.33.63-1.48.29-1.71.86-2.45.86-1.08,0-5.76-2.4-5.76-3.02,0-.23.29-.34.8-.34.29,0,.63.06,1.03.11,2.23.4,5.02.57,7.93.57,3.82,0,6.79-.23,10.33-.46ZM134.86,195.69c-.11-1.14-1.43-1.65-4.34-2.57-.63-.11-1.03-.34-1.03-.63s.46-.57,1.77-.8c2.62,0,5.02.23,6.16.4.97.23,1.2.51,1.2,1.03,0,.34-.17.86-.17,1.54,0,2.51,0,5.59.06,7.7,0,1.26.74,1.77,2.74,1.88l11.93-.11c4.28-.29,2.23-1.6,7.36-1.6,1.83,0,4.22.17,4.22,1.94,0,.63-.51,1.26-1.54,1.26h-22.2c-3.77-.06-5.93-.97-6.11-3.88l-.06-6.16ZM156.2,161.62c-.11-.74-2.4-2.34-4.79-3.31-.97-.34-1.43-.68-1.43-.97,0-.34.68-.51,2.05-.57,2.68.29,4.91.97,5.88,1.37,1.66.51,2.05.91,2.05,1.48,0,.4-.23.91-.23,1.65l-.06,23.97c0,2.45-.23,5.65-.91,7.99-.51,1.31-1.14,2-1.65,2s-.91-.8-.91-2.62v-30.98Z" fill="#4e9e92"/>
      <path d="M137.18,237.39c-1.77.28-2,.91-2.85.91-1.03,0-6.22-2.11-6.22-3.2,0-.17.17-.29.57-.29.29,0,.8.11,1.43.23,2.23.34,4.34.46,6.62.46,3.08,0,6.45-.23,10.73-.46,1.88-.17,1.48-.63,3.14-.63.91,0,3.48.17,3.48,1.03,0,.51-.74,1.14-1.2,1.83-5.36,12.55-12.21,20.49-24.94,29.27-.91.63-1.48.91-1.77.91-.17,0-.23-.06-.23-.17,0-.23.46-.8,1.43-1.6,8.1-6.39,18.6-18.95,21.28-29.1-1.65.11-9.64.57-11.47.8ZM162.8,229.12c-.06-.97-3.14-2.34-5.54-3.42-.63-.23-1.03-.51-1.03-.74,0-.34.68-.63,2.4-.68,2.45.4,4.74.97,6.56,1.54,1.2.46,1.48.86,1.48,1.43,0,.46-.17.97-.17,1.83v20.77h2.85c2.68-.4,1.77-1.48,5.42-1.48,1.08,0,3.48,0,3.48,1.77,0,.8-.68,1.48-1.94,1.48h-9.87l-.06,16.55c-.06,3.71-.46,6.05-1.43,8.45-.46.68-.91,1.03-1.31,1.03-.51,0-.86-.74-.86-2.63v-45.88Z" fill="#4e9e92"/>
      <path d="M146.17,305.86c-1.77.28-2,.91-2.85.91-1.03,0-6.22-2.11-6.22-3.2,0-.17.17-.29.57-.29.29,0,.8.11,1.43.23,2.23.34,4.34.46,6.62.46,3.08,0,6.45-.23,10.73-.46,1.88-.17,1.48-.63,3.14-.63.91,0,3.48.17,3.48,1.03,0,.51-.74,1.14-1.2,1.83-5.36,12.55-12.21,20.49-24.94,29.27-.91.63-1.48.91-1.77.91-.17,0-.23-.06-.23-.17,0-.23.46-.8,1.43-1.6,8.1-6.39,18.6-18.95,21.28-29.1-1.65.11-9.64.57-11.47.8ZM171.79,297.58c-.06-.97-3.14-2.34-5.54-3.42-.63-.23-1.03-.51-1.03-.74,0-.34.68-.63,2.4-.68,2.45.4,4.74.97,6.56,1.54,1.2.46,1.48.86,1.48,1.43,0,.46-.17.97-.17,1.83v20.77h2.85c2.68-.4,1.77-1.48,5.42-1.48,1.08,0,3.48,0,3.48,1.77,0,.8-.68,1.48-1.94,1.48h-9.87l-.06,16.55c-.06,3.71-.46,6.05-1.43,8.45-.46.68-.91,1.03-1.31,1.03-.51,0-.86-.74-.86-2.63v-45.88Z" fill="#4e9e92"/>
      <path d="M167.77,370.61c.91-.11.4-.34,2.17-.34,2.91,0,3.59.17,3.59.68s-.91,1.2-1.43,1.88c-1.77,2.85-4.74,6.96-6.68,9.19,1.31,1.08,3.37,2.62,4.28,3.25,2.34,1.43,2.62-.17,5.93,4.39.74.97,1.08,1.83,1.08,2.45,0,.68-.4,1.14-.97,1.14-.46,0-1.03-.29-1.65-.91-1.54-1.26-4.85-5.08-9.7-9.36-4.96,4.79-9.99,8.9-18.37,12.95-.57.29-1.03.4-1.31.4-.17,0-.28-.11-.28-.23,0-.23.34-.57,1.14-1.03,7.7-4.51,17.98-13.18,22.65-22.82-2.85.06-9.76.4-12.33.63-1.48.29-1.71.86-2.45.86-1.08,0-5.76-2.4-5.76-3.02,0-.23.29-.34.8-.34.29,0,.63.06,1.03.11,2.23.4,5.02.57,7.93.57,3.82,0,6.79-.23,10.33-.46ZM161.84,401.09c-.11-1.14-1.43-1.65-4.34-2.57-.63-.11-1.03-.34-1.03-.63s.46-.57,1.77-.8c2.62,0,5.02.23,6.16.4.97.23,1.2.51,1.2,1.03,0,.34-.17.86-.17,1.54,0,2.51,0,5.59.06,7.7,0,1.26.74,1.77,2.74,1.88l11.93-.11c4.28-.29,2.23-1.6,7.36-1.6,1.83,0,4.22.17,4.22,1.94,0,.63-.51,1.26-1.54,1.26h-22.2c-3.77-.06-5.93-.97-6.11-3.88l-.06-6.16ZM183.18,367.02c-.11-.74-2.4-2.34-4.79-3.31-.97-.34-1.43-.68-1.43-.97,0-.34.68-.51,2.05-.57,2.68.29,4.91.97,5.88,1.37,1.66.51,2.05.91,2.05,1.48,0,.4-.23.91-.23,1.65l-.06,23.97c0,2.45-.23,5.65-.91,7.99-.51,1.31-1.14,2-1.65,2s-.91-.8-.91-2.62v-30.98Z" fill="#4e9e92"/>
      <path d="M164.16,442.79c-1.77.28-2,.91-2.85.91-1.03,0-6.22-2.11-6.22-3.2,0-.17.17-.29.57-.29.29,0,.8.11,1.43.23,2.23.34,4.34.46,6.62.46,3.08,0,6.45-.23,10.73-.46,1.88-.17,1.48-.63,3.14-.63.91,0,3.48.17,3.48,1.03,0,.51-.74,1.14-1.2,1.83-5.36,12.55-12.21,20.49-24.94,29.27-.91.63-1.48.91-1.77.91-.17,0-.23-.06-.23-.17,0-.23.46-.8,1.43-1.6,8.1-6.39,18.6-18.95,21.28-29.1-1.65.11-9.64.57-11.47.8ZM189.78,434.52c-.06-.97-3.14-2.34-5.54-3.42-.63-.23-1.03-.51-1.03-.74,0-.34.68-.63,2.4-.68,2.45.4,4.74.97,6.56,1.54,1.2.46,1.48.86,1.48,1.43,0,.46-.17.97-.17,1.83v20.77h2.85c2.68-.4,1.77-1.48,5.42-1.48,1.08,0,3.48,0,3.48,1.77,0,.8-.68,1.48-1.94,1.48h-9.87l-.06,16.55c-.06,3.71-.46,6.05-1.43,8.45-.46.68-.91,1.03-1.31,1.03-.51,0-.86-.74-.86-2.63v-45.88Z" fill="#4e9e92"/>
      <path d="M159.51,553.6c1.26-3.37,2.8-9.47,3.42-13.64l5.54-.57c-1.37,4.85-3.88,11.18-5.48,13.87l-3.48.34ZM161.96,523.52c0-2.11,1.43-3.6,3.37-3.6,2.05,0,3.37,1.48,3.37,3.6,0,2-1.31,3.54-3.37,3.54s-3.37-1.54-3.37-3.54Z" fill="#4e9e92"/>
      <path d="M183.46,587.65c-3.37,4.74-11.36,11.58-12.78,11.58-.11,0-.17,0-.17-.11,0-.23.34-.69,1.14-1.37,8.85-8.73,11.07-14.27,12.73-18.49-1.77.06-3.37.23-4.91.4-1.37.17-1.43.63-2.05.63-.74,0-4.11-1.43-4.11-2.17,0-.17.28-.29.91-.29.46,0,2.62.06,3.08.06,2.17,0,4.51-.06,6.51-.17,1.43-.06.86-.46,2.11-.46,1.43,0,3.25.11,3.25.51,0,.17-.06.29-.17.46.91.06,1.83.11,2.8.11,1.6,0,3.48-.11,5.99-.29,1.43-.23.51-.63,2.91-.63,1.26,0,2.74.28,2.74.91,0,.4-.51.86-.8,1.31-1.26,2.8-3.14,6.56-5.65,10.44,4.79,5.88,4.79,3.77,6.62,6.39.91,1.65,1.26,3.02,1.26,4.11,0,1.37-.57,2.17-1.26,2.17-.34,0-.69-.23-.97-.63-1.71-3.08-3.71-6.68-6.51-10.61-7.42,10.21-14.84,14.89-15.52,14.89-.11,0-.23-.06-.23-.17,0-.23.34-.69,1.14-1.37,9.36-8.39,14.55-18.49,17.12-25.28-1.54.06-2.85.17-4.91.34-1.14.17-1.31.63-2,.63-.51,0-1.37-.29-3.2-1.26-1.03,2.11-2.45,4.22-4.22,7.19,2.62,3.25,2.45,1.48,4.34,3.94.63,1.31.86,2.4.86,3.2,0,1.37-.63,2.05-1.26,2.05-.34,0-.74-.23-1.03-.74l-3.77-7.3ZM208.05,571.73c-.11-.91-2.62-2.8-5.02-3.71-.68-.23-1.08-.51-1.08-.8s.51-.51,2-.57c2.28.29,3.37.74,6.22,1.71,1.2.46,1.43.86,1.43,1.48,0,.46-.11,1.03-.11,1.83v20.49h2.85c2.68-.4,1.77-1.48,5.42-1.48,1.08,0,3.48,0,3.48,1.77,0,.8-.68,1.48-1.94,1.48h-9.81v6.33c0,12.27-.4,15.75-1.43,18.09-.46.91-.97,1.48-1.37,1.48-.34,0-.63-.51-.63-1.6v-46.51Z" fill="#4e9e92"/>
    </g>
  </g>
</svg>