<?xml version="1.0" encoding="UTF-8"?>
<svg id="Layer_1" data-name="Layer 1" xmlns="http://www.w3.org/2000/svg" width="1204.81" height="520.66" viewBox="0 0 1204.81 520.66">
  <path d="M1204.81,260.82v-15.3c0-19.11-5.9-34.81-17.54-46.67-11.69-11.91-26.82-17.95-44.95-17.95-13.49,0-25.3,3.35-35.28,9.96-.29-1.26-.81-2.47-1.57-3.56-1.92-2.77-5.09-4.43-8.46-4.43h-20.31c-4.41,0-8.33,2.81-9.75,6.98l-26.12,76.81-24.34-76.61c-1.36-4.28-5.33-7.18-9.82-7.18h-21.32c-3.37,0-6.52,1.64-8.45,4.4-.64.92-1.11,1.93-1.42,2.98-9.78-6.2-21.27-9.35-34.33-9.35-18.14,0-33.26,6.04-44.95,17.95-3.49,3.56-6.46,7.48-8.92,11.72v-17.4c0-5.69-4.61-10.3-10.3-10.3h-19.19c-3.48,0-6.55,1.73-8.41,4.37v-16.18c.22.22.42.46.65.67,4.7,4.39,10.68,6.71,17.3,6.71,4.31,0,8.36-.94,12.04-2.79,4.04-2.03,7.23-5.02,9.48-8.87,2.16-3.7,3.26-7.91,3.26-12.52,0-6.85-2.49-12.89-7.21-17.49-4.64-4.52-10.72-6.91-17.57-6.91s-12.65,2.36-17.36,6.82c-1.18,1.12-2.22,2.33-3.13,3.62-1.89-2.17-4.66-3.55-7.77-3.55h-19.42c-5.69,0-10.3,4.61-10.3,10.3v58.06c-1.62-2.19-3.39-4.28-5.33-6.26-11.69-11.91-26.82-17.95-44.95-17.95s-33.26,6.04-44.95,17.95c-2.97,3.02-5.56,6.3-7.78,9.82-2.18-3.75-4.75-7.21-7.74-10.36-11-11.55-25.61-17.41-43.43-17.41-11.16,0-20.78,2.25-28.64,6.69v-40.55c0-5.69-4.61-10.3-10.3-10.3h-19.19c-5.69,0-10.3,4.61-10.3,10.3v85.66h-61.01c-2.11-13.41-7.64-24.77-16.56-33.86-11.69-11.91-26.82-17.95-44.95-17.95-14.22,0-26.57,3.73-36.88,11.07-.11-.98-.37-1.94-.77-2.88-1.63-3.78-5.35-6.22-9.46-6.22h-22.67c-2.83,0-5.54,1.17-7.49,3.23l-37.09,39.26v-40.88c3.38.42,6.9.63,10.55.63,8.54,0,16.52-1.2,23.71-3.58,7.43-2.45,13.64-5.8,18.46-9.95,4.56-3.91,8.27-8.09,11.05-12.41,2.98-4.65,4.92-9.46,5.75-14.32.51-2.99-.32-6.06-2.28-8.38-1.96-2.32-4.84-3.66-7.88-3.66h-20.31c-4.4,0-8.32,2.8-9.75,6.96-.74,2.15-3.21,3.96-5.16,5.1-3.43,2-8.01,3.02-13.6,3.02-4.09,0-7.59-.62-10.6-1.85-.5-5.14-4.77-9.16-10.01-9.28-1.76-3.19-2.84-6.83-3.25-11h74.59c5.69,0,10.3-4.61,10.3-10.3v-15.3c0-19.11-5.9-34.81-17.54-46.67-11.69-11.91-26.82-17.95-44.95-17.95s-33.26,6.04-44.95,17.95c-2.07,2.11-3.95,4.35-5.66,6.7v-12.39c0-5.69-4.61-10.3-10.3-10.3h-19.08c-5.69,0-10.3,4.61-10.3,10.3v80.12c0,5.39-2.12,9.83-6.67,13.96-4.78,4.34-10.64,6.45-17.93,6.45-13.76,0-18.88-4.85-18.88-17.9V47.79c0-5.69-4.61-10.3-10.3-10.3h-13.59c-1.24-.69-2.64-1.15-4.15-1.28-3.83-.32-6.5-.47-8.38-.47-11.4,0-20.81,2.3-28.04,6.84-1.79-3.05-5.1-5.09-8.89-5.09h-18.05c4.83-.85,8.51-5.06,8.51-10.14V10.3c0-5.69-4.61-10.3-10.3-10.3H10.3C4.61,0,0,4.61,0,10.3v17.05c0,5.69,4.61,10.3,10.3,10.3h40.88v135.06c0,5.69,4.61,10.3,10.3,10.3h3.78c-4.05,1.14-7.59,2.68-10.64,4.52-1.84-2.82-5.02-4.68-8.64-4.68h-19.08c-5.69,0-10.3,4.61-10.3,10.3v124.93c0,5.69,4.61,10.3,10.3,10.3h19.08c5.69,0,10.3-4.61,10.3-10.3v-80.77c0-5.93,1.7-10.43,5.36-14.16,3.6-3.67,7.93-5.38,13.63-5.38,6.01,0,10.47,1.57,13.64,4.79,3.26,3.32,4.78,7.51,4.78,13.21v82.3c0,5.69,4.61,10.3,10.3,10.3h19.08c5.69,0,10.3-4.61,10.3-10.3v-80.55c0-5.9,1.76-10.42,5.53-14.21,3.76-3.78,8.25-5.54,14.13-5.54s10.41,1.39,13.16,4.26c2.87,2.99,4.26,7.09,4.26,12.55v83.5c0,5.69,4.61,10.3,10.3,10.3h19.19c5.69,0,10.3-4.61,10.3-10.3v-2.33c.48.48.97.96,1.47,1.42,4.58,4.18,10.19,7.49,16.68,9.84,6.34,2.29,13.22,3.46,20.45,3.46,11.09,0,20.89-2.46,29.11-7.24,1.78,3.09,5.11,5.17,8.93,5.17h18.74c2.87,0,5.47-1.18,7.34-3.08,1.87,1.9,4.46,3.08,7.34,3.08h19.19c5.69,0,10.3-4.61,10.3-10.3v-42.32l.95-.93,38.28,49.55c1.95,2.52,4.96,4,8.15,4h23.12c3.93,0,7.52-2.24,9.25-5.77.18-.36.32-.74.45-1.11,9.85,5.94,21.77,8.96,35.61,8.96,8.54,0,16.52-1.2,23.71-3.58,7.43-2.45,13.64-5.8,18.46-9.95,4.56-3.91,8.27-8.09,11.05-12.41,2.98-4.65,4.92-9.46,5.75-14.32.51-2.99-.32-6.06-2.28-8.38-1.96-2.32-4.84-3.66-7.88-3.66h-20.31c-4.4,0-8.32,2.8-9.75,6.96-.74,2.15-3.21,3.96-5.16,5.1-3.43,2-8.01,3.02-13.6,3.02-7.82,0-13.56-2.22-17.57-6.78-3.61-4.11-5.68-9.15-6.28-15.35h74.59c1.56,0,3.04-.36,4.37-.98h65.97v47.95c0,3.46,1.72,6.52,4.34,8.39-8.85.63-16.62,2.78-23.17,6.48v-40.55c0-5.69-4.61-10.3-10.3-10.3h-19.19c-5.69,0-10.3,4.61-10.3,10.3v171.05c0,5.69,4.61,10.3,10.3,10.3h18.18c3.9,0,7.3-2.17,9.04-5.37.11.07.22.13.32.19,8.06,4.81,18.12,7.25,29.91,7.25,17.94,0,32.68-5.84,43.82-17.35,3.08-3.18,5.71-6.68,7.94-10.48,2.4,3.8,5.23,7.3,8.51,10.46,11.96,11.52,27.62,17.36,46.54,17.36s34.06-5.87,46.18-17.45c3.71-3.55,6.86-7.5,9.46-11.83,5.22,7.48,11.84,13.39,19.76,17.58,9.17,4.86,19.48,7.32,30.64,7.32,6.9,0,13.47-1.08,19.52-3.21,2.6-.91,5.04-1.98,7.32-3.18-.61,5.44-2.46,9.59-5.58,12.6-3.98,3.82-10.52,5.76-19.46,5.76-6.55,0-11.72-1.14-15.35-3.38-2.73-1.69-4.28-3.4-4.61-5.1-.93-4.85-5.18-8.35-10.12-8.35h-20.09c-2.94,0-5.74,1.26-7.69,3.45-1.95,2.19-2.88,5.12-2.54,8.04,1.45,12.53,7.51,22.95,18,30.98,10.03,7.68,24,11.58,41.5,11.58,19.86,0,35.85-5.04,47.53-14.97,12.16-10.35,18.33-25.55,18.33-45.17v-3.2c1.88,2.46,4.03,4.7,6.49,6.67,9.73,7.86,22.81,11.85,38.85,11.85,11.84,0,21.91-2.69,29.96-7.99,1.65,3.49,5.2,5.91,9.32,5.91h19.08c5.69,0,10.3-4.61,10.3-10.3v-.91c1,.84,2.04,1.65,3.15,2.42,10.36,7.21,23.76,10.86,39.83,10.86,17.31,0,31.65-4.14,42.63-12.31,11.75-8.74,17.96-21.43,17.96-36.68,0-4.97-.67-9.61-1.99-13.81-1.48-4.69-3.89-8.82-7.17-12.3-2.71-2.86-5.64-5.37-8.71-7.45-3.25-2.21-7.22-4.09-11.77-5.58-3.93-1.29-7.74-2.36-11.32-3.2-3.15-.73-6.83-1.45-10.96-2.14-.96-.35-1.96-.57-2.98-.65-.44-.09-.88-.15-1.32-.19-3.45-.67-6.11-1.18-7.95-1.53-.96-.18-2.75-.63-5.86-1.75-2.9-1.05-3.96-1.79-4.13-1.93-.28-.21-.86-.76-1.58-1.99-.37-.63-.44-1.62-.44-2.34,0-1.83.44-3.23,1.43-4.53,1.18-1.55,2.83-2.71,5.05-3.55,2.85-1.08,6.34-1.63,10.38-1.63s7.84.67,10.72,2c2.48,1.14,4.32,2.45,5.16,3.67.94,1.36,1.44,2.66,1.58,4.11.5,5.3,4.94,9.34,10.26,9.34h17.96c5.69,0,10.3-4.61,10.3-10.3,0-6.6-1.42-12.81-4.22-18.46-2.78-5.61-6.78-10.46-11.89-14.43-4.85-3.77-10.74-6.75-17.51-8.86-1.33-.41-2.69-.78-4.07-1.11,3.6-.59,6.67-3.06,7.97-6.55l19.91-53.28c.51,18.16,6.25,33.03,17.11,44.22,11.47,11.83,27.21,17.83,46.79,17.83,8.54,0,16.52-1.2,23.71-3.58,7.43-2.45,13.64-5.8,18.46-9.95,4.56-3.91,8.27-8.09,11.05-12.41,2.98-4.65,4.92-9.46,5.75-14.32.51-2.99-.32-6.06-2.28-8.38-1.96-2.32-4.84-3.66-7.88-3.66h-20.31c-4.4,0-8.32,2.8-9.75,6.96-.74,2.15-3.21,3.96-5.16,5.1-3.43,2-8.01,3.02-13.6,3.02-7.82,0-13.56-2.22-17.57-6.78-3.61-4.11-5.68-9.15-6.28-15.35h74.59c5.69,0,10.3-4.61,10.3-10.3ZM1163.99,236.09h-43.49c.95-4.62,2.8-8.39,5.58-11.44,4.07-4.46,9.2-6.54,16.13-6.54,4.67,0,8.58.98,11.97,2.99,3.25,1.93,5.73,4.68,7.57,8.43.98,1.99,1.73,4.18,2.23,6.56ZM1053,426.78c.31.57.47,1.37.47,2.37,0,1.97-.4,3.52-1.23,4.73-.48.7-1.81,2.08-5.41,3.54-3.42,1.39-7.95,2.09-13.47,2.09-17.28,0-18.28-6.7-18.77-9.92-.76-5.04-5.09-8.77-10.19-8.77h-14.92v-17.44c3.15,2.87,7.21,5.33,12.39,7.51,4.82,2.03,9.27,3.54,13.22,4.5,3.58.87,8.43,1.91,14.41,3.09,4.46.94,7.91,1.67,10.33,2.18,1.96.41,4.37,1.13,7.17,2.13,3.18,1.14,4.33,1.96,4.51,2.11.52.4,1.02,1.04,1.49,1.89ZM962.81,236.09h-43.49c.95-4.62,2.8-8.39,5.58-11.44,4.07-4.46,9.2-6.54,16.13-6.54,4.67,0,8.59.98,11.97,2.99,3.25,1.93,5.73,4.68,7.58,8.43.98,1.99,1.73,4.18,2.23,6.56ZM887.27,318.09v-16.8c2.37,4.12,5.2,7.91,8.54,11.35,11.47,11.83,27.21,17.83,46.79,17.83,4.31,0,8.47-.31,12.46-.92-3.14,1.76-5.27,5.12-5.27,8.98v80.12c0,5.39-2.12,9.83-6.67,13.96-4.78,4.34-10.64,6.45-17.93,6.45-13.76,0-18.88-4.85-18.88-17.9v-82.63c0-5.69-4.61-10.3-10.3-10.3h-17.3c4.86-.83,8.56-5.05,8.56-10.14ZM787.03,392.97c0-4.79.64-9.2,1.91-13.1,1.18-3.63,2.79-6.56,4.92-8.97,2.05-2.32,4.55-4.07,7.63-5.38,3.2-1.35,6.87-2.03,10.92-2.03,7.11,0,12.34,2.25,16.48,7.06,4.48,5.22,6.66,11.34,6.66,18.7v20.11c0,7.09-2.1,13-6.42,18.09-3.94,4.64-9.19,6.8-16.5,6.8-7.71,0-13.52-2.41-18.28-7.6-4.93-5.36-7.33-12.38-7.33-21.45v-12.24ZM848.42,322.38c1.39,3.04,4.22,5.27,7.61,5.85h-9.04c-4.06,0-7.57,2.35-9.25,5.76-4.03-2.45-8.37-4.31-12.99-5.6h14.3c4.16,0,7.73-2.47,9.36-6.01ZM780.74,236.09h-43.49c.95-4.62,2.8-8.39,5.58-11.44,4.07-4.46,9.2-6.54,16.13-6.54,4.67,0,8.59.98,11.97,2.99,3.25,1.93,5.73,4.68,7.58,8.43.98,1.99,1.73,4.18,2.23,6.56ZM809.34,278.17h-20.31c-4.4,0-8.32,2.8-9.75,6.96-.74,2.15-3.21,3.96-5.16,5.1-3.43,2-8.01,3.02-13.6,3.02-7.82,0-13.56-2.22-17.57-6.78-3.61-4.11-5.68-9.15-6.28-15.35h72.67v7.05ZM626.52,268.04v-22.3c0-4.47.63-8.6,1.87-12.28,1.14-3.39,2.72-6.21,4.7-8.37,1.95-2.14,4.35-3.78,7.34-5.03,3.1-1.29,6.73-1.94,10.8-1.94,7.69,0,13.17,2.23,17.23,7.02,4.37,5.16,6.59,13.16,6.59,23.78v13.88c0,10.69-2.21,18.62-6.57,23.58-4.14,4.7-9.41,6.89-16.57,6.89-7.81,0-13.84-2.29-18.45-7.01-4.67-4.78-6.94-10.74-6.94-18.21ZM485.87,236.09h-43.49c.95-4.62,2.8-8.39,5.58-11.44,4.07-4.46,9.2-6.54,16.13-6.54,4.67,0,8.58.98,11.97,2.99,3.25,1.93,5.73,4.68,7.58,8.43.98,1.99,1.73,4.18,2.23,6.56ZM592.61,363.49c7.69,0,13.17,2.23,17.23,7.02,4.37,5.16,6.59,13.16,6.59,23.78v13.88c0,10.69-2.21,18.62-6.58,23.58-4.14,4.7-9.41,6.89-16.57,6.89-7.81,0-13.84-2.29-18.45-7.01-4.67-4.78-6.94-10.74-6.94-18.21v-22.3c0-4.47.63-8.6,1.87-12.28,1.14-3.39,2.72-6.21,4.7-8.37,1.95-2.14,4.35-3.78,7.34-5.03,3.1-1.29,6.73-1.94,10.8-1.94ZM380.6,90.72h-43.49c.95-4.62,2.8-8.39,5.58-11.44,4.07-4.46,9.2-6.54,16.13-6.54,4.67,0,8.59.98,11.97,2.99,3.25,1.93,5.73,4.68,7.58,8.43.98,1.99,1.73,4.18,2.23,6.56ZM402.63,278.42l-23.39-30.17,26.7-28.27c-2.8,7.67-4.22,16.19-4.22,25.54v20.22c0,4.42.32,8.64.91,12.68ZM240.03,274.08c2.07-1.91,6.45-2.96,12.33-2.96h23.59v4.24c0,5.16-1.86,9.19-5.85,12.68-4.35,3.8-9.71,5.65-16.39,5.65-5.2,0-9.4-1.24-12.85-3.78-1.81-1.34-3.67-3.38-3.67-8.43,0-4.23,1.52-6.17,2.85-7.39ZM230.59,233.31c4.45,0,8.39-2.85,9.78-7.08.71-2.16,2.6-7.9,17.38-7.9,6.6,0,11.51,1.26,14.58,3.73.9.72,3.62,2.92,3.62,10.45v2.49h-24.04c-10.93,0-20.61,1.87-28.77,5.56-4.97,2.25-9.26,5.06-12.86,8.38v-15.78c.55.09,1.11.15,1.68.15h18.63ZM140.66,183.02c-5.03,1.39-9.61,3.44-13.69,6.17-3.07,2.05-5.84,4.34-8.3,6.87-2.15-2.38-4.58-4.55-7.26-6.46-3.86-2.76-8.39-4.93-13.46-6.46-3.47-1.04-7.18-1.71-11.08-2.03,2.62-1.87,4.33-4.92,4.33-8.39V37.66h39.73c-4.83.85-8.51,5.06-8.51,10.14v124.93c0,5.69,4.61,10.3,10.3,10.3h7.94ZM195.65,193.65c-9.28-8.36-21.94-12.64-37.61-12.75,2.47-1.88,4.07-4.84,4.07-8.19v-78.91c0-4,.8-7.38,2.45-10.33,1.53-2.74,3.99-4.99,7.52-6.86,3.47-1.85,7.87-2.84,13.06-2.97v61.59c0,16.83,5.27,29.62,15.67,38.02,8.2,6.63,18.78,10.49,31.51,11.54-4.45,1.51-8.5,3.45-12.13,5.82-6.47,4.23-11.35,9.86-14.51,16.61-2.41-5.18-5.75-9.72-10.02-13.57ZM310.04,206.13c-2.79-5.13-6.53-9.53-11.26-13.13-9.75-7.43-22.03-11.46-36.54-12.03,2.61-1.08,5.08-2.36,7.37-3.86,1.65,3.49,5.2,5.91,9.32,5.91h19.08c5.69,0,10.3-4.61,10.3-10.3v-11.77c.56.77,1.13,1.53,1.73,2.27v42.91ZM639.97,343.68c-7.18-7.54-15.91-12.64-26.06-15.28h1.3c3.9,0,7.3-2.17,9.04-5.37.11.07.21.13.32.19,8.06,4.81,18.12,7.25,29.91,7.25,17.94,0,32.68-5.84,43.82-17.35,3.02-3.12,5.61-6.54,7.81-10.25,2.17,3.51,4.71,6.77,7.61,9.77,11.47,11.83,27.21,17.83,46.79,17.83,8.54,0,16.52-1.2,23.72-3.58,7.43-2.45,13.64-5.8,18.46-9.95,2.47-2.12,4.68-4.32,6.64-6.57v7.72c0,3.46,1.71,6.52,4.33,8.39-1.63-.12-3.27-.21-4.96-.21-8.43,0-16.44,1.45-23.81,4.3-7.45,2.88-14.06,7.05-19.63,12.39-3.14,3.01-5.91,6.45-8.3,10.27-2.29-3.45-4.95-6.63-7.99-9.55-12.04-11.55-27.62-17.41-46.3-17.41s-34.05,6.02-46.24,17.9c-3.25,3.17-6.07,6.62-8.47,10.32-2.23-3.92-4.89-7.54-8-10.81ZM677.63,408.82v-15.63c0-9.51,2.33-16.77,7.13-22.2,4.52-5.12,10.24-7.5,17.98-7.5s13.34,2.33,17.71,7.34c4.67,5.36,6.95,12.68,6.95,22.36v15.63c0,9.87-2.22,17.26-6.78,22.59-4.21,4.92-9.91,7.22-17.93,7.22-5.43,0-9.87-1.11-13.56-3.38-3.6-2.22-6.31-5.33-8.26-9.49-2.14-4.57-3.23-10.26-3.23-16.93ZM870.88,329.97c-1.17-.78-2.52-1.32-3.97-1.57h7.93c-1.45.25-2.79.79-3.97,1.57ZM961.61,328.24c1.6-.4,3.17-.84,4.7-1.35,7.43-2.45,13.64-5.8,18.46-9.95,4.56-3.91,8.27-8.09,11.05-12.41,2.98-4.65,4.92-9.46,5.75-14.32.51-2.99-.32-6.06-2.28-8.38-1.96-2.32-4.84-3.66-7.88-3.66h-20.31c-4.4,0-8.32,2.8-9.75,6.96-.74,2.15-3.21,3.96-5.16,5.1-3.43,2-8.01,3.02-13.6,3.02-7.82,0-13.56-2.22-17.57-6.78-3.61-4.11-5.68-9.15-6.28-15.35h74.59c3.31,0,6.25-1.57,8.14-4l19.98,54.52c.79,2.16,2.27,3.92,4.12,5.11-11.56,1.23-21.7,4.89-30.22,10.93-2.15,1.52-4.11,3.2-5.88,5.01v-4.15c0-5.69-4.61-10.3-10.3-10.3h-17.56Z" fill="#8eacad"/>
</svg>